<svg width="21" height="32" viewBox="0 0 21 32" fill="none" xmlns="http://www.w3.org/2000/svg">
<path d="M10.3467 0.873047C14.393 6.68426 17.0476 10.5523 18.3125 12.4834C19.5629 14.3925 20.1982 16.6735 20.1982 19.3477C20.1982 22.6703 19.2258 25.5033 17.293 27.873C15.3693 30.2315 13.0571 31.3818 10.333 31.3818C7.6088 31.3818 5.29738 30.2313 3.38477 27.874H3.38379C1.46547 25.5051 0.500001 22.6588 0.5 19.3086C0.5 16.696 1.12455 14.4344 2.35742 12.5049V12.5039C3.59586 10.5563 6.25724 6.68241 10.3467 0.873047Z" fill="white" stroke="#003C5B"/>
<path d="M9.3678 21.6116C8.9358 21.6116 8.53313 21.5423 8.1598 21.4036C7.7918 21.2596 7.4718 21.057 7.1998 20.7956C6.9278 20.5343 6.71446 20.2276 6.5598 19.8756C6.41046 19.5236 6.3358 19.137 6.3358 18.7156C6.3358 18.2943 6.41046 17.9076 6.5598 17.5556C6.71446 17.2036 6.9278 16.897 7.1998 16.6356C7.47713 16.3743 7.7998 16.1743 8.1678 16.0356C8.5358 15.8916 8.93846 15.8196 9.3758 15.8196C9.86113 15.8196 10.2985 15.905 10.6878 16.0756C11.0825 16.241 11.4131 16.4863 11.6798 16.8116L10.8478 17.5796C10.6558 17.361 10.4425 17.1983 10.2078 17.0916C9.97313 16.9796 9.71713 16.9236 9.4398 16.9236C9.17846 16.9236 8.93846 16.9663 8.7198 17.0516C8.50113 17.137 8.3118 17.2596 8.1518 17.4196C7.9918 17.5796 7.86646 17.769 7.7758 17.9876C7.69046 18.2063 7.6478 18.449 7.6478 18.7156C7.6478 18.9823 7.69046 19.225 7.7758 19.4436C7.86646 19.6623 7.9918 19.8516 8.1518 20.0116C8.3118 20.1716 8.50113 20.2943 8.7198 20.3796C8.93846 20.465 9.17846 20.5076 9.4398 20.5076C9.71713 20.5076 9.97313 20.4543 10.2078 20.3476C10.4425 20.2356 10.6558 20.0676 10.8478 19.8436L11.6798 20.6116C11.4131 20.937 11.0825 21.185 10.6878 21.3556C10.2985 21.5263 9.85846 21.6116 9.3678 21.6116ZM12.3889 21.5156V15.5796H13.6369V21.5156H12.3889Z" fill="#01C38E"/>
</svg>
