<svg width="41" height="30" viewBox="0 0 41 30" fill="none" xmlns="http://www.w3.org/2000/svg">
<path d="M20.1465 0.5C23.5852 0.50001 26.4788 1.70508 28.875 4.125C31.2715 6.54532 32.4668 9.47061 32.4668 12.9482V13.4014L32.917 13.4453C34.8227 13.6347 36.5819 14.5665 37.8213 16.0439L37.8311 16.0537C39.1408 17.5331 39.7929 19.2648 39.793 21.2715C39.793 23.4511 39.0391 25.285 37.54 26.8184C36.0212 28.3349 34.2064 29.0957 32.0508 29.0957H10.0732C7.45093 29.0957 5.18164 28.2179 3.30273 26.3379L3.30078 26.3369L2.96191 25.9854C1.32335 24.2056 0.500026 22.0652 0.5 19.5703C0.5 17.2702 1.16336 15.2327 2.54004 13.4375C3.91489 11.6448 5.71774 10.5061 7.89453 10.0137L8.1875 9.94727L8.2666 9.65723C9.00748 6.93152 10.4657 4.74895 12.6689 3.04004C14.8687 1.33383 17.3612 0.5 20.1465 0.5Z" fill="white" stroke="#003C5B"/>
<path d="M13.013 21.7955C12.527 21.7955 12.074 21.7175 11.654 21.5615C11.24 21.3995 10.88 21.1715 10.574 20.8775C10.268 20.5835 10.028 20.2385 9.85404 19.8425C9.68604 19.4465 9.60204 19.0115 9.60204 18.5375C9.60204 18.0635 9.68604 17.6285 9.85404 17.2325C10.028 16.8365 10.268 16.4915 10.574 16.1975C10.886 15.9035 11.249 15.6785 11.663 15.5225C12.077 15.3605 12.53 15.2795 13.022 15.2795C13.568 15.2795 14.06 15.3755 14.498 15.5675C14.942 15.7535 15.314 16.0295 15.614 16.3955L14.678 17.2595C14.462 17.0135 14.222 16.8305 13.958 16.7105C13.694 16.5845 13.406 16.5215 13.094 16.5215C12.8 16.5215 12.53 16.5695 12.284 16.6655C12.038 16.7615 11.825 16.8995 11.645 17.0795C11.465 17.2595 11.324 17.4725 11.222 17.7185C11.126 17.9645 11.078 18.2375 11.078 18.5375C11.078 18.8375 11.126 19.1105 11.222 19.3565C11.324 19.6025 11.465 19.8155 11.645 19.9955C11.825 20.1755 12.038 20.3135 12.284 20.4095C12.53 20.5055 12.8 20.5535 13.094 20.5535C13.406 20.5535 13.694 20.4935 13.958 20.3735C14.222 20.2475 14.462 20.0585 14.678 19.8065L15.614 20.6705C15.314 21.0365 14.942 21.3155 14.498 21.5075C14.06 21.6995 13.565 21.7955 13.013 21.7955ZM19.2895 21.7955C18.7915 21.7955 18.3295 21.7145 17.9035 21.5525C17.4835 21.3905 17.1175 21.1625 16.8055 20.8685C16.4995 20.5745 16.2595 20.2295 16.0855 19.8335C15.9175 19.4375 15.8335 19.0055 15.8335 18.5375C15.8335 18.0695 15.9175 17.6375 16.0855 17.2415C16.2595 16.8455 16.5025 16.5005 16.8145 16.2065C17.1265 15.9125 17.4925 15.6845 17.9125 15.5225C18.3325 15.3605 18.7885 15.2795 19.2805 15.2795C19.7785 15.2795 20.2345 15.3605 20.6485 15.5225C21.0685 15.6845 21.4315 15.9125 21.7375 16.2065C22.0495 16.5005 22.2925 16.8455 22.4665 17.2415C22.6405 17.6315 22.7275 18.0635 22.7275 18.5375C22.7275 19.0055 22.6405 19.4405 22.4665 19.8425C22.2925 20.2385 22.0495 20.5835 21.7375 20.8775C21.4315 21.1655 21.0685 21.3905 20.6485 21.5525C20.2345 21.7145 19.7815 21.7955 19.2895 21.7955ZM19.2805 20.5535C19.5625 20.5535 19.8205 20.5055 20.0545 20.4095C20.2945 20.3135 20.5045 20.1755 20.6845 19.9955C20.8645 19.8155 21.0025 19.6025 21.0985 19.3565C21.2005 19.1105 21.2515 18.8375 21.2515 18.5375C21.2515 18.2375 21.2005 17.9645 21.0985 17.7185C21.0025 17.4725 20.8645 17.2595 20.6845 17.0795C20.5105 16.8995 20.3035 16.7615 20.0635 16.6655C19.8235 16.5695 19.5625 16.5215 19.2805 16.5215C18.9985 16.5215 18.7375 16.5695 18.4975 16.6655C18.2635 16.7615 18.0565 16.8995 17.8765 17.0795C17.6965 17.2595 17.5555 17.4725 17.4535 17.7185C17.3575 17.9645 17.3095 18.2375 17.3095 18.5375C17.3095 18.8315 17.3575 19.1045 17.4535 19.3565C17.5555 19.6025 17.6935 19.8155 17.8675 19.9955C18.0475 20.1755 18.2575 20.3135 18.4975 20.4095C18.7375 20.5055 18.9985 20.5535 19.2805 20.5535ZM23.2853 21.6875V20.7425L25.7153 18.4475C25.9073 18.2735 26.0483 18.1175 26.1383 17.9795C26.2283 17.8415 26.2883 17.7155 26.3183 17.6015C26.3543 17.4875 26.3723 17.3825 26.3723 17.2865C26.3723 17.0345 26.2853 16.8425 26.1113 16.7105C25.9433 16.5725 25.6943 16.5035 25.3643 16.5035C25.1003 16.5035 24.8543 16.5545 24.6263 16.6565C24.4043 16.7585 24.2153 16.9175 24.0593 17.1335L22.9973 16.4495C23.2373 16.0895 23.5733 15.8045 24.0053 15.5945C24.4373 15.3845 24.9353 15.2795 25.4993 15.2795C25.9673 15.2795 26.3753 15.3575 26.7233 15.5135C27.0773 15.6635 27.3503 15.8765 27.5423 16.1525C27.7403 16.4285 27.8393 16.7585 27.8393 17.1425C27.8393 17.3465 27.8123 17.5505 27.7583 17.7545C27.7103 17.9525 27.6083 18.1625 27.4523 18.3845C27.3023 18.6065 27.0803 18.8555 26.7863 19.1315L24.7703 21.0305L24.4913 20.4995H28.0463V21.6875H23.2853Z" fill="#45BFA2"/>
</svg>
