<svg width="30" height="30" viewBox="0 0 30 30" fill="none" xmlns="http://www.w3.org/2000/svg">
<rect x="0.5" y="0.5" width="28.5004" height="28.5004" rx="9.5" fill="white" stroke="#003C5B"/>
<path fill-rule="evenodd" clip-rule="evenodd" d="M12.2208 7.26671C12.3752 7.10978 12.5845 7.02164 12.8026 7.02164C13.0208 7.02164 13.2301 7.10978 13.3844 7.26671L14.7248 8.62979L16.064 7.26671C16.1394 7.18438 16.2303 7.11834 16.3313 7.07254C16.4323 7.02674 16.5413 7.00212 16.6518 7.00013C16.7624 6.99815 16.8722 7.01884 16.9747 7.06099C17.0772 7.10313 17.1703 7.16586 17.2485 7.24543C17.3267 7.32501 17.3883 7.41979 17.4297 7.52413C17.4711 7.62847 17.4915 7.74023 17.4895 7.85275C17.4876 7.96526 17.4634 8.07622 17.4184 8.17901C17.3734 8.2818 17.3085 8.37431 17.2276 8.45103L15.5481 10.1605V13.3894L18.2946 11.775L18.9093 9.43871C18.9658 9.22387 19.1038 9.04068 19.293 8.92942C19.3867 8.87432 19.4901 8.83855 19.5974 8.82414C19.7046 8.80973 19.8136 8.81697 19.9182 8.84543C20.0227 8.87389 20.1206 8.92303 20.2065 8.99004C20.2924 9.05704 20.3644 9.1406 20.4185 9.23595C20.4727 9.3313 20.5078 9.43656 20.522 9.54573C20.5361 9.6549 20.529 9.76584 20.501 9.87222L20.0104 11.7347L21.8403 12.2342C22.0512 12.2916 22.2311 12.4321 22.3403 12.6245C22.4495 12.817 22.4791 13.0457 22.4226 13.2604C22.3662 13.4751 22.2282 13.6581 22.0391 13.7693C21.85 13.8804 21.6253 13.9106 21.4144 13.8531L19.1179 13.2274L16.3714 14.8397L19.1179 16.4541L21.4133 15.8285C21.6216 15.7782 21.841 15.8125 22.0249 15.9241C22.2088 16.0358 22.3428 16.2159 22.3983 16.4264C22.4539 16.6369 22.4267 16.8611 22.3225 17.0515C22.2183 17.2419 22.0453 17.3835 21.8403 17.4463L20.0104 17.9457L20.501 19.8082C20.529 19.9146 20.5361 20.0255 20.522 20.1347C20.5078 20.2439 20.4727 20.3492 20.4185 20.4445C20.3644 20.5398 20.2924 20.6234 20.2065 20.6904C20.1206 20.7574 20.0227 20.8066 19.9182 20.835C19.8136 20.8635 19.7046 20.8707 19.5974 20.8563C19.4901 20.8419 19.3867 20.8061 19.293 20.751C19.1993 20.6959 19.1172 20.6226 19.0514 20.5352C18.9856 20.4478 18.9373 20.3481 18.9093 20.2417L18.2946 17.9055L15.5481 16.2921V19.5222L17.2276 21.2317C17.3819 21.389 17.4685 21.6023 17.4683 21.8246C17.4681 22.0469 17.3811 22.26 17.2265 22.4171C17.0719 22.5741 16.8624 22.6623 16.6439 22.6621C16.4255 22.6618 16.2161 22.5733 16.0618 22.416L14.7248 21.0551L13.3877 22.416C13.3118 22.4961 13.221 22.5599 13.1206 22.6039C13.0202 22.6479 12.9121 22.671 12.8028 22.672C12.6935 22.6731 12.5851 22.6519 12.4839 22.6098C12.3827 22.5677 12.2907 22.5056 12.2134 22.4269C12.1361 22.3483 12.0749 22.2548 12.0334 22.1518C11.992 22.0488 11.9711 21.9385 11.972 21.8272C11.9729 21.716 11.9956 21.606 12.0387 21.5037C12.0818 21.4015 12.1444 21.309 12.223 21.2317L13.9015 19.5222V16.2944L11.1528 17.9088L10.538 20.2417C10.5101 20.348 10.4618 20.4477 10.396 20.535C10.3302 20.6223 10.2481 20.6956 10.1545 20.7506C10.0609 20.8057 9.95751 20.8414 9.85032 20.8558C9.74312 20.8702 9.6342 20.8629 9.52975 20.8345C9.42531 20.806 9.3274 20.7569 9.24161 20.6899C9.15583 20.6229 9.08384 20.5394 9.02976 20.4441C8.97569 20.3488 8.94058 20.2436 8.92645 20.1345C8.91232 20.0254 8.91944 19.9145 8.94741 19.8082L9.437 17.9491L7.61037 17.4508C7.39944 17.3933 7.21959 17.2529 7.11038 17.0604C7.00116 16.868 6.97154 16.6392 7.02802 16.4245C7.0845 16.2099 7.22246 16.0268 7.41155 15.9156C7.60063 15.8045 7.82536 15.7743 8.03629 15.8318L10.3306 16.4575L13.0782 14.8408L10.3295 13.2252L8.03629 13.8509C7.82536 13.9084 7.60063 13.8782 7.41155 13.767C7.22246 13.6559 7.0845 13.4728 7.02802 13.2581C6.97154 13.0435 7.00116 12.8147 7.11038 12.6223C7.21959 12.4298 7.39944 12.2894 7.61037 12.2319L9.437 11.7336L8.9485 9.87445C8.90052 9.66284 8.93513 9.44054 9.04502 9.2544C9.15492 9.06825 9.33153 8.9328 9.53763 8.87659C9.74372 8.82039 9.96321 8.84781 10.1498 8.95309C10.3364 9.05836 10.4756 9.23327 10.538 9.44094L11.1528 11.7738L13.9015 13.3894V10.1605L12.2208 8.45103C12.0667 8.29391 11.9801 8.08093 11.9801 7.85887C11.9801 7.63681 12.0667 7.42382 12.2208 7.26671Z" fill="#01C38E"/>
</svg>
