<svg width="21" height="32" viewBox="0 0 21 32" fill="none" xmlns="http://www.w3.org/2000/svg">
<path d="M10.3467 0.873047C14.393 6.68426 17.0476 10.5523 18.3125 12.4834C19.5629 14.3925 20.1982 16.6735 20.1982 19.3477C20.1982 22.6703 19.2258 25.5033 17.293 27.873C15.3693 30.2315 13.0571 31.3818 10.333 31.3818C7.6088 31.3818 5.29738 30.2313 3.38477 27.874H3.38379C1.46547 25.5051 0.500001 22.6588 0.5 19.3086C0.5 16.696 1.12455 14.4344 2.35742 12.5049V12.5039C3.59586 10.5563 6.25724 6.68241 10.3467 0.873047Z" fill="white" stroke="#003C5B"/>
<path d="M7.24926 21.5796C6.8866 21.5796 6.56926 21.4996 6.29726 21.3396C6.02526 21.1796 5.81193 20.937 5.65726 20.6116C5.50793 20.281 5.43326 19.865 5.43326 19.3636C5.43326 18.857 5.50526 18.441 5.64926 18.1156C5.79326 17.7903 6.00126 17.5476 6.27326 17.3876C6.54526 17.2276 6.8706 17.1476 7.24926 17.1476C7.6546 17.1476 8.01726 17.241 8.33726 17.4276C8.6626 17.609 8.9186 17.865 9.10526 18.1956C9.29726 18.5263 9.39326 18.9156 9.39326 19.3636C9.39326 19.817 9.29726 20.209 9.10526 20.5396C8.9186 20.8703 8.6626 21.1263 8.33726 21.3076C8.01726 21.489 7.6546 21.5796 7.24926 21.5796ZM4.70526 23.0676V17.2116H5.89726V18.0916L5.87326 19.3716L5.95326 20.6436V23.0676H4.70526ZM7.03326 20.5556C7.24126 20.5556 7.42526 20.5076 7.58526 20.4116C7.7506 20.3156 7.88126 20.1796 7.97726 20.0036C8.0786 19.8223 8.12926 19.609 8.12926 19.3636C8.12926 19.113 8.0786 18.8996 7.97726 18.7236C7.88126 18.5476 7.7506 18.4116 7.58526 18.3156C7.42526 18.2196 7.24126 18.1716 7.03326 18.1716C6.82526 18.1716 6.6386 18.2196 6.47326 18.3156C6.30793 18.4116 6.17726 18.5476 6.08126 18.7236C5.98526 18.8996 5.93726 19.113 5.93726 19.3636C5.93726 19.609 5.98526 19.8223 6.08126 20.0036C6.17726 20.1796 6.30793 20.3156 6.47326 20.4116C6.6386 20.5076 6.82526 20.5556 7.03326 20.5556ZM14.1567 21.5156V15.9156H15.4527V21.5156H14.1567ZM10.3167 21.5156V15.9156H11.6127V21.5156H10.3167ZM11.5167 19.2196V18.1236H14.2527V19.2196H11.5167Z" fill="#01C38E"/>
</svg>
