<svg width="31" height="31" viewBox="0 0 31 31" fill="none" xmlns="http://www.w3.org/2000/svg">
<path d="M15.1338 0.5C23.2092 0.5 29.7683 7.14206 29.7686 15.3506C29.7686 23.5593 23.2093 30.2021 15.1338 30.2021C7.05842 30.202 0.5 23.5592 0.5 15.3506C0.500237 7.14218 7.05857 0.500191 15.1338 0.5Z" fill="white" stroke="#003C5B"/>
<path d="M15.1343 1.14062V4.17293M5.62185 5.1372L7.7354 7.28104M24.6468 5.1372L22.5332 7.28104M28.128 18.3186L25.2417 17.5333M2.14062 18.3186L5.02695 17.5333" stroke="#003C5B" stroke-linecap="round"/>
<path d="M17.7807 17.6955C17.8096 18.649 16.8466 19.4298 15.6297 19.4396C14.4123 19.4503 13.4014 18.6858 13.3719 17.7331C13.3397 16.7169 14.2077 11.7028 14.7641 8.61362C14.8688 8.03218 15.6781 8.02521 15.8202 8.60563C16.5678 11.6839 17.7807 17.6955 17.7807 17.6955Z" fill="#01C38E"/>
</svg>
