<svg width="30" height="30" viewBox="0 0 30 30" fill="none" xmlns="http://www.w3.org/2000/svg">
<rect x="0.5" y="0.5" width="28.5004" height="28.5004" rx="9.5" fill="white" stroke="#003C5B"/>
<path d="M14.4234 8.4344V6.6086C14.4234 6.44719 14.4867 6.29239 14.5992 6.17825C14.7117 6.06412 14.8643 6 15.0234 6C15.1826 6 15.3352 6.06412 15.4477 6.17825C15.5602 6.29239 15.6234 6.44719 15.6234 6.6086V8.4344C15.6234 8.59581 15.5602 8.75061 15.4477 8.86474C15.3352 8.97887 15.1826 9.04299 15.0234 9.04299C14.8643 9.04299 14.7117 8.97887 14.5992 8.86474C14.4867 8.75061 14.4234 8.59581 14.4234 8.4344ZM9.79894 10.6908C9.91152 10.805 10.0642 10.8691 10.2234 10.8691C10.3827 10.8691 10.5354 10.805 10.6479 10.6908C10.7605 10.5766 10.8238 10.4217 10.8238 10.2602C10.8238 10.0987 10.7605 9.94381 10.6479 9.82961L9.44794 8.61241C9.33535 8.49821 9.18266 8.43406 9.02344 8.43406C8.86422 8.43406 8.71152 8.49821 8.59894 8.61241C8.48635 8.72661 8.4231 8.88149 8.4231 9.04299C8.4231 9.20449 8.48635 9.35938 8.59894 9.47358L9.79894 10.6908ZM9.79894 19.5672L8.59894 20.7844C8.48635 20.8986 8.4231 21.0535 8.4231 21.215C8.4231 21.3765 8.48635 21.5314 8.59894 21.6456C8.71152 21.7598 8.86422 21.8239 9.02344 21.8239C9.18266 21.8239 9.33535 21.7598 9.44794 21.6456L10.6479 20.4284C10.7037 20.3718 10.7479 20.3047 10.7781 20.2308C10.8082 20.1569 10.8238 20.0777 10.8238 19.9978C10.8238 19.9178 10.8082 19.8386 10.7781 19.7647C10.7479 19.6909 10.7037 19.6237 10.6479 19.5672C10.5922 19.5106 10.526 19.4658 10.4532 19.4352C10.3803 19.4046 10.3023 19.3888 10.2234 19.3888C10.1446 19.3888 10.0665 19.4046 9.9937 19.4352C9.92086 19.4658 9.85468 19.5106 9.79894 19.5672ZM19.8234 10.8688C19.9023 10.8689 19.9803 10.8532 20.0531 10.8226C20.126 10.7921 20.1922 10.7473 20.2479 10.6908L21.4479 9.47358C21.5605 9.35938 21.6238 9.20449 21.6238 9.04299C21.6238 8.88149 21.5605 8.72661 21.4479 8.61241C21.3354 8.49821 21.1827 8.43406 21.0234 8.43406C20.8642 8.43406 20.7115 8.49821 20.5989 8.61241L19.3989 9.82961C19.3149 9.91472 19.2577 10.0232 19.2345 10.1413C19.2113 10.2594 19.2232 10.3819 19.2687 10.4932C19.3141 10.6044 19.3911 10.6995 19.4898 10.7664C19.5886 10.8332 19.7047 10.8689 19.8234 10.8688ZM20.2479 19.5672C20.1354 19.453 19.9827 19.3888 19.8234 19.3888C19.6642 19.3888 19.5115 19.453 19.3989 19.5672C19.2864 19.6814 19.2231 19.8363 19.2231 19.9978C19.2231 20.1593 19.2864 20.3142 19.3989 20.4284L20.5989 21.6456C20.6547 21.7021 20.7209 21.747 20.7937 21.7776C20.8665 21.8082 20.9446 21.8239 21.0234 21.8239C21.1023 21.8239 21.1803 21.8082 21.2532 21.7776C21.326 21.747 21.3922 21.7021 21.4479 21.6456C21.5037 21.589 21.5479 21.5219 21.5781 21.448C21.6082 21.3741 21.6238 21.2949 21.6238 21.215C21.6238 21.135 21.6082 21.0558 21.5781 20.9819C21.5479 20.9081 21.5037 20.8409 21.4479 20.7844L20.2479 19.5672ZM9.02344 15.129C9.02344 14.9676 8.96022 14.8128 8.8477 14.6986C8.73518 14.5845 8.58257 14.5204 8.42344 14.5204H6.62344C6.46431 14.5204 6.3117 14.5845 6.19917 14.6986C6.08665 14.8128 6.02344 14.9676 6.02344 15.129C6.02344 15.2904 6.08665 15.4452 6.19917 15.5593C6.3117 15.6735 6.46431 15.7376 6.62344 15.7376H8.42344C8.58257 15.7376 8.73518 15.6735 8.8477 15.5593C8.96022 15.4452 9.02344 15.2904 9.02344 15.129ZM15.0234 21.215C14.8643 21.215 14.7117 21.2791 14.5992 21.3932C14.4867 21.5074 14.4234 21.6622 14.4234 21.8236V23.6494C14.4234 23.8108 14.4867 23.9656 14.5992 24.0797C14.7117 24.1938 14.8643 24.258 15.0234 24.258C15.1826 24.258 15.3352 24.1938 15.4477 24.0797C15.5602 23.9656 15.6234 23.8108 15.6234 23.6494V21.8236C15.6234 21.6622 15.5602 21.5074 15.4477 21.3932C15.3352 21.2791 15.1826 21.215 15.0234 21.215ZM23.4234 14.5204H21.6234C21.4643 14.5204 21.3117 14.5845 21.1992 14.6986C21.0867 14.8128 21.0234 14.9676 21.0234 15.129C21.0234 15.2904 21.0867 15.4452 21.1992 15.5593C21.3117 15.6735 21.4643 15.7376 21.6234 15.7376H23.4234C23.5826 15.7376 23.7352 15.6735 23.8477 15.5593C23.9602 15.4452 24.0234 15.2904 24.0234 15.129C24.0234 14.9676 23.9602 14.8128 23.8477 14.6986C23.7352 14.5845 23.5826 14.5204 23.4234 14.5204Z" fill="#004280"/>
<path d="M19.8266 15.1266C19.8266 16.0896 19.5451 17.0309 19.0176 17.8316C18.4902 18.6322 17.7405 19.2563 16.8634 19.6248C15.9864 19.9933 15.0212 20.0897 14.0901 19.9018C13.159 19.714 12.3037 19.2503 11.6325 18.5694C10.9612 17.8884 10.504 17.0209 10.3188 16.0765C10.1336 15.132 10.2286 14.1531 10.5919 13.2634C10.9552 12.3737 11.5705 11.6133 12.3598 11.0784C13.1492 10.5434 14.0772 10.2578 15.0266 10.2578C16.2992 10.2592 17.5193 10.7726 18.4191 11.6854C19.319 12.5982 19.8252 13.8358 19.8266 15.1266ZM18.6266 15.1266C18.6266 14.4044 18.4154 13.6984 18.0199 13.0979C17.6243 12.4974 17.062 12.0294 16.4042 11.753C15.7464 11.4766 15.0226 11.4043 14.3242 11.5452C13.6259 11.6861 12.9844 12.0339 12.481 12.5445C11.9775 13.0552 11.6346 13.7059 11.4957 14.4142C11.3568 15.1226 11.4281 15.8568 11.7006 16.524C11.9731 17.1912 12.4345 17.7615 13.0265 18.1628C13.6185 18.564 14.3146 18.7782 15.0266 18.7782C15.981 18.7772 16.8961 18.3921 17.5711 17.7076C18.246 17.023 18.6256 16.0948 18.6266 15.1266Z" fill="#01C38E"/>
</svg>
