<svg width="17" height="31" viewBox="0 0 17 31" fill="none" xmlns="http://www.w3.org/2000/svg">
<path d="M8.4043 0.5C9.8403 0.501473 11.2215 1.05629 12.2627 2.05078C13.3022 3.04376 13.9239 4.39951 13.999 5.83887V5.83984L14.0068 6.14648L14.0078 16.4512V16.6494L14.1445 16.7939L14.2227 16.876V16.877C15.3715 18.1367 16.0852 19.7354 16.2568 21.4355L16.2861 21.8203V21.8213L16.2969 22.2471C16.2948 23.5167 15.9893 24.7671 15.4062 25.8936C14.8214 27.0236 13.9749 27.9959 12.9375 28.7275C11.9001 29.4592 10.7024 29.9288 9.44629 30.0977C8.19006 30.2665 6.91109 30.1291 5.71875 29.6973C4.52668 29.2654 3.45559 28.5517 2.5957 27.6162C1.73566 26.6805 1.11199 25.5502 0.77832 24.3213C0.44479 23.0926 0.410635 21.8014 0.678711 20.5566C0.946004 19.3157 1.50543 18.157 2.31055 17.1787L2.58398 16.8652L2.65234 16.792L2.78906 16.6484V16.4492L2.79004 6.13379L2.79688 5.87207C2.85701 4.56974 3.36463 3.32524 4.23828 2.35449C5.17008 1.31917 6.45135 0.668014 7.83301 0.527344L8.10449 0.506836L8.10547 0.507812L8.4043 0.5Z" fill="white" stroke="#004280"/>
<path d="M8.68103 10.2188C9.00772 10.2187 9.32103 10.3602 9.55204 10.6119C9.78304 10.8637 9.91282 11.2052 9.91282 11.5612V18.5528C10.5612 18.8612 11.0924 19.4035 11.4171 20.0886C11.7418 20.7736 11.8401 21.5596 11.6955 22.3144C11.551 23.0692 11.1724 23.7467 10.6234 24.2331C10.0744 24.7194 9.38851 24.9849 8.68103 24.9849C7.97356 24.9849 7.28765 24.7194 6.73866 24.2331C6.18967 23.7467 5.81107 23.0692 5.66652 22.3144C5.52198 21.5596 5.62031 20.7736 5.94497 20.0886C6.26963 19.4035 6.80083 18.8612 7.44925 18.5528V11.5612C7.44925 11.2052 7.57902 10.8637 7.81003 10.6119C8.04103 10.3602 8.35434 10.2187 8.68103 10.2188Z" fill="#01C38E"/>
</svg>
