<svg width="21" height="32" viewBox="0 0 21 32" fill="none" xmlns="http://www.w3.org/2000/svg">
<path d="M10.3467 0.873047C14.393 6.68426 17.0476 10.5523 18.3125 12.4834C19.5629 14.3925 20.1982 16.6735 20.1982 19.3477C20.1982 22.6703 19.2258 25.5033 17.293 27.873C15.3693 30.2315 13.0571 31.3818 10.333 31.3818C7.6088 31.3818 5.29738 30.2313 3.38477 27.874H3.38379C1.46547 25.5051 0.500001 22.6588 0.5 19.3086C0.5 16.696 1.12455 14.4344 2.35742 12.5049V12.5039C3.59586 10.5563 6.25724 6.68241 10.3467 0.873047Z" fill="white" stroke="#003C5B"/>
<path d="M6.18458 18.927C6.91064 18.927 7.05097 19.6726 8.21632 19.6726C9.40608 19.6726 9.4915 18.927 10.2481 18.927C10.9741 18.927 11.1145 19.6726 12.2798 19.6726C13.4696 19.6726 13.555 18.927 14.3116 18.927C15.0376 18.927 15.1658 19.6577 16.3311 19.6726V18.1814C15.6051 18.1814 15.4647 17.4357 14.2994 17.4357C13.1096 17.4357 13.0242 18.1814 12.2676 18.1814C11.5416 18.1814 11.4012 17.4357 10.2359 17.4357C9.04611 17.4357 8.96069 18.1814 8.20412 18.1814C7.47806 18.1814 7.33773 17.4357 6.17237 17.4357C4.98261 17.4357 4.89719 18.1814 4.14062 18.1814V19.6726C5.29988 19.6726 5.46462 18.927 6.18458 18.927ZM14.3116 20.4183C13.1218 20.4183 13.0364 21.1639 12.2798 21.1639C11.5538 21.1639 11.4134 20.4183 10.2481 20.4183C9.05831 20.4183 8.96679 21.1639 8.21022 21.1639C7.45365 21.1639 7.36824 20.4183 6.17847 20.4183C4.98871 20.4183 4.89719 21.1639 4.14062 21.1639V22.6552C5.33039 22.6552 5.42801 21.9096 6.17847 21.9096C6.93504 21.9096 7.02046 22.6552 8.21022 22.6552C9.39998 22.6552 9.4915 21.9096 10.2481 21.9096C10.9741 21.9096 11.1145 22.6552 12.2798 22.6552C13.4635 22.6552 13.555 21.9096 14.3116 21.9096C15.0376 21.9096 15.178 22.6552 16.3433 22.6552V21.1639C15.5867 21.1639 15.5013 20.4183 14.3116 20.4183ZM6.18458 15.9444C6.91064 15.9444 7.05097 16.6901 8.21632 16.6901C9.40608 16.6901 9.4915 15.9444 10.2481 15.9444C10.9741 15.9444 11.1145 16.6901 12.2798 16.6901C13.4696 16.6901 13.555 15.9444 14.3116 15.9444C15.0376 15.9444 15.1658 16.6751 16.3311 16.6901V15.1988C15.6051 15.1988 15.4647 14.4531 14.2994 14.4531C13.1096 14.4531 13.0242 15.1988 12.2676 15.1988C11.5416 15.1988 11.4012 14.4531 10.2359 14.4531C9.04611 14.4531 8.96069 15.1988 8.20412 15.1988C7.47806 15.1988 7.33773 14.4531 6.17237 14.4531C4.98261 14.4531 4.89719 15.1988 4.14062 15.1988V16.6901C5.29988 16.6901 5.46462 15.9444 6.18458 15.9444Z" fill="#01C38E"/>
</svg>
