<svg width="119" height="112" viewBox="0 0 119 112" fill="none" xmlns="http://www.w3.org/2000/svg">
<path d="M6.13293 111.386C4.95591 111.386 3.90278 111.122 2.97354 110.596C2.0598 110.069 1.3319 109.341 0.789848 108.412C0.263283 107.483 0 106.422 0 105.23C0 104.022 0.263283 102.953 0.789848 102.024C1.3319 101.094 2.0598 100.374 2.97354 99.8633C3.90278 99.3367 4.95591 99.0734 6.13293 99.0734C7.10863 99.0734 7.9914 99.2593 8.78125 99.6309C9.58658 100.003 10.237 100.56 10.7326 101.304L9.8731 101.931C9.43945 101.311 8.8974 100.854 8.24694 100.56C7.59648 100.266 6.89181 100.119 6.13293 100.119C5.18821 100.119 4.33642 100.336 3.57755 100.769C2.83416 101.187 2.24565 101.784 1.812 102.558C1.39385 103.317 1.18477 104.207 1.18477 105.23C1.18477 106.252 1.39385 107.15 1.812 107.924C2.24565 108.683 2.83416 109.279 3.57755 109.713C4.33642 110.131 5.18821 110.34 6.13293 110.34C6.89181 110.34 7.59648 110.193 8.24694 109.899C8.8974 109.605 9.43945 109.148 9.8731 108.528L10.7326 109.156C10.237 109.899 9.58658 110.457 8.78125 110.828C7.9914 111.2 7.10863 111.386 6.13293 111.386Z" fill="#003C5B"/>
<path d="M18.7449 111.386C17.5834 111.386 16.5457 111.122 15.632 110.596C14.7337 110.069 14.0136 109.341 13.4715 108.412C12.9449 107.483 12.6817 106.422 12.6817 105.23C12.6817 104.022 12.9449 102.961 13.4715 102.047C14.0136 101.118 14.7337 100.39 15.632 99.8633C16.5457 99.3367 17.5834 99.0734 18.7449 99.0734C19.9064 99.0734 20.9441 99.3367 21.8578 99.8633C22.7716 100.39 23.4917 101.118 24.0183 102.047C24.5449 102.961 24.8081 104.022 24.8081 105.23C24.8081 106.422 24.5449 107.483 24.0183 108.412C23.4917 109.341 22.7716 110.069 21.8578 110.596C20.9441 111.122 19.9064 111.386 18.7449 111.386ZM18.7449 110.34C19.6741 110.34 20.5104 110.131 21.2538 109.713C21.9972 109.279 22.578 108.675 22.9961 107.901C23.4143 107.127 23.6234 106.236 23.6234 105.23C23.6234 104.207 23.4143 103.317 22.9961 102.558C22.578 101.784 21.9972 101.187 21.2538 100.769C20.5104 100.336 19.6741 100.119 18.7449 100.119C17.8157 100.119 16.9794 100.336 16.236 100.769C15.5081 101.187 14.9273 101.784 14.4937 102.558C14.0755 103.317 13.8664 104.207 13.8664 105.23C13.8664 106.236 14.0755 107.127 14.4937 107.901C14.9273 108.675 15.5081 109.279 16.236 109.713C16.9794 110.131 17.8157 110.34 18.7449 110.34Z" fill="#003C5B"/>
<path d="M28.4116 111.293V99.1663H29.5267V102.535L29.3641 102.163C29.7358 101.203 30.3475 100.452 31.1993 99.9097C32.0511 99.3522 33.0965 99.0734 34.3355 99.0734C35.3267 99.0734 36.1862 99.267 36.9141 99.6542C37.6575 100.026 38.2305 100.599 38.6332 101.373C39.0514 102.132 39.2604 103.077 39.2604 104.207V111.293H38.0989V104.3C38.0989 102.937 37.7504 101.9 37.0535 101.187C36.3721 100.475 35.4119 100.119 34.1729 100.119C33.2282 100.119 32.4073 100.312 31.7104 100.7C31.0135 101.087 30.4792 101.629 30.1075 102.326C29.7513 103.023 29.5732 103.859 29.5732 104.835V111.293H28.4116Z" fill="#003C5B"/>
<path d="M44.0425 111.293V99.1663H45.1576V102.535L44.995 102.163C45.3667 101.203 45.9784 100.452 46.8302 99.9097C47.682 99.3522 48.7274 99.0734 49.9664 99.0734C50.9576 99.0734 51.8171 99.267 52.545 99.6542C53.2884 100.026 53.8614 100.599 54.2641 101.373C54.6822 102.132 54.8913 103.077 54.8913 104.207V111.293H53.7298V104.3C53.7298 102.937 53.3813 101.9 52.6844 101.187C52.003 100.475 51.0427 100.119 49.8038 100.119C48.8591 100.119 48.0382 100.312 47.3413 100.7C46.6444 101.087 46.1101 101.629 45.7384 102.326C45.3822 103.023 45.2041 103.859 45.2041 104.835V111.293H44.0425Z" fill="#003C5B"/>
<path d="M64.5984 111.386C63.3749 111.386 62.2908 111.122 61.346 110.596C60.4168 110.069 59.6812 109.341 59.1391 108.412C58.6125 107.483 58.3493 106.422 58.3493 105.23C58.3493 104.022 58.5971 102.961 59.0926 102.047C59.6037 101.118 60.3006 100.39 61.1834 99.8633C62.0662 99.3367 63.0574 99.0734 64.157 99.0734C65.2566 99.0734 66.24 99.3289 67.1073 99.84C67.9901 100.351 68.6792 101.071 69.1748 102C69.6859 102.914 69.9414 103.975 69.9414 105.183C69.9414 105.23 69.9337 105.284 69.9182 105.346C69.9182 105.392 69.9182 105.446 69.9182 105.508H59.2088V104.602H69.291L68.8264 105.044C68.8418 104.099 68.6405 103.255 68.2224 102.512C67.8197 101.753 67.2699 101.164 66.573 100.746C65.876 100.312 65.0707 100.096 64.157 100.096C63.2587 100.096 62.4534 100.312 61.741 100.746C61.044 101.164 60.4942 101.753 60.0916 102.512C59.6889 103.255 59.4876 104.107 59.4876 105.067V105.276C59.4876 106.267 59.7044 107.15 60.138 107.924C60.5872 108.683 61.1989 109.279 61.9733 109.713C62.7476 110.131 63.6304 110.34 64.6216 110.34C65.3959 110.34 66.1161 110.201 66.7821 109.922C67.4635 109.643 68.0365 109.218 68.5011 108.645L69.1748 109.411C68.6483 110.062 67.9823 110.557 67.177 110.898C66.3871 111.223 65.5276 111.386 64.5984 111.386Z" fill="#003C5B"/>
<path d="M78.3435 111.386C77.1665 111.386 76.1134 111.122 75.1842 110.596C74.2704 110.069 73.5425 109.341 73.0005 108.412C72.4739 107.483 72.2106 106.422 72.2106 105.23C72.2106 104.022 72.4739 102.953 73.0005 102.024C73.5425 101.094 74.2704 100.374 75.1842 99.8633C76.1134 99.3367 77.1665 99.0734 78.3435 99.0734C79.3192 99.0734 80.202 99.2593 80.9919 99.6309C81.7972 100.003 82.4477 100.56 82.9432 101.304L82.0837 101.931C81.6501 101.311 81.108 100.854 80.4576 100.56C79.8071 100.266 79.1024 100.119 78.3435 100.119C77.3988 100.119 76.547 100.336 75.7882 100.769C75.0448 101.187 74.4563 101.784 74.0226 102.558C73.6045 103.317 73.3954 104.207 73.3954 105.23C73.3954 106.252 73.6045 107.15 74.0226 107.924C74.4563 108.683 75.0448 109.279 75.7882 109.713C76.547 110.131 77.3988 110.34 78.3435 110.34C79.1024 110.34 79.8071 110.193 80.4576 109.899C81.108 109.605 81.6501 109.148 82.0837 108.528L82.9432 109.156C82.4477 109.899 81.7972 110.457 80.9919 110.828C80.202 111.2 79.3192 111.386 78.3435 111.386Z" fill="#003C5B"/>
<path d="M90.0878 111.386C89.0192 111.386 88.1984 111.091 87.6253 110.503C87.0678 109.914 86.789 109.109 86.789 108.087V96.518H87.9506V107.971C87.9506 108.745 88.1442 109.341 88.5313 109.76C88.9185 110.178 89.4761 110.387 90.204 110.387C90.9628 110.387 91.5901 110.162 92.0857 109.713L92.5735 110.526C92.2638 110.82 91.8843 111.037 91.4352 111.177C91.0016 111.316 90.5524 111.386 90.0878 111.386ZM84.5589 100.165V99.1663H91.8069V100.165H84.5589Z" fill="#003C5B"/>
<path d="M95.2784 111.293V95.0312H99.0418V111.293H95.2784Z" fill="#003C5B"/>
<path d="M100.764 111.293L108.012 95.0312H111.729L119 111.293H115.051L109.104 96.9362H110.59L104.62 111.293H100.764ZM104.388 107.808L105.387 104.951H113.75L114.772 107.808H104.388Z" fill="#003C5B"/>
<path d="M32.1229 8.4375H29.3516V11.2498H32.1229V8.4375Z" fill="#003C5B"/>
<path d="M87.5369 8.4375H84.7656V11.2498H87.5369V8.4375Z" fill="#003C5B"/>
<path d="M32.1229 64.6875H29.3516V67.4998H32.1229V64.6875Z" fill="#003C5B"/>
<path d="M87.5369 64.6875H84.7656V67.4998H87.5369V64.6875Z" fill="#003C5B"/>
<path d="M82.0056 14.0621V8.4375H34.8941V14.0621H29.3516V61.8707H34.8941V67.4953H82.0056V61.8707H87.5481V14.0621H82.0056ZM84.7768 59.0584H79.2343V64.683H37.6654V59.0584H32.1229V16.8744H37.6654V11.2498H79.2343V16.8744H84.7768V59.0584Z" fill="#003C5B"/>
<path d="M37.6619 19.6875H34.8906V22.4998H37.6619V19.6875Z" fill="#003C5B"/>
<path d="M43.2088 19.6875H40.4375V22.4998H43.2088V19.6875Z" fill="#003C5B"/>
<path d="M48.74 19.6875H45.9688V22.4998H48.74V19.6875Z" fill="#003C5B"/>
<path d="M54.2713 19.6875H51.5V22.4998H54.2713V19.6875Z" fill="#003C5B"/>
<path d="M59.826 19.6875H57.0547V22.4998H59.826V19.6875Z" fill="#003C5B"/>
<path d="M65.365 19.6875H62.5938V22.4998H65.365V19.6875Z" fill="#003C5B"/>
<path d="M70.9119 19.6875H68.1406V22.4998H70.9119V19.6875Z" fill="#003C5B"/>
<path d="M76.4744 19.6875H73.7031V22.4998H76.4744V19.6875Z" fill="#003C5B"/>
<path d="M43.2088 14.0625H40.4375V16.8748H43.2088V14.0625Z" fill="#003C5B"/>
<path d="M48.74 14.0625H45.9688V16.8748H48.74V14.0625Z" fill="#003C5B"/>
<path d="M54.2713 14.0625H51.5V16.8748H54.2713V14.0625Z" fill="#003C5B"/>
<path d="M59.826 14.0625H57.0547V16.8748H59.826V14.0625Z" fill="#003C5B"/>
<path d="M65.365 14.0625H62.5938V16.8748H65.365V14.0625Z" fill="#003C5B"/>
<path d="M70.9119 14.0625H68.1406V16.8748H70.9119V14.0625Z" fill="#003C5B"/>
<path d="M76.4744 14.0625H73.7031V16.8748H76.4744V14.0625Z" fill="#003C5B"/>
<path d="M82.0057 19.6875H79.2344V22.4998H82.0057V19.6875Z" fill="#003C5B"/>
<path d="M37.6619 25.3125H34.8906V28.1248H37.6619V25.3125Z" fill="#003C5B"/>
<path d="M43.2088 25.3125H40.4375V28.1248H43.2088V25.3125Z" fill="#003C5B"/>
<path d="M76.4744 36.5625H73.7031V39.3748H76.4744V36.5625Z" fill="#003C5B"/>
<path d="M76.4744 30.9375H73.7031V33.7498H76.4744V30.9375Z" fill="#003C5B"/>
<path d="M76.4744 42.1875H73.7031V44.9998H76.4744V42.1875Z" fill="#003C5B"/>
<path d="M76.4744 47.8047H73.7031V50.617H76.4744V47.8047Z" fill="#003C5B"/>
<path d="M82.0057 36.5625H79.2344V39.3748H82.0057V36.5625Z" fill="#003C5B"/>
<path d="M82.0057 30.9375H79.2344V33.7498H82.0057V30.9375Z" fill="#003C5B"/>
<path d="M82.0057 42.1875H79.2344V44.9998H82.0057V42.1875Z" fill="#003C5B"/>
<path d="M82.0057 47.8047H79.2344V50.617H82.0057V47.8047Z" fill="#003C5B"/>
<path d="M76.4744 25.3125H73.7031V28.1248H76.4744V25.3125Z" fill="#003C5B"/>
<path d="M82.0057 25.3125H79.2344V28.1248H82.0057V25.3125Z" fill="#003C5B"/>
<path d="M37.6619 53.4297H34.8906V56.242H37.6619V53.4297Z" fill="#003C5B"/>
<path d="M43.2088 53.4297H40.4375V56.242H43.2088V53.4297Z" fill="#003C5B"/>
<path d="M48.74 53.4297H45.9688V56.242H48.74V53.4297Z" fill="#003C5B"/>
<path d="M54.2713 53.4297H51.5V56.242H54.2713V53.4297Z" fill="#003C5B"/>
<path d="M59.826 53.4297H57.0547V56.242H59.826V53.4297Z" fill="#003C5B"/>
<path d="M65.365 53.4297H62.5938V56.242H65.365V53.4297Z" fill="#003C5B"/>
<path d="M37.6619 47.8047H34.8906V50.617H37.6619V47.8047Z" fill="#003C5B"/>
<path d="M43.2088 47.8047H40.4375V50.617H43.2088V47.8047Z" fill="#003C5B"/>
<path d="M70.9119 53.4297H68.1406V56.242H70.9119V53.4297Z" fill="#003C5B"/>
<path d="M76.4744 53.4297H73.7031V56.242H76.4744V53.4297Z" fill="#003C5B"/>
<path d="M43.2088 59.0547H40.4375V61.867H43.2088V59.0547Z" fill="#003C5B"/>
<path d="M48.74 59.0547H45.9688V61.867H48.74V59.0547Z" fill="#003C5B"/>
<path d="M43.2088 36.5625H40.4375V39.3748H43.2088V36.5625Z" fill="#003C5B"/>
<path d="M43.2088 30.9375H40.4375V33.7498H43.2088V30.9375Z" fill="#003C5B"/>
<path d="M43.2088 42.1875H40.4375V44.9998H43.2088V42.1875Z" fill="#003C5B"/>
<path d="M37.6619 36.5625H34.8906V39.3748H37.6619V36.5625Z" fill="#003C5B"/>
<path d="M37.6619 30.9375H34.8906V33.7498H37.6619V30.9375Z" fill="#003C5B"/>
<path d="M37.6619 42.1875H34.8906V44.9998H37.6619V42.1875Z" fill="#003C5B"/>
<path d="M54.2713 59.0547H51.5V61.867H54.2713V59.0547Z" fill="#003C5B"/>
<path d="M59.826 59.0547H57.0547V61.867H59.826V59.0547Z" fill="#003C5B"/>
<path d="M65.365 59.0547H62.5938V61.867H65.365V59.0547Z" fill="#003C5B"/>
<path d="M70.9119 59.0547H68.1406V61.867H70.9119V59.0547Z" fill="#003C5B"/>
<path d="M76.4744 59.0547H73.7031V61.867H76.4744V59.0547Z" fill="#003C5B"/>
<path d="M82.0057 53.4297H79.2344V56.242H82.0057V53.4297Z" fill="#003C5B"/>
<path d="M95.8474 9.84297V7.03067H93.3417V2.82407H88.5729V0H85.8016V2.82407H80.2741V0H77.5028V2.82407H71.9753V0H69.2041V2.82407H63.6766V0H60.9051V2.82407H55.3776V0H52.6063V2.82407H47.0788V0H44.3075V2.82407H38.78V0H36.0087V2.82407H30.4809V0H27.7096V2.82407H23.7138V8.78857H21.0234V11.6009H23.7138V17.2102H21.0234V20.0225H23.7138V25.6318H21.0234V28.4441H23.7138V34.0534H21.0234V36.8657H23.7138V42.475H21.0234V45.2873H23.7138V50.8966H21.0234V53.7089H23.7138V59.3182H21.0234V62.1305H23.7138V67.7398H21.0234V70.5521H23.7138V73.4818H27.9516V75.9311H30.7229V73.4822H36.2504V75.9313H39.0217V73.4822H44.5491V75.9313H47.3204V73.4822H52.8479V75.9313H55.6192V73.4822H61.1467V75.9313H63.918V73.4822H69.4455V75.9313H72.2168V73.4822H77.7443V75.9313H80.5156V73.4822H86.0431V75.9313H88.8144V73.4822H93.3411V68.7947H95.8472V65.9824H93.3415V60.3731H95.8472V57.5608H93.3415V51.9515H95.8472V49.1392H93.3415V43.5299H95.8472V40.7176H93.3415V35.1083H95.8472V32.2958H93.3415V26.6865H95.8472V23.8742H93.3415V18.2649H95.8472V15.4526H93.3415V9.84297H95.8474ZM90.5704 70.6701H26.485V5.63637H90.5704V70.6701Z" fill="#003C5B"/>
<path d="M56.9844 30.9375V44.9988H59.7557V40.968H62.527V44.9988H65.2983V30.9375H56.9844ZM62.527 38.1557H59.7557V33.7498H62.527V38.1557Z" fill="#003C5B"/>
<path d="M54.2713 30.9426L51.5 30.9609L51.5939 45.187L54.3652 45.1687L54.2713 30.9426Z" fill="#003C5B"/>
<path d="M18.2641 67.7422H11.3359V70.5545H18.2641V67.7422Z" fill="#003C5B"/>
<path d="M18.2641 59.3125H11.3359V62.1248H18.2641V59.3125Z" fill="#003C5B"/>
<path d="M18.2641 50.8984H11.3359V53.7107H18.2641V50.8984Z" fill="#003C5B"/>
<path d="M18.2641 34.0469H11.3359V36.8592H18.2641V34.0469Z" fill="#003C5B"/>
<path d="M18.2641 25.625H11.3359V28.4373H18.2641V25.625Z" fill="#003C5B"/>
<path d="M18.2641 17.2109H11.3359V20.0232H18.2641V17.2109Z" fill="#003C5B"/>
<path d="M18.2641 8.78125H11.3359V11.5936H18.2641V8.78125Z" fill="#003C5B"/>
<path d="M88.8338 78.7422H86.0625V85.7729H88.8338V78.7422Z" fill="#003C5B"/>
<path d="M80.5291 78.7422H77.7578V85.7729H80.5291V78.7422Z" fill="#003C5B"/>
<path d="M72.2166 78.7422H69.4453V85.7729H72.2166V78.7422Z" fill="#003C5B"/>
<path d="M63.9197 78.7422H61.1484V85.7729H63.9197V78.7422Z" fill="#003C5B"/>
<path d="M55.6229 78.7422H52.8516V85.7729H55.6229V78.7422Z" fill="#003C5B"/>
<path d="M47.326 78.7422H44.5547V85.7729H47.326V78.7422Z" fill="#003C5B"/>
<path d="M39.0291 78.7422H36.2578V85.7729H39.0291V78.7422Z" fill="#003C5B"/>
<path d="M30.7322 78.7422H27.9609V85.7729H30.7322V78.7422Z" fill="#003C5B"/>
<path d="M105.553 7.03125H98.625V9.84355H105.553V7.03125Z" fill="#003C5B"/>
<path d="M105.553 15.4531H98.625V18.2654H105.553V15.4531Z" fill="#003C5B"/>
<path d="M105.553 23.875H98.625V26.6873H105.553V23.875Z" fill="#003C5B"/>
<path d="M105.553 32.2969H98.625V35.1092H105.553V32.2969Z" fill="#003C5B"/>
<path d="M105.553 40.7188H98.625V43.5311H105.553V40.7188Z" fill="#003C5B"/>
<path d="M105.553 49.1406H98.625V51.9529H105.553V49.1406Z" fill="#003C5B"/>
<path d="M105.553 57.5625H98.625V60.3748H105.553V57.5625Z" fill="#003C5B"/>
<path d="M105.553 65.9844H98.625V68.7967H105.553V65.9844Z" fill="#003C5B"/>
</svg>
