<svg width="132" height="163" viewBox="0 0 132 163" fill="none" xmlns="http://www.w3.org/2000/svg">
<mask id="path-1-inside-1_2091_17" fill="white">
<path d="M64.5502 0L64.3491 0.204115H63.7458L63.5447 0.40823H63.3436L63.1425 0.612345H62.7404L62.5393 0.81646H62.3382L62.1371 1.02057H61.7349L61.5338 1.22469H61.3327L61.1316 1.4288H60.7295L60.5284 1.63292H60.3273L60.1262 1.83703H59.9251L59.724 2.04115H59.3218L59.1207 2.24526H58.7185L58.5175 2.44938H58.3164L58.1153 2.65349H57.9142L57.7131 2.85761H57.3109L57.1098 3.06172H56.9087L56.7076 3.26584H56.3055L56.1044 3.46995H55.9033L55.7022 3.67407H55.3L55.0989 3.87818H54.8978L54.6967 4.0823H54.2945L54.0935 4.28641H53.8924L53.6913 4.49053H53.2891L53.088 4.69464H52.6858L52.4847 4.89876H52.2836L52.0825 5.10287H51.6804L51.4793 5.30699H51.2782L51.0771 5.5111H50.6749L50.4738 5.71522H50.2727L50.0716 5.91933H49.6695L49.4684 6.12345H49.2673L49.0662 6.32756H48.8651L48.664 6.53168H48.2618L48.0607 6.73579H47.8596L47.6585 6.93991H47.2564L47.0553 7.14402H46.6531L46.452 7.34814H46.2509L46.0498 7.55225H45.6476L45.4465 7.75637H45.2455L45.0444 7.96048H44.6422L44.4411 8.1646H44.24L44.0389 8.36871H43.6367L43.4356 8.57283H43.2345L43.0335 8.77694H42.6313L42.4302 8.98106H42.2291L42.028 9.18517H41.6258L41.4247 9.38929H41.2236L41.0225 9.5934H40.8215L40.6204 9.79752H40.2182L40.0171 10.0016H39.6149L39.4138 10.2057H39.2127L39.0116 10.4099H38.6095L38.4084 10.614H38.2073L38.0062 10.8181H37.604L37.4029 11.0222H37.2018L37.0007 11.2263H36.5985L36.3975 11.4304H36.1964L35.9953 11.6346H35.5931L35.392 11.8387H35.1909L34.9898 12.0428H34.5876L34.3865 12.2469H34.1855L33.9844 12.451H33.5822L33.3811 12.6551H33.18L32.9789 12.8592H32.7778L32.5767 13.0634H32.1745L31.9735 13.2675H31.5713L31.3702 13.4716H31.1691L30.968 13.6757H30.5658L30.3647 13.8798H30.1636L29.9625 14.0839H29.5604L29.3593 14.288H29.1582L28.9571 14.4922H28.5549L28.3538 14.6963H28.1527L27.9516 14.9004H27.5495L27.3484 15.1045H27.1473L26.9462 15.3086H26.544L26.3429 15.5127H26.1418L25.9407 15.7169H25.5385L25.3375 15.921H25.1364L24.9353 16.1251H24.7342L24.5331 16.3292H24.1309L23.9298 16.5333H23.5276L23.3265 16.7374H23.1255L22.9244 16.9415H22.5222L22.3211 17.1457H22.12L21.9189 17.3498H21.5167L21.3156 17.5539H21.1145L20.9135 17.758H20.7124L20.5113 17.9621H20.1091L19.908 18.1662H19.5058L19.3047 18.3703H19.1036L18.9025 18.5745H18.5004L18.2993 18.7786H18.0982L17.8971 18.9827H17.696L17.4949 19.1868H17.0927L16.8916 19.3909H16.6905L16.4895 19.595H16.0873L15.8862 19.7992H15.484L15.2829 20.0033H15.0818L14.8807 20.2074H14.4785L14.2775 20.4115H14.0764L13.8753 20.6156H13.4731L13.272 20.8197H13.0709L12.8698 21.0238H12.4676L12.2665 21.228H12.0655L11.8644 21.4321H11.4622L11.2611 21.6362H11.06L10.8589 21.8403H10.4567L10.2556 22.0444H10.0545L9.85345 22.2485H9.65236L9.45127 22.4526H9.04909L8.848 22.6568H8.64691L8.44582 22.8609H8.04364L7.84255 23.065H7.44036L7.23927 23.2691H7.03818L6.83709 23.4732H6.43491L6.23382 23.6773H6.03273L5.83164 23.8815H5.63055L5.42945 24.0856H5.02727L4.82618 24.2897H4.62509L4.424 24.4938H4.02182L3.82073 24.6979H3.61964L3.41855 24.902H3.01636L2.81527 25.1061H2.61418L2.41309 25.3103H2.212L1.60873 25.9226H1.40764L1.00545 26.3308V26.5349L0.603273 26.9432V27.1473L0.402182 27.3514V27.5555L0.201091 27.7596V28.1679L0 28.372V80.6254L0.201091 80.8295V83.2789L0.402182 83.483V85.3201L0.603273 85.5242V86.953L0.804364 87.1571V88.3818L1.00545 88.5859V89.6065L1.20655 89.8106V90.8312L1.40764 91.0353V91.8517L1.60873 92.0558V92.6682L1.80982 92.8723V93.6888L2.01091 93.8929V94.7093L2.212 94.9135V95.5258L2.41309 95.7299V96.3423L2.61418 96.5464V96.9546L2.81527 97.1587V97.7711L3.01636 97.9752V98.5875L3.21745 98.7916V99.1999L3.41855 99.404V99.8122L3.61964 100.016V100.425L3.82073 100.629V101.037L4.02182 101.241V101.649L4.22291 101.853V102.262L4.424 102.466V102.874L4.62509 103.078V103.282L4.82618 103.486V103.895L5.02727 104.099V104.507L5.22836 104.711V104.915L5.42945 105.119V105.527L5.63055 105.732V105.936L5.83164 106.14V106.344L6.03273 106.548V106.752L6.23382 106.956V107.364L6.43491 107.569V107.773L6.636 107.977V108.181L6.83709 108.385V108.589L7.03818 108.793V108.997L7.23927 109.202V109.406L7.44036 109.61V109.814L7.64145 110.018V110.222L7.84255 110.426V110.63L8.04364 110.834V111.039L8.24473 111.243V111.447L8.44582 111.651V111.855L8.64691 112.059V112.263L9.04909 112.671V112.876L9.25018 113.08V113.284L9.45127 113.488V113.692L9.65236 113.896V114.1L10.0545 114.508V114.713L10.2556 114.917V115.121L10.6578 115.529V115.733L11.06 116.141V116.346L11.2611 116.55V116.754L11.6633 117.162V117.366L12.0655 117.774V117.978L12.4676 118.387V118.591L12.8698 118.999V119.203L13.272 119.611V119.815L13.8753 120.428V120.632L14.4785 121.244V121.448L14.8807 121.857V122.061L15.484 122.673V122.877L16.0873 123.49V123.694L16.8916 124.51V124.714L17.8971 125.735V125.939L18.9025 126.96V127.164L20.1091 128.388V128.592L21.7178 130.225V130.429L27.1473 135.941V136.145H27.3484L30.5658 139.411H30.7669L32.3756 141.043H32.5767L33.7833 142.268H33.9844L34.9898 143.289H35.1909L36.1964 144.309H36.3975L37.2018 145.126H37.4029L38.2073 145.942H38.4084L39.2127 146.759H39.4138L40.0171 147.371H40.2182L40.8215 147.983H41.0225L41.6258 148.596H41.8269L42.4302 149.208H42.6313L43.0335 149.616H43.2345L43.8378 150.229H44.0389L44.4411 150.637H44.6422L45.0444 151.045H45.2455L45.6476 151.453H45.8487L46.2509 151.862H46.452L46.8542 152.27H47.0553L47.4575 152.678H47.6585L48.0607 153.086H48.2618L48.664 153.494H48.8651L49.2673 153.903H49.4684L49.8705 154.311H50.0716L50.2727 154.515H50.4738L50.876 154.923H51.0771L51.4793 155.331H51.6804L51.8815 155.536H52.0825L52.4847 155.944H52.6858L52.8869 156.148H53.088L53.4902 156.556H53.6913L53.8924 156.76H54.0935L54.2945 156.964H54.4956L54.8978 157.373H55.0989L55.3 157.577H55.5011L55.9033 157.985H56.1044L56.3055 158.189H56.5065L56.7076 158.393H56.9087L57.1098 158.597H57.3109L57.7131 159.006H57.9142L58.1153 159.21H58.3164L58.5175 159.414H58.7185L58.9196 159.618H59.1207L59.5229 160.026H59.724L59.9251 160.23H60.1262L60.3273 160.434H60.5284L60.7295 160.638H60.9305L61.1316 160.843H61.3327L61.5338 161.047H61.7349L61.936 161.251H62.1371L62.3382 161.455H62.5393L62.7404 161.659H62.9415L63.1425 161.863H63.5447L63.7458 162.067H64.5502L64.7513 162.271H66.5611L66.7622 162.067H67.5666L67.7676 161.863H67.9687L68.1698 161.659H68.3709L68.572 161.455H68.7731L68.9742 161.251H69.1753L69.3764 161.047H69.5775L69.7785 160.843H69.9796L70.1807 160.638H70.3818L70.5829 160.434H70.784L70.9851 160.23H71.1862L71.3873 160.026H71.5884L71.7895 159.822H71.9905L72.3927 159.414H72.5938L72.7949 159.21H72.996L73.1971 159.006H73.3982L73.5993 158.801H73.8004L74.0015 158.597H74.2025L74.6047 158.189H74.8058L75.0069 157.985H75.208L75.4091 157.781H75.6102L76.0124 157.373H76.2134L76.4145 157.169H76.6156L77.0178 156.76H77.2189L77.42 156.556H77.6211L78.0233 156.148H78.2244L78.4255 155.944H78.6265L79.0287 155.536H79.2298L79.4309 155.331H79.632L80.0342 154.923H80.2353L80.6375 154.515H80.8385L81.0396 154.311H81.2407L81.6429 153.903H81.844L82.2462 153.494H82.4473L82.8495 153.086H83.0506L83.4527 152.678H83.6538L84.056 152.27H84.2571L84.6593 151.862H84.8604L85.2625 151.453H85.4636L86.0669 150.841H86.268L86.6702 150.433H86.8713L87.2735 150.024H87.4745L88.0778 149.412H88.2789L88.8822 148.8H89.0833L89.4855 148.392H89.6865L90.2898 147.779H90.4909L91.0942 147.167H91.2953L92.0996 146.35H92.3007L93.1051 145.534H93.3062L94.1105 144.717H94.3116L95.116 143.901H95.3171L96.3225 142.88H96.5236L97.7302 141.656H97.9313L99.1378 140.431H99.3389L101.35 138.39H101.551L109.192 130.634V130.429L110.801 128.797V128.592L112.209 127.164V126.96L113.415 125.735V125.531L114.22 124.714V124.51L115.024 123.694V123.49L115.828 122.673V122.469L116.231 122.061V121.857L117.035 121.04V120.836L117.437 120.428V120.224L118.04 119.611V119.407L118.443 118.999V118.795L118.845 118.387V118.183L119.247 117.774V117.57L119.649 117.162V116.958L120.051 116.55V116.346L120.252 116.141V115.937L120.655 115.529V115.325L120.856 115.121V114.917L121.258 114.508V114.304L121.459 114.1V113.896L121.861 113.488V113.284L122.062 113.08V112.876L122.263 112.671V112.467L122.464 112.263V112.059L122.665 111.855V111.651L123.068 111.243V111.039L123.269 110.834V110.63L123.47 110.426V110.222L123.671 110.018V109.814L123.872 109.61V109.406L124.073 109.202V108.997L124.274 108.793V108.589L124.475 108.385V107.977L124.676 107.773V107.569L124.877 107.364V107.16L125.079 106.956V106.752L125.28 106.548V106.344L125.481 106.14V105.732L125.682 105.527V105.323L125.883 105.119V104.915L126.084 104.711V104.303L126.285 104.099V103.69L126.486 103.486V103.282L126.687 103.078V102.67L126.888 102.466V102.057L127.089 101.853V101.649L127.291 101.445V101.037L127.492 100.833V100.425L127.693 100.22V99.8122L127.894 99.6081V98.9958L128.095 98.7916V98.3834L128.296 98.1793V97.7711L128.497 97.567V97.1587L128.698 96.9546V96.3423L128.899 96.1381V95.5258L129.1 95.3217V94.7093L129.301 94.5052V93.8929L129.503 93.6888V92.8723L129.704 92.6682V92.0558L129.905 91.8517V91.0353L130.106 90.8312V89.8106L130.307 89.6065V88.5859L130.508 88.3818V87.1571L130.709 86.953V85.5242L130.91 85.3201V83.483L131.111 83.2789V79.809L131.312 79.6048V28.7802L131.111 28.5761V27.9637L130.91 27.7596V27.5555L130.709 27.3514V27.1473L130.508 26.9432V26.7391L129.301 25.5144H129.1L128.899 25.3103H128.698L128.497 25.1061H128.095L127.894 24.902H127.693L127.492 24.6979H127.291L127.089 24.4938H126.687L126.486 24.2897H126.285L126.084 24.0856H125.682L125.481 23.8815H125.28L125.079 23.6773H124.676L124.475 23.4732H124.274L124.073 23.2691H123.671L123.47 23.065H123.269L123.068 22.8609H122.665L122.464 22.6568H122.263L122.062 22.4526H121.66L121.459 22.2485H121.258L121.057 22.0444H120.856L120.655 21.8403H120.252L120.051 21.6362H119.649L119.448 21.4321H119.247L119.046 21.228H118.644L118.443 21.0238H118.241L118.04 20.8197H117.839L117.638 20.6156H117.236L117.035 20.4115H116.633L116.432 20.2074H116.231L116.029 20.0033H115.627L115.426 19.7992H115.225L115.024 19.595H114.622L114.421 19.3909H114.22L114.019 19.1868H113.817L113.616 18.9827H113.214L113.013 18.7786H112.611L112.41 18.5745H112.209L112.008 18.3703H111.605L111.404 18.1662H111.203L111.002 17.9621H110.801L110.6 17.758H110.198L109.997 17.5539H109.796L109.595 17.3498H109.192L108.991 17.1457H108.79L108.589 16.9415H108.187L107.986 16.7374H107.785L107.584 16.5333H107.181L106.98 16.3292H106.578L106.377 16.1251H106.176L105.975 15.921H105.774L105.573 15.7169H105.171L104.969 15.5127H104.768L104.567 15.3086H104.165L103.964 15.1045H103.763L103.562 14.9004H103.16L102.959 14.6963H102.757L102.556 14.4922H102.154L101.953 14.288H101.752L101.551 14.0839H101.149L100.948 13.8798H100.747L100.545 13.6757H100.143L99.9422 13.4716H99.7411L99.54 13.2675H99.1378L98.9367 13.0634H98.7356L98.5345 12.8592H98.1324L97.9313 12.6551H97.7302L97.5291 12.451H97.1269L96.9258 12.2469H96.7247L96.5236 12.0428H96.1215L95.9204 11.8387H95.7193L95.5182 11.6346H95.116L94.9149 11.4304H94.7138L94.5127 11.2263H94.1105L93.9095 11.0222H93.7084L93.5073 10.8181H93.1051L92.904 10.614H92.7029L92.5018 10.4099H92.0996L91.8986 10.2057H91.4964L91.2953 10.0016H91.0942L90.8931 9.79752H90.692L90.4909 9.5934H90.0887L89.8876 9.38929H89.6865L89.4855 9.18517H89.0833L88.8822 8.98106H88.6811L88.48 8.77694H88.0778L87.8767 8.57283H87.6756L87.4745 8.36871H87.0724L86.8713 8.1646H86.6702L86.4691 7.96048H86.0669L85.8658 7.75637H85.6647L85.4636 7.55225H85.0615L84.8604 7.34814H84.6593L84.4582 7.14402H84.056L83.8549 6.93991H83.4527L83.2516 6.73579H83.0506L82.8495 6.53168H82.6484L82.4473 6.32756H82.0451L81.844 6.12345H81.6429L81.4418 5.91933H81.0396L80.8385 5.71522H80.6375L80.4364 5.5111H80.0342L79.8331 5.30699H79.632L79.4309 5.10287H79.0287L78.8276 4.89876H78.6265L78.4255 4.69464H78.0233L77.8222 4.49053H77.6211L77.42 4.28641H77.0178L76.8167 4.0823H76.6156L76.4145 3.87818H76.0124L75.8113 3.67407H75.6102L75.4091 3.46995H75.0069L74.8058 3.26584H74.6047L74.4036 3.06172H74.0015L73.8004 2.85761H73.5993L73.3982 2.65349H72.996L72.7949 2.44938H72.5938L72.3927 2.24526H71.9905L71.7895 2.04115H71.5884L71.3873 1.83703H70.9851L70.784 1.63292H70.5829L70.3818 1.4288H70.1807L69.9796 1.22469H69.5775L69.3764 1.02057H68.9742L68.7731 0.81646H68.572L68.3709 0.612345H68.1698L67.9687 0.40823H67.5666L67.3655 0.204115H66.7622L66.5611 0H64.5502Z"/>
</mask>
<path d="M64.5502 0L64.3491 0.204115H63.7458L63.5447 0.40823H63.3436L63.1425 0.612345H62.7404L62.5393 0.81646H62.3382L62.1371 1.02057H61.7349L61.5338 1.22469H61.3327L61.1316 1.4288H60.7295L60.5284 1.63292H60.3273L60.1262 1.83703H59.9251L59.724 2.04115H59.3218L59.1207 2.24526H58.7185L58.5175 2.44938H58.3164L58.1153 2.65349H57.9142L57.7131 2.85761H57.3109L57.1098 3.06172H56.9087L56.7076 3.26584H56.3055L56.1044 3.46995H55.9033L55.7022 3.67407H55.3L55.0989 3.87818H54.8978L54.6967 4.0823H54.2945L54.0935 4.28641H53.8924L53.6913 4.49053H53.2891L53.088 4.69464H52.6858L52.4847 4.89876H52.2836L52.0825 5.10287H51.6804L51.4793 5.30699H51.2782L51.0771 5.5111H50.6749L50.4738 5.71522H50.2727L50.0716 5.91933H49.6695L49.4684 6.12345H49.2673L49.0662 6.32756H48.8651L48.664 6.53168H48.2618L48.0607 6.73579H47.8596L47.6585 6.93991H47.2564L47.0553 7.14402H46.6531L46.452 7.34814H46.2509L46.0498 7.55225H45.6476L45.4465 7.75637H45.2455L45.0444 7.96048H44.6422L44.4411 8.1646H44.24L44.0389 8.36871H43.6367L43.4356 8.57283H43.2345L43.0335 8.77694H42.6313L42.4302 8.98106H42.2291L42.028 9.18517H41.6258L41.4247 9.38929H41.2236L41.0225 9.5934H40.8215L40.6204 9.79752H40.2182L40.0171 10.0016H39.6149L39.4138 10.2057H39.2127L39.0116 10.4099H38.6095L38.4084 10.614H38.2073L38.0062 10.8181H37.604L37.4029 11.0222H37.2018L37.0007 11.2263H36.5985L36.3975 11.4304H36.1964L35.9953 11.6346H35.5931L35.392 11.8387H35.1909L34.9898 12.0428H34.5876L34.3865 12.2469H34.1855L33.9844 12.451H33.5822L33.3811 12.6551H33.18L32.9789 12.8592H32.7778L32.5767 13.0634H32.1745L31.9735 13.2675H31.5713L31.3702 13.4716H31.1691L30.968 13.6757H30.5658L30.3647 13.8798H30.1636L29.9625 14.0839H29.5604L29.3593 14.288H29.1582L28.9571 14.4922H28.5549L28.3538 14.6963H28.1527L27.9516 14.9004H27.5495L27.3484 15.1045H27.1473L26.9462 15.3086H26.544L26.3429 15.5127H26.1418L25.9407 15.7169H25.5385L25.3375 15.921H25.1364L24.9353 16.1251H24.7342L24.5331 16.3292H24.1309L23.9298 16.5333H23.5276L23.3265 16.7374H23.1255L22.9244 16.9415H22.5222L22.3211 17.1457H22.12L21.9189 17.3498H21.5167L21.3156 17.5539H21.1145L20.9135 17.758H20.7124L20.5113 17.9621H20.1091L19.908 18.1662H19.5058L19.3047 18.3703H19.1036L18.9025 18.5745H18.5004L18.2993 18.7786H18.0982L17.8971 18.9827H17.696L17.4949 19.1868H17.0927L16.8916 19.3909H16.6905L16.4895 19.595H16.0873L15.8862 19.7992H15.484L15.2829 20.0033H15.0818L14.8807 20.2074H14.4785L14.2775 20.4115H14.0764L13.8753 20.6156H13.4731L13.272 20.8197H13.0709L12.8698 21.0238H12.4676L12.2665 21.228H12.0655L11.8644 21.4321H11.4622L11.2611 21.6362H11.06L10.8589 21.8403H10.4567L10.2556 22.0444H10.0545L9.85345 22.2485H9.65236L9.45127 22.4526H9.04909L8.848 22.6568H8.64691L8.44582 22.8609H8.04364L7.84255 23.065H7.44036L7.23927 23.2691H7.03818L6.83709 23.4732H6.43491L6.23382 23.6773H6.03273L5.83164 23.8815H5.63055L5.42945 24.0856H5.02727L4.82618 24.2897H4.62509L4.424 24.4938H4.02182L3.82073 24.6979H3.61964L3.41855 24.902H3.01636L2.81527 25.1061H2.61418L2.41309 25.3103H2.212L1.60873 25.9226H1.40764L1.00545 26.3308V26.5349L0.603273 26.9432V27.1473L0.402182 27.3514V27.5555L0.201091 27.7596V28.1679L0 28.372V80.6254L0.201091 80.8295V83.2789L0.402182 83.483V85.3201L0.603273 85.5242V86.953L0.804364 87.1571V88.3818L1.00545 88.5859V89.6065L1.20655 89.8106V90.8312L1.40764 91.0353V91.8517L1.60873 92.0558V92.6682L1.80982 92.8723V93.6888L2.01091 93.8929V94.7093L2.212 94.9135V95.5258L2.41309 95.7299V96.3423L2.61418 96.5464V96.9546L2.81527 97.1587V97.7711L3.01636 97.9752V98.5875L3.21745 98.7916V99.1999L3.41855 99.404V99.8122L3.61964 100.016V100.425L3.82073 100.629V101.037L4.02182 101.241V101.649L4.22291 101.853V102.262L4.424 102.466V102.874L4.62509 103.078V103.282L4.82618 103.486V103.895L5.02727 104.099V104.507L5.22836 104.711V104.915L5.42945 105.119V105.527L5.63055 105.732V105.936L5.83164 106.14V106.344L6.03273 106.548V106.752L6.23382 106.956V107.364L6.43491 107.569V107.773L6.636 107.977V108.181L6.83709 108.385V108.589L7.03818 108.793V108.997L7.23927 109.202V109.406L7.44036 109.61V109.814L7.64145 110.018V110.222L7.84255 110.426V110.63L8.04364 110.834V111.039L8.24473 111.243V111.447L8.44582 111.651V111.855L8.64691 112.059V112.263L9.04909 112.671V112.876L9.25018 113.08V113.284L9.45127 113.488V113.692L9.65236 113.896V114.1L10.0545 114.508V114.713L10.2556 114.917V115.121L10.6578 115.529V115.733L11.06 116.141V116.346L11.2611 116.55V116.754L11.6633 117.162V117.366L12.0655 117.774V117.978L12.4676 118.387V118.591L12.8698 118.999V119.203L13.272 119.611V119.815L13.8753 120.428V120.632L14.4785 121.244V121.448L14.8807 121.857V122.061L15.484 122.673V122.877L16.0873 123.49V123.694L16.8916 124.51V124.714L17.8971 125.735V125.939L18.9025 126.96V127.164L20.1091 128.388V128.592L21.7178 130.225V130.429L27.1473 135.941V136.145H27.3484L30.5658 139.411H30.7669L32.3756 141.043H32.5767L33.7833 142.268H33.9844L34.9898 143.289H35.1909L36.1964 144.309H36.3975L37.2018 145.126H37.4029L38.2073 145.942H38.4084L39.2127 146.759H39.4138L40.0171 147.371H40.2182L40.8215 147.983H41.0225L41.6258 148.596H41.8269L42.4302 149.208H42.6313L43.0335 149.616H43.2345L43.8378 150.229H44.0389L44.4411 150.637H44.6422L45.0444 151.045H45.2455L45.6476 151.453H45.8487L46.2509 151.862H46.452L46.8542 152.27H47.0553L47.4575 152.678H47.6585L48.0607 153.086H48.2618L48.664 153.494H48.8651L49.2673 153.903H49.4684L49.8705 154.311H50.0716L50.2727 154.515H50.4738L50.876 154.923H51.0771L51.4793 155.331H51.6804L51.8815 155.536H52.0825L52.4847 155.944H52.6858L52.8869 156.148H53.088L53.4902 156.556H53.6913L53.8924 156.76H54.0935L54.2945 156.964H54.4956L54.8978 157.373H55.0989L55.3 157.577H55.5011L55.9033 157.985H56.1044L56.3055 158.189H56.5065L56.7076 158.393H56.9087L57.1098 158.597H57.3109L57.7131 159.006H57.9142L58.1153 159.21H58.3164L58.5175 159.414H58.7185L58.9196 159.618H59.1207L59.5229 160.026H59.724L59.9251 160.23H60.1262L60.3273 160.434H60.5284L60.7295 160.638H60.9305L61.1316 160.843H61.3327L61.5338 161.047H61.7349L61.936 161.251H62.1371L62.3382 161.455H62.5393L62.7404 161.659H62.9415L63.1425 161.863H63.5447L63.7458 162.067H64.5502L64.7513 162.271H66.5611L66.7622 162.067H67.5666L67.7676 161.863H67.9687L68.1698 161.659H68.3709L68.572 161.455H68.7731L68.9742 161.251H69.1753L69.3764 161.047H69.5775L69.7785 160.843H69.9796L70.1807 160.638H70.3818L70.5829 160.434H70.784L70.9851 160.23H71.1862L71.3873 160.026H71.5884L71.7895 159.822H71.9905L72.3927 159.414H72.5938L72.7949 159.21H72.996L73.1971 159.006H73.3982L73.5993 158.801H73.8004L74.0015 158.597H74.2025L74.6047 158.189H74.8058L75.0069 157.985H75.208L75.4091 157.781H75.6102L76.0124 157.373H76.2134L76.4145 157.169H76.6156L77.0178 156.76H77.2189L77.42 156.556H77.6211L78.0233 156.148H78.2244L78.4255 155.944H78.6265L79.0287 155.536H79.2298L79.4309 155.331H79.632L80.0342 154.923H80.2353L80.6375 154.515H80.8385L81.0396 154.311H81.2407L81.6429 153.903H81.844L82.2462 153.494H82.4473L82.8495 153.086H83.0506L83.4527 152.678H83.6538L84.056 152.27H84.2571L84.6593 151.862H84.8604L85.2625 151.453H85.4636L86.0669 150.841H86.268L86.6702 150.433H86.8713L87.2735 150.024H87.4745L88.0778 149.412H88.2789L88.8822 148.8H89.0833L89.4855 148.392H89.6865L90.2898 147.779H90.4909L91.0942 147.167H91.2953L92.0996 146.35H92.3007L93.1051 145.534H93.3062L94.1105 144.717H94.3116L95.116 143.901H95.3171L96.3225 142.88H96.5236L97.7302 141.656H97.9313L99.1378 140.431H99.3389L101.35 138.39H101.551L109.192 130.634V130.429L110.801 128.797V128.592L112.209 127.164V126.96L113.415 125.735V125.531L114.22 124.714V124.51L115.024 123.694V123.49L115.828 122.673V122.469L116.231 122.061V121.857L117.035 121.04V120.836L117.437 120.428V120.224L118.04 119.611V119.407L118.443 118.999V118.795L118.845 118.387V118.183L119.247 117.774V117.57L119.649 117.162V116.958L120.051 116.55V116.346L120.252 116.141V115.937L120.655 115.529V115.325L120.856 115.121V114.917L121.258 114.508V114.304L121.459 114.1V113.896L121.861 113.488V113.284L122.062 113.08V112.876L122.263 112.671V112.467L122.464 112.263V112.059L122.665 111.855V111.651L123.068 111.243V111.039L123.269 110.834V110.63L123.47 110.426V110.222L123.671 110.018V109.814L123.872 109.61V109.406L124.073 109.202V108.997L124.274 108.793V108.589L124.475 108.385V107.977L124.676 107.773V107.569L124.877 107.364V107.16L125.079 106.956V106.752L125.28 106.548V106.344L125.481 106.14V105.732L125.682 105.527V105.323L125.883 105.119V104.915L126.084 104.711V104.303L126.285 104.099V103.69L126.486 103.486V103.282L126.687 103.078V102.67L126.888 102.466V102.057L127.089 101.853V101.649L127.291 101.445V101.037L127.492 100.833V100.425L127.693 100.22V99.8122L127.894 99.6081V98.9958L128.095 98.7916V98.3834L128.296 98.1793V97.7711L128.497 97.567V97.1587L128.698 96.9546V96.3423L128.899 96.1381V95.5258L129.1 95.3217V94.7093L129.301 94.5052V93.8929L129.503 93.6888V92.8723L129.704 92.6682V92.0558L129.905 91.8517V91.0353L130.106 90.8312V89.8106L130.307 89.6065V88.5859L130.508 88.3818V87.1571L130.709 86.953V85.5242L130.91 85.3201V83.483L131.111 83.2789V79.809L131.312 79.6048V28.7802L131.111 28.5761V27.9637L130.91 27.7596V27.5555L130.709 27.3514V27.1473L130.508 26.9432V26.7391L129.301 25.5144H129.1L128.899 25.3103H128.698L128.497 25.1061H128.095L127.894 24.902H127.693L127.492 24.6979H127.291L127.089 24.4938H126.687L126.486 24.2897H126.285L126.084 24.0856H125.682L125.481 23.8815H125.28L125.079 23.6773H124.676L124.475 23.4732H124.274L124.073 23.2691H123.671L123.47 23.065H123.269L123.068 22.8609H122.665L122.464 22.6568H122.263L122.062 22.4526H121.66L121.459 22.2485H121.258L121.057 22.0444H120.856L120.655 21.8403H120.252L120.051 21.6362H119.649L119.448 21.4321H119.247L119.046 21.228H118.644L118.443 21.0238H118.241L118.04 20.8197H117.839L117.638 20.6156H117.236L117.035 20.4115H116.633L116.432 20.2074H116.231L116.029 20.0033H115.627L115.426 19.7992H115.225L115.024 19.595H114.622L114.421 19.3909H114.22L114.019 19.1868H113.817L113.616 18.9827H113.214L113.013 18.7786H112.611L112.41 18.5745H112.209L112.008 18.3703H111.605L111.404 18.1662H111.203L111.002 17.9621H110.801L110.6 17.758H110.198L109.997 17.5539H109.796L109.595 17.3498H109.192L108.991 17.1457H108.79L108.589 16.9415H108.187L107.986 16.7374H107.785L107.584 16.5333H107.181L106.98 16.3292H106.578L106.377 16.1251H106.176L105.975 15.921H105.774L105.573 15.7169H105.171L104.969 15.5127H104.768L104.567 15.3086H104.165L103.964 15.1045H103.763L103.562 14.9004H103.16L102.959 14.6963H102.757L102.556 14.4922H102.154L101.953 14.288H101.752L101.551 14.0839H101.149L100.948 13.8798H100.747L100.545 13.6757H100.143L99.9422 13.4716H99.7411L99.54 13.2675H99.1378L98.9367 13.0634H98.7356L98.5345 12.8592H98.1324L97.9313 12.6551H97.7302L97.5291 12.451H97.1269L96.9258 12.2469H96.7247L96.5236 12.0428H96.1215L95.9204 11.8387H95.7193L95.5182 11.6346H95.116L94.9149 11.4304H94.7138L94.5127 11.2263H94.1105L93.9095 11.0222H93.7084L93.5073 10.8181H93.1051L92.904 10.614H92.7029L92.5018 10.4099H92.0996L91.8986 10.2057H91.4964L91.2953 10.0016H91.0942L90.8931 9.79752H90.692L90.4909 9.5934H90.0887L89.8876 9.38929H89.6865L89.4855 9.18517H89.0833L88.8822 8.98106H88.6811L88.48 8.77694H88.0778L87.8767 8.57283H87.6756L87.4745 8.36871H87.0724L86.8713 8.1646H86.6702L86.4691 7.96048H86.0669L85.8658 7.75637H85.6647L85.4636 7.55225H85.0615L84.8604 7.34814H84.6593L84.4582 7.14402H84.056L83.8549 6.93991H83.4527L83.2516 6.73579H83.0506L82.8495 6.53168H82.6484L82.4473 6.32756H82.0451L81.844 6.12345H81.6429L81.4418 5.91933H81.0396L80.8385 5.71522H80.6375L80.4364 5.5111H80.0342L79.8331 5.30699H79.632L79.4309 5.10287H79.0287L78.8276 4.89876H78.6265L78.4255 4.69464H78.0233L77.8222 4.49053H77.6211L77.42 4.28641H77.0178L76.8167 4.0823H76.6156L76.4145 3.87818H76.0124L75.8113 3.67407H75.6102L75.4091 3.46995H75.0069L74.8058 3.26584H74.6047L74.4036 3.06172H74.0015L73.8004 2.85761H73.5993L73.3982 2.65349H72.996L72.7949 2.44938H72.5938L72.3927 2.24526H71.9905L71.7895 2.04115H71.5884L71.3873 1.83703H70.9851L70.784 1.63292H70.5829L70.3818 1.4288H70.1807L69.9796 1.22469H69.5775L69.3764 1.02057H68.9742L68.7731 0.81646H68.572L68.3709 0.612345H68.1698L67.9687 0.40823H67.5666L67.3655 0.204115H66.7622L66.5611 0H64.5502Z" fill="url(#paint0_linear_2091_17)" stroke="white" stroke-width="4" mask="url(#path-1-inside-1_2091_17)"/>
<path fill-rule="evenodd" clip-rule="evenodd" d="M60.1212 62.7751C60.4678 62.4018 60.9377 62.1921 61.4276 62.1921C61.9175 62.1921 62.3873 62.4018 62.7339 62.7751L65.7435 66.0181L68.7506 62.7751C68.9198 62.5793 69.1239 62.4222 69.3507 62.3132C69.5774 62.2042 69.8222 62.1457 70.0704 62.1409C70.3187 62.1362 70.5652 62.1855 70.7954 62.2857C71.0256 62.386 71.2347 62.5352 71.4102 62.7245C71.5858 62.9139 71.7242 63.1394 71.8171 63.3876C71.9101 63.6358 71.9558 63.9017 71.9514 64.1694C71.947 64.4371 71.8927 64.7011 71.7916 64.9456C71.6906 65.1902 71.5449 65.4103 71.3633 65.5928L67.5921 69.6598V77.3418L73.7591 73.5008L75.1394 67.9426C75.2662 67.4315 75.5761 66.9956 76.0009 66.7309C76.2113 66.5999 76.4435 66.5148 76.6843 66.4805C76.9252 66.4462 77.1699 66.4634 77.4046 66.5311C77.6393 66.5988 77.8593 66.7157 78.052 66.8752C78.2448 67.0346 78.4066 67.2334 78.5281 67.4602C78.6497 67.6871 78.7286 67.9375 78.7604 68.1972C78.7922 68.4569 78.7762 68.7209 78.7134 68.974L77.6116 73.4051L81.7205 74.5933C82.1941 74.7301 82.598 75.0641 82.8432 75.522C83.0884 75.9799 83.1549 76.524 83.0281 77.0348C82.9013 77.5456 82.5915 77.9811 82.1669 78.2455C81.7424 78.51 81.2378 78.5817 80.7642 78.445L75.6077 76.9564L69.4407 80.7921L75.6077 84.6331L80.7617 83.1446C81.2295 83.0249 81.7222 83.1066 82.1351 83.3722C82.548 83.6378 82.8488 84.0664 82.9735 84.5672C83.0983 85.0679 83.0372 85.6014 82.8033 86.0544C82.5693 86.5074 82.1809 86.8443 81.7205 86.9936L77.6116 88.1818L78.7134 92.6129C78.7762 92.866 78.7922 93.1299 78.7604 93.3897C78.7286 93.6494 78.6497 93.8998 78.5281 94.1267C78.4066 94.3535 78.2448 94.5523 78.052 94.7117C77.8593 94.8711 77.6393 94.988 77.4046 95.0558C77.1699 95.1235 76.9252 95.1407 76.6843 95.1064C76.4435 95.0721 76.2113 94.987 76.0009 94.8559C75.7906 94.7249 75.6063 94.5504 75.4584 94.3425C75.3106 94.1346 75.2022 93.8974 75.1394 93.6443L73.7591 88.0861L67.5921 84.2477V91.9324L71.3633 95.9994C71.7098 96.3737 71.9042 96.8812 71.9037 97.4101C71.9032 97.939 71.708 98.4461 71.3608 98.8197C71.0137 99.1933 70.5432 99.403 70.0527 99.4025C69.5623 99.402 69.0921 99.1914 68.7457 98.817L65.7435 95.5794L62.7413 98.817C62.5709 99.0075 62.367 99.1595 62.1415 99.2641C61.916 99.3687 61.6734 99.4238 61.428 99.4263C61.1825 99.4287 60.9391 99.3784 60.7118 99.2782C60.4846 99.1781 60.2781 99.0302 60.1045 98.8431C59.9308 98.656 59.7935 98.4335 59.7004 98.1885C59.6074 97.9436 59.5605 97.6811 59.5625 97.4163C59.5645 97.1516 59.6154 96.89 59.7122 96.6467C59.8089 96.4035 59.9497 96.1834 60.1262 95.9994L63.8949 91.9324V84.253L57.7229 88.0941L56.3426 93.6443C56.2798 93.8972 56.1715 94.1343 56.0237 94.342C55.876 94.5497 55.6917 94.7241 55.4815 94.855C55.2713 94.986 55.0392 95.071 54.7985 95.1052C54.5578 95.1394 54.3132 95.1222 54.0787 95.0544C53.8442 94.9867 53.6243 94.8698 53.4317 94.7105C53.2391 94.5511 53.0774 94.3524 52.956 94.1257C52.8346 93.899 52.7558 93.6487 52.724 93.3892C52.6923 93.1296 52.7083 92.8658 52.7711 92.6129L53.8704 88.1898L49.7689 87.0042C49.2953 86.8674 48.8915 86.5334 48.6463 86.0755C48.4011 85.6176 48.3345 85.0735 48.4614 84.5627C48.5882 84.0519 48.8979 83.6164 49.3225 83.352C49.7471 83.0875 50.2517 83.0158 50.7253 83.1525L55.8768 84.6411L62.0463 80.7948L55.8743 76.9511L50.7253 78.4396C50.2517 78.5764 49.7471 78.5047 49.3225 78.2402C48.8979 77.9758 48.5882 77.5403 48.4614 77.0295C48.3345 76.5187 48.4011 75.9746 48.6463 75.5167C48.8915 75.0588 49.2953 74.7247 49.7689 74.588L53.8704 73.4024L52.7736 68.9793C52.6658 68.4758 52.7435 67.947 52.9903 67.5041C53.2371 67.0612 53.6336 66.739 54.0964 66.6053C54.5591 66.4715 55.052 66.5368 55.471 66.7872C55.89 67.0377 56.2025 67.4538 56.3426 67.9479L57.7229 73.4981L63.8949 77.3418V69.6598L60.1212 65.5928C59.775 65.219 59.5806 64.7123 59.5806 64.184C59.5806 63.6557 59.775 63.149 60.1212 62.7751Z" fill="white"/>
<ellipse cx="65.7521" cy="81" rx="31.0333" ry="31" stroke="white" stroke-width="2"/>
<defs>
<linearGradient id="paint0_linear_2091_17" x1="131.312" y1="81.1357" x2="0" y2="81.1357" gradientUnits="userSpaceOnUse">
<stop offset="0.259615" stop-color="#003C5B"/>
<stop offset="0.504808" stop-color="#17BCE4"/>
</linearGradient>
</defs>
</svg>
