<svg width="177" height="422" viewBox="0 0 177 422" fill="none" xmlns="http://www.w3.org/2000/svg">
<path d="M7.57969 20.1473L0.0859375 21.6649V18.0377L7.57969 16.4922V20.1473Z" fill="#5E84CA"/>
<path d="M16.9099 18.2602L9.27344 19.8066V16.1451L16.9099 14.5703V18.2602Z" fill="#5E84CA"/>
<path d="M26.408 16.3347L18.625 17.9109V14.2146L26.408 12.6094V16.3347Z" fill="#5E84CA"/>
<path d="M36.1136 14.3706L28.1797 15.9775V12.2456L36.1136 10.6094V14.3706Z" fill="#5E84CA"/>
<path d="M45.9953 12.3686L37.9062 14.0068V10.2386L45.9953 8.57031V12.3686Z" fill="#5E84CA"/>
<path d="M56.0694 10.3278L47.8203 11.9986V8.19365L56.0694 6.49219V10.3278Z" fill="#5E84CA"/>
<path d="M66.3511 8.24096L57.9375 9.9452V6.10265L66.3511 4.36719V8.24096Z" fill="#5E84CA"/>
<path d="M76.8334 6.11588L68.25 7.8544V3.97315L76.8334 2.20312V6.11588Z" fill="#5E84CA"/>
<path d="M87.5318 3.95258L78.7734 5.72648V1.80626L87.5318 0V3.95258Z" fill="#5E84CA"/>
<path d="M7.57969 25.1004L0.0859375 26.5804V22.953L7.57969 21.4453V25.1004Z" fill="#5E84CA"/>
<path d="M16.9099 23.2602L9.27344 24.7682V21.1067L16.9099 19.5703V23.2602Z" fill="#5E84CA"/>
<path d="M26.4077 21.3816L18.625 22.9185V19.2222L26.4077 17.6562V21.3816Z" fill="#5E84CA"/>
<path d="M36.1136 19.4644L28.1797 21.0312V17.2993L36.1136 15.7031V19.4644Z" fill="#5E84CA"/>
<path d="M45.9953 17.5168L37.9062 19.1143V15.3461L45.9953 13.7188V17.5168Z" fill="#5E84CA"/>
<path d="M56.0691 15.5231L47.8203 17.1522V13.3472L56.0691 11.6875V15.5231Z" fill="#5E84CA"/>
<path d="M66.3511 13.499L57.9375 15.1604V11.3179L66.3511 9.625V13.499Z" fill="#5E84CA"/>
<path d="M76.8334 11.4287L68.25 13.1235V9.24254L76.8334 7.51562V11.4287Z" fill="#5E84CA"/>
<path d="M87.5318 9.31223L78.7734 11.0419V7.12167L87.5318 5.35938V9.31223Z" fill="#5E84CA"/>
<path d="M7.57188 30.0613L0.078125 31.5035V27.8763L7.57188 26.4062V30.0613Z" fill="#5E84CA"/>
<path d="M26.4077 26.4362L18.625 27.9339V24.2377L26.4077 22.7109V26.4362Z" fill="#5E84CA"/>
<path d="M36.1133 24.5659L28.1797 26.0927V22.361L36.1133 20.8047V24.5659Z" fill="#5E84CA"/>
<path d="M45.9875 22.6655L37.8984 24.2221V20.4539L45.9875 18.8672V22.6655Z" fill="#5E84CA"/>
<path d="M56.0694 20.7262L47.8203 22.3135V18.5086L56.0694 16.8906V20.7262Z" fill="#5E84CA"/>
<path d="M66.3511 18.749L57.9375 20.3681V16.5253L66.3511 14.875V18.749Z" fill="#5E84CA"/>
<path d="M87.5318 14.6716L78.7734 16.357V12.4368L87.5318 10.7188V14.6716Z" fill="#5E84CA"/>
<path d="M7.57188 35.0145L0.078125 36.4187V32.7915L7.57188 31.3594V35.0145Z" fill="#5E84CA"/>
<path d="M16.9018 33.268L9.26562 34.6988V31.0374L16.9018 29.5781V33.268Z" fill="#5E84CA"/>
<path d="M26.408 31.4831L18.625 32.9416V29.2453L26.408 27.7578V31.4831Z" fill="#5E84CA"/>
<path d="M36.1133 29.6675L28.1797 31.1541V27.4225L36.1133 25.9062V29.6675Z" fill="#5E84CA"/>
<path d="M45.9874 27.8136L37.8984 29.3293V25.5614L45.9874 24.0156V27.8136Z" fill="#5E84CA"/>
<path d="M56.0691 25.9294L47.8203 27.4752V23.6703L56.0691 22.0938V25.9294Z" fill="#5E84CA"/>
<path d="M66.3511 23.999L57.9375 25.5756V21.733L66.3511 20.125V23.999Z" fill="#5E84CA"/>
<path d="M76.8334 22.038L68.25 23.6463V19.7654L76.8334 18.125V22.038Z" fill="#5E84CA"/>
<path d="M87.5315 20.031L78.7734 21.6722V17.7519L87.5315 16.0781V20.031Z" fill="#5E84CA"/>
<path d="M7.57188 39.9676L0.078125 41.3342V37.7068L7.57188 36.3125V39.9676Z" fill="#5E84CA"/>
<path d="M16.9018 38.268L9.26562 39.6604V35.999L16.9018 34.5781V38.268Z" fill="#5E84CA"/>
<path d="M26.4079 36.5378L18.625 37.957V34.2607L26.4079 32.8125V36.5378Z" fill="#5E84CA"/>
<path d="M45.9874 32.9621L37.8984 34.4371V30.6692L45.9874 29.1641V32.9621Z" fill="#5E84CA"/>
<path d="M56.0694 31.1247L47.8203 32.6287V28.8238L56.0694 27.2891V31.1247Z" fill="#5E84CA"/>
<path d="M66.3436 29.2569L57.9297 30.7908V26.9482L66.3436 25.3828V29.2569Z" fill="#5E84CA"/>
<path d="M76.8331 27.3427L68.25 28.9076V25.0269L76.8331 23.4297V27.3427Z" fill="#5E84CA"/>
<path d="M87.5315 25.3901L78.7734 26.987V23.0671L87.5315 21.4375V25.3901Z" fill="#5E84CA"/>
<path d="M7.57188 44.9288L0.078125 46.2573V42.6301L7.57188 41.2734V44.9288Z" fill="#5E84CA"/>
<path d="M16.902 43.268L9.26562 44.6217V40.9603L16.902 39.5781V43.268Z" fill="#5E84CA"/>
<path d="M26.4077 41.5847L18.625 42.9646V39.2681L26.4077 37.8594V41.5847Z" fill="#5E84CA"/>
<path d="M36.1055 39.8706L28.1719 41.2771V37.5454L36.1055 36.1094V39.8706Z" fill="#5E84CA"/>
<path d="M45.9875 38.1186L37.8984 39.5527V35.7845L45.9875 34.3203V38.1186Z" fill="#5E84CA"/>
<path d="M56.0691 36.3278L47.8203 37.7904V33.9855L56.0691 32.4922V36.3278Z" fill="#5E84CA"/>
<path d="M66.3433 34.5066L57.9297 35.9985V32.1559L66.3433 30.6328V34.5066Z" fill="#5E84CA"/>
<path d="M76.8334 32.6471L68.25 34.1689V30.2879L76.8334 28.7344V32.6471Z" fill="#5E84CA"/>
<path d="M87.5315 30.7497L78.7734 32.3025V28.3822L87.5315 26.7969V30.7497Z" fill="#5E84CA"/>
<path d="M7.56378 49.8895L0.0703125 51.1803V47.5532L7.56378 46.2344V49.8895Z" fill="#5E84CA"/>
<path d="M16.902 48.2837L9.26562 49.5989V45.9375L16.902 44.5938V48.2837Z" fill="#5E84CA"/>
<path d="M26.4077 46.6472L18.625 47.9876V44.2913L26.4077 42.9219V46.6472Z" fill="#5E84CA"/>
<path d="M36.1055 44.9725L28.1719 46.3388V42.6072L36.1055 41.2109V44.9725Z" fill="#5E84CA"/>
<path d="M45.9875 43.2746L37.8984 44.6678V40.8999L45.9875 39.4766V43.2746Z" fill="#5E84CA"/>
<path d="M56.0694 41.5387L47.8203 42.9596V39.1547L56.0694 37.7031V41.5387Z" fill="#5E84CA"/>
<path d="M66.3433 39.7644L57.9297 41.2137V37.3712L66.3433 35.8906V39.7644Z" fill="#5E84CA"/>
<path d="M76.8334 37.9596L68.25 39.4383V35.5573L76.8334 34.0469V37.9596Z" fill="#5E84CA"/>
<path d="M87.5318 36.1169L78.7734 37.6254V33.7052L87.5318 32.1641V36.1169Z" fill="#5E84CA"/>
<path d="M16.9018 53.2837L9.26562 54.5605V50.899L16.9018 49.5938V53.2837Z" fill="#5E84CA"/>
<path d="M26.4077 51.6938L18.625 52.9952V49.2989L26.4077 47.9688V51.6938Z" fill="#5E84CA"/>
<path d="M36.1055 50.074L28.1719 51.4003V47.6686L36.1055 46.3125V50.074Z" fill="#5E84CA"/>
<path d="M45.9874 48.423L37.8984 49.7756V46.0074L45.9874 44.625V48.423Z" fill="#5E84CA"/>
<path d="M66.3433 45.0222L57.9297 46.429V42.5864L66.3433 41.1484V45.0222Z" fill="#5E84CA"/>
<path d="M76.8253 43.2646L68.2422 44.6995V40.8186L76.8253 39.3516V43.2646Z" fill="#5E84CA"/>
<path d="M87.5315 41.4763L78.7734 42.9408V39.0206L87.5315 37.5234V41.4763Z" fill="#5E84CA"/>
<path d="M7.56406 59.8035L0.0703125 61.0187V57.3915L7.56406 56.1484V59.8035Z" fill="#5E84CA"/>
<path d="M16.9018 58.2912L9.26562 59.5296V55.8681L16.9018 54.6016V58.2912Z" fill="#5E84CA"/>
<path d="M26.408 56.7485L18.625 58.0106V54.3143L26.408 53.0234V56.7485Z" fill="#5E84CA"/>
<path d="M36.1055 55.1753L28.1719 56.4618V52.7301L36.1055 51.4141V55.1753Z" fill="#5E84CA"/>
<path d="M45.9872 53.5715L37.8984 54.8831V51.1152L45.9872 49.7734V53.5715Z" fill="#5E84CA"/>
<path d="M56.0691 51.9369L47.8203 53.2745V49.4696L56.0691 48.1016V51.9369Z" fill="#5E84CA"/>
<path d="M76.8256 48.5693L68.2422 49.9611V46.0801L76.8256 44.6562V48.5693Z" fill="#5E84CA"/>
<path d="M87.5315 46.8354L78.7734 48.2557V44.3354L87.5315 42.8828V46.8354Z" fill="#5E84CA"/>
<path d="M7.56405 64.7567L0.0703125 65.9339V62.3067L7.56405 61.1016V64.7567Z" fill="#5E84CA"/>
<path d="M16.9018 63.2912L9.26562 64.4911V60.8297L16.9018 59.6016V63.2912Z" fill="#5E84CA"/>
<path d="M26.4077 61.7956L18.625 63.0182V59.3222L26.4077 58.0703V61.7956Z" fill="#5E84CA"/>
<path d="M36.1055 60.2769L28.1719 61.5233V57.7916L36.1055 56.5156V60.2769Z" fill="#5E84CA"/>
<path d="M45.9875 58.7199L37.8984 59.9909V56.2227L45.9875 54.9219V58.7199Z" fill="#5E84CA"/>
<path d="M56.0691 57.1403L47.8203 58.4362V54.6312L56.0691 53.3047V57.1403Z" fill="#5E84CA"/>
<path d="M66.343 55.5225L57.9297 56.8441V53.0015L66.343 51.6484V55.5225Z" fill="#5E84CA"/>
<path d="M76.8255 53.874L68.2422 55.2224V51.3414L76.8255 49.9609V53.874Z" fill="#5E84CA"/>
<path d="M87.5315 52.195L78.7734 53.5711V49.6509L87.5315 48.2422V52.195Z" fill="#5E84CA"/>
<path d="M7.56406 69.7098L0.0703125 70.8492V67.222L7.56406 66.0547V69.7098Z" fill="#5E84CA"/>
<path d="M16.9018 68.2915L9.26562 69.4524V65.791L16.9018 64.6016V68.2915Z" fill="#5E84CA"/>
<path d="M36.1052 65.3709L28.1719 66.5772V62.8455L36.1052 61.6094V65.3709Z" fill="#5E84CA"/>
<path d="M45.9794 63.8683L37.8906 65.0984V61.3305L45.9794 60.0703V63.8683Z" fill="#5E84CA"/>
<path d="M56.0613 62.3354L47.8125 63.5897V59.7848L56.0613 58.5V62.3354Z" fill="#5E84CA"/>
<path d="M66.3355 60.7722L57.9219 62.0515V58.209L66.3355 56.8984V60.7722Z" fill="#5E84CA"/>
<path d="M76.8253 59.1787L68.2422 60.4839V56.603L76.8253 55.2656V59.1787Z" fill="#5E84CA"/>
<path d="M87.5312 57.5541L78.7734 58.886V54.966L87.5312 53.6016V57.5541Z" fill="#5E84CA"/>
<path d="M7.56406 74.6707L0.0703125 75.7722V72.1451L7.56406 71.0156V74.6707Z" fill="#5E84CA"/>
<path d="M16.9018 73.2993L9.26562 74.4218V70.7604L16.9018 69.6094V73.2993Z" fill="#5E84CA"/>
<path d="M26.4077 71.8969L18.625 73.0413V69.345L26.4077 68.1719V71.8969Z" fill="#5E84CA"/>
<path d="M36.1055 70.4722L28.1719 71.6387V67.9067L36.1055 66.7109V70.4722Z" fill="#5E84CA"/>
<path d="M45.9794 69.0246L37.8906 70.2137V66.4458L45.9794 65.2266V69.0246Z" fill="#5E84CA"/>
<path d="M56.0613 67.5385L47.8125 68.7514V64.9465L56.0613 63.7031V67.5385Z" fill="#5E84CA"/>
<path d="M66.3352 66.0303L57.9219 67.267V63.4245L66.3352 62.1562V66.0303Z" fill="#5E84CA"/>
<path d="M76.8253 64.4831L68.2422 65.7449V61.864L76.8253 60.5703V64.4831Z" fill="#5E84CA"/>
<path d="M87.5315 62.9138L78.7734 64.2014V60.2811L87.5315 58.9609V62.9138Z" fill="#5E84CA"/>
<path d="M7.56406 79.6241L0.0703125 80.6878V77.0606L7.56406 75.9688V79.6241Z" fill="#5E84CA"/>
<path d="M16.9015 78.2993L9.26562 79.3834V75.7219L16.9015 74.6094V78.2993Z" fill="#5E84CA"/>
<path d="M26.4077 76.9519L18.625 78.0567V74.3604L26.4077 73.2266V76.9519Z" fill="#5E84CA"/>
<path d="M36.0977 75.5738L28.1641 76.6999V72.9682L36.0977 71.8125V75.5738Z" fill="#5E84CA"/>
<path d="M45.9796 74.173L37.8906 75.3215V71.5534L45.9796 70.375V74.173Z" fill="#5E84CA"/>
<path d="M56.0613 72.7416L47.8125 73.9128V70.1078L56.0613 68.9062V72.7416Z" fill="#5E84CA"/>
<path d="M66.3355 71.28L57.9219 72.4744V68.6319L66.3355 67.4062V71.28Z" fill="#5E84CA"/>
<path d="M76.8255 69.7956L68.2422 71.014V67.1331L76.8255 65.8828V69.7956Z" fill="#5E84CA"/>
<path d="M87.5237 68.2729L78.7656 69.5162V65.596L87.5237 64.3203V68.2729Z" fill="#5E84CA"/>
<path d="M7.56379 84.577L0.0703125 85.603V81.9758L7.56379 80.9219V84.577Z" fill="#5E84CA"/>
<path d="M16.9015 83.2993L9.26562 84.3447V80.6832L16.9015 79.6094V83.2993Z" fill="#5E84CA"/>
<path d="M26.4077 81.9987L18.625 83.0643V79.368L26.4077 78.2734V81.9987Z" fill="#5E84CA"/>
<path d="M36.0974 80.6753L28.1641 81.7616V78.0299L36.0974 76.9141V80.6753Z" fill="#5E84CA"/>
<path d="M45.9794 79.3214L37.8906 80.429V76.6612L45.9794 75.5234V79.3214Z" fill="#5E84CA"/>
<path d="M56.0613 77.9372L47.8125 79.0666V75.2617L56.0613 74.1016V77.9372Z" fill="#5E84CA"/>
<path d="M66.3355 76.53L57.9219 77.6818V73.8393L66.3355 72.6562V76.53Z" fill="#5E84CA"/>
<path d="M87.5237 73.6323L78.7656 74.8314V70.9114L87.5237 69.6797V73.6323Z" fill="#5E84CA"/>
<path d="M7.56378 89.5379L0.0703125 90.5261V86.8989L7.56378 85.8828V89.5379Z" fill="#5E84CA"/>
<path d="M16.894 88.3071L9.25781 89.3141V85.6526L16.894 84.6172V88.3071Z" fill="#5E84CA"/>
<path d="M26.4077 87.0534L18.625 88.0797V84.3835L26.4077 83.3281V87.0534Z" fill="#5E84CA"/>
<path d="M45.9796 84.4699L37.8906 85.5366V81.7687L45.9796 80.6719V84.4699Z" fill="#5E84CA"/>
<path d="M56.0532 83.1403L47.8047 84.2283V80.4233L56.0532 79.3047V83.1403Z" fill="#5E84CA"/>
<path d="M66.3274 81.7878L57.9141 82.8974V79.0548L66.3274 77.9141V81.7878Z" fill="#5E84CA"/>
<path d="M76.8175 80.4052L68.2344 81.5371V77.6562L76.8175 76.4922V80.4052Z" fill="#5E84CA"/>
<path d="M87.5235 78.9916L78.7656 80.1468V76.2265L87.5235 75.0391V78.9916Z" fill="#5E84CA"/>
<path d="M16.8939 93.3071L9.25781 94.2754V90.6142L16.8939 89.6172V93.3071Z" fill="#5E84CA"/>
<path d="M26.3999 92.1003L18.6172 93.0874V89.3911L26.3999 88.375V92.1003Z" fill="#5E84CA"/>
<path d="M36.0899 90.8706L28.1562 91.8767V88.1451L36.0899 87.1094V90.8706Z" fill="#5E84CA"/>
<path d="M45.9794 89.6183L37.8906 90.6441V86.8762L45.9794 85.8203V89.6183Z" fill="#5E84CA"/>
<path d="M56.0535 88.3435L47.8047 89.3896V85.5847L56.0535 84.5078V88.3435Z" fill="#5E84CA"/>
<path d="M66.3277 87.0378L57.9141 88.1048V84.2623L66.3277 83.1641V87.0378Z" fill="#5E84CA"/>
<path d="M76.8175 85.7099L68.2344 86.7984V82.9175L76.8175 81.7969V85.7099Z" fill="#5E84CA"/>
<path d="M87.5156 84.3513L78.7578 85.4619V81.542L87.5156 80.3984V84.3513Z" fill="#5E84CA"/>
<path d="M7.56378 99.4441L0.0703125 100.357V96.7294L7.56378 95.7891V99.4441Z" fill="#5E84CA"/>
<path d="M16.8861 98.3146L9.25 99.2447V95.5833L16.8861 94.625V98.3146Z" fill="#5E84CA"/>
<path d="M26.3996 97.155L18.6172 98.1028V94.4065L26.3996 93.4297V97.155Z" fill="#5E84CA"/>
<path d="M36.0896 95.9722L28.1562 96.9382V93.2065L36.0896 92.2109V95.9722Z" fill="#5E84CA"/>
<path d="M45.9794 94.7671L37.8906 95.7522V91.984L45.9794 90.9688V94.7671Z" fill="#5E84CA"/>
<path d="M56.0532 93.5388L47.8047 94.5432V90.7383L56.0532 89.7031V93.5388Z" fill="#5E84CA"/>
<path d="M66.3274 92.2878L57.9141 93.3125V89.4699L66.3274 88.4141V92.2878Z" fill="#5E84CA"/>
<path d="M76.8175 91.0143L68.2344 92.0597V88.1787L76.8175 87.1016V91.0143Z" fill="#5E84CA"/>
<path d="M87.5156 89.7107L78.7578 90.777V86.8571L87.5156 85.7578V89.7107Z" fill="#5E84CA"/>
<path d="M7.56379 104.405L0.0703125 105.28V101.653L7.56379 100.75V104.405Z" fill="#5E84CA"/>
<path d="M16.8859 103.315L9.25 104.206V100.545L16.8859 99.625V103.315Z" fill="#5E84CA"/>
<path d="M26.3999 102.202L18.6172 103.11V99.4141L26.3999 98.4766V102.202Z" fill="#5E84CA"/>
<path d="M36.0899 101.074L28.1562 102V98.268L36.0899 97.3125V101.074Z" fill="#5E84CA"/>
<path d="M45.9794 99.923L37.8906 100.867V97.0993L45.9794 96.125V99.923Z" fill="#5E84CA"/>
<path d="M56.0535 98.7416L47.8047 99.7046V95.8997L56.0535 94.9062V98.7416Z" fill="#5E84CA"/>
<path d="M66.3274 97.5457L57.9141 98.528V94.6855L66.3274 93.6719V97.5457Z" fill="#5E84CA"/>
<path d="M76.8175 96.319L68.2344 97.321V93.44L76.8175 92.4062V96.319Z" fill="#5E84CA"/>
<path d="M87.5159 95.07L78.7578 96.0922V92.1722L87.5159 91.1172V95.07Z" fill="#5E84CA"/>
<path d="M7.56378 109.358L0.0703125 110.195V106.568L7.56378 105.703V109.358Z" fill="#5E84CA"/>
<path d="M16.8859 108.315L9.25 109.168V105.506L16.8859 104.625V108.315Z" fill="#5E84CA"/>
<path d="M26.3999 107.257L18.6172 108.126V104.43L26.3999 103.531V107.257Z" fill="#5E84CA"/>
<path d="M36.0821 106.175L28.1484 107.061V103.33L36.0821 102.414V106.175Z" fill="#5E84CA"/>
<path d="M56.0532 103.945L47.8047 104.866V101.061L56.0532 100.109V103.945Z" fill="#5E84CA"/>
<path d="M66.3274 102.796L57.9141 103.735V99.8926L66.3274 98.9219V102.796Z" fill="#5E84CA"/>
<path d="M76.8172 101.624L68.2344 102.582V98.7013L76.8172 97.7109V101.624Z" fill="#5E84CA"/>
<path d="M87.5078 100.429L78.75 101.408V97.4874L87.5078 96.4766V100.429Z" fill="#5E84CA"/>
<path d="M7.56379 114.319L0.0703125 115.118V111.491L7.56379 110.664V114.319Z" fill="#5E84CA"/>
<path d="M16.8859 113.323L9.25 114.137V110.476L16.8859 109.633V113.323Z" fill="#5E84CA"/>
<path d="M26.3999 112.303L18.6172 113.133V109.437L26.3999 108.578V112.303Z" fill="#5E84CA"/>
<path d="M36.0818 111.269L28.1484 112.115V108.383L36.0818 107.508V111.269Z" fill="#5E84CA"/>
<path d="M45.9715 110.22L37.8828 111.083V107.314L45.9715 106.422V110.22Z" fill="#5E84CA"/>
<path d="M56.0535 109.148L47.8047 110.028V106.223L56.0535 105.312V109.148Z" fill="#5E84CA"/>
<path d="M76.8175 106.928L68.2344 107.844V103.963L76.8175 103.016V106.928Z" fill="#5E84CA"/>
<path d="M87.5078 105.789L78.75 106.723V102.803L87.5078 101.836V105.789Z" fill="#5E84CA"/>
<path d="M7.55596 119.272L0.0625 120.033V116.406L7.55596 115.617V119.272Z" fill="#5E84CA"/>
<path d="M26.3918 117.358L18.6094 118.149V114.452L26.3918 113.633V117.358Z" fill="#5E84CA"/>
<path d="M36.0818 116.371L28.1484 117.177V113.445L36.0818 112.609V116.371Z" fill="#5E84CA"/>
<path d="M45.9715 115.368L37.8828 116.19V112.422L45.9715 111.57V115.368Z" fill="#5E84CA"/>
<path d="M56.0454 114.343L47.7969 115.181V111.377L56.0454 110.508V114.343Z" fill="#5E84CA"/>
<path d="M66.3274 113.303L57.9141 114.158V110.316L66.3274 109.43V113.303Z" fill="#5E84CA"/>
<path d="M76.8175 112.233L68.2344 113.105V109.224L76.8175 108.32V112.233Z" fill="#5E84CA"/>
<path d="M87.5078 111.148L78.75 112.038V108.118L87.5078 107.195V111.148Z" fill="#5E84CA"/>
<path d="M7.55598 124.233L0.0625 124.957V121.33L7.55598 120.578V124.233Z" fill="#5E84CA"/>
<path d="M16.8861 123.33L9.25 124.068V120.406L16.8861 119.641V123.33Z" fill="#5E84CA"/>
<path d="M26.392 122.413L18.6094 123.164V119.468L26.392 118.688V122.413Z" fill="#5E84CA"/>
<path d="M36.0818 121.48L28.1484 122.246V118.514L36.0818 117.719V121.48Z" fill="#5E84CA"/>
<path d="M45.9716 120.525L37.8828 121.306V117.537L45.9716 116.727V120.525Z" fill="#5E84CA"/>
<path d="M56.0454 119.554L47.7969 120.351V116.546L56.0454 115.719V119.554Z" fill="#5E84CA"/>
<path d="M66.3274 118.561L57.9141 119.374V115.531L66.3274 114.688V118.561Z" fill="#5E84CA"/>
<path d="M76.8172 117.546L68.2344 118.374V114.494L76.8172 113.633V117.546Z" fill="#5E84CA"/>
<path d="M7.55596 129.194L0.0625 129.88V126.253L7.55596 125.539V129.194Z" fill="#5E84CA"/>
<path d="M16.8861 128.338L9.25 129.037V125.376L16.8861 124.648V128.338Z" fill="#5E84CA"/>
<path d="M26.392 127.467L18.6094 128.179V124.483L26.392 123.742V127.467Z" fill="#5E84CA"/>
<path d="M36.0818 126.582L28.1484 127.308V123.576L36.0818 122.82V126.582Z" fill="#5E84CA"/>
<path d="M45.9637 125.673L37.875 126.413V122.645L45.9637 121.875V125.673Z" fill="#5E84CA"/>
<path d="M66.3193 123.811L57.9062 124.581V120.739L66.3193 119.938V123.811Z" fill="#5E84CA"/>
<path d="M76.8094 122.85L68.2266 123.636V119.755L76.8094 118.938V122.85Z" fill="#5E84CA"/>
<path d="M87.5078 121.874L78.75 122.676V118.756L87.5078 117.922V121.874Z" fill="#5E84CA"/>
<path d="M7.54788 134.147L0.0546875 134.795V131.168L7.54788 130.492V134.147Z" fill="#5E84CA"/>
<path d="M16.878 133.338L9.24219 133.998V130.337L16.878 129.648V133.338Z" fill="#5E84CA"/>
<path d="M26.3842 132.514L18.6016 133.187V129.491L26.3842 128.789V132.514Z" fill="#5E84CA"/>
<path d="M36.0818 131.683L28.1484 132.369V128.637L36.0818 127.922V131.683Z" fill="#5E84CA"/>
<path d="M45.9637 130.821L37.875 131.521V127.753L45.9637 127.023V130.821Z" fill="#5E84CA"/>
<path d="M56.0376 129.953L47.7891 130.666V126.861L56.0376 126.117V129.953Z" fill="#5E84CA"/>
<path d="M66.3196 129.061L57.9062 129.789V125.946L66.3196 125.188V129.061Z" fill="#5E84CA"/>
<path d="M76.8097 128.155L68.2266 128.897V125.016L76.8097 124.242V128.155Z" fill="#5E84CA"/>
<path d="M87.5078 127.234L78.75 127.991V124.071L87.5078 123.281V127.234Z" fill="#5E84CA"/>
<path d="M7.5479 139.1L0.0546875 139.71V136.083L7.5479 135.445V139.1Z" fill="#5E84CA"/>
<path d="M16.8781 138.346L9.24219 138.968V135.306L16.8781 134.656V138.346Z" fill="#5E84CA"/>
<path d="M26.384 137.569L18.6016 138.202V134.506L26.384 133.844V137.569Z" fill="#5E84CA"/>
<path d="M45.9635 135.978L37.875 136.636V132.868L45.9635 132.18V135.978Z" fill="#5E84CA"/>
<path d="M56.0376 135.156L47.7891 135.828V132.023L56.0376 131.32V135.156Z" fill="#5E84CA"/>
<path d="M66.3196 134.319L57.9062 135.004V131.161L66.3196 130.445V134.319Z" fill="#5E84CA"/>
<path d="M76.8094 133.467L68.2266 134.166V130.285L76.8094 129.555V133.467Z" fill="#5E84CA"/>
<path d="M87.5078 132.593L78.75 133.306V129.386L87.5078 128.641V132.593Z" fill="#5E84CA"/>
<path d="M7.54788 144.061L0.0546875 144.634V141.006L7.54788 140.406V144.061Z" fill="#5E84CA"/>
<path d="M16.878 143.346L9.24219 143.929V140.268L16.878 139.656V143.346Z" fill="#5E84CA"/>
<path d="M26.384 142.616L18.6016 143.21V139.514L26.384 138.891V142.616Z" fill="#5E84CA"/>
<path d="M36.0818 141.878L28.1484 142.484V138.753L36.0818 138.117V141.878Z" fill="#5E84CA"/>
<path d="M45.9637 141.126L37.875 141.744V137.976L45.9637 137.328V141.126Z" fill="#5E84CA"/>
<path d="M56.0376 140.359L47.7891 140.989V137.184L56.0376 136.523V140.359Z" fill="#5E84CA"/>
<path d="M66.3193 139.569L57.9062 140.212V136.369L66.3193 135.695V139.569Z" fill="#5E84CA"/>
<path d="M76.8016 138.772L68.2188 139.428V135.547L76.8016 134.859V138.772Z" fill="#5E84CA"/>
<path d="M87.5076 137.953L78.75 138.621V134.701L87.5076 134V137.953Z" fill="#5E84CA"/>
<path d="M7.54817 149.014L0.0546875 149.549V145.922L7.54817 145.359V149.014Z" fill="#5E84CA"/>
<path d="M16.8781 148.346L9.24219 148.891V145.229L16.8781 144.656V148.346Z" fill="#5E84CA"/>
<path d="M26.3842 147.67L18.6016 148.226V144.529L26.3842 143.945V147.67Z" fill="#5E84CA"/>
<path d="M36.0818 146.98L28.1484 147.546V143.814L36.0818 143.219V146.98Z" fill="#5E84CA"/>
<path d="M45.9635 146.275L37.875 146.851V143.083L45.9635 142.477V146.275Z" fill="#5E84CA"/>
<path d="M56.0376 145.554L47.7891 146.142V142.338L56.0376 141.719V145.554Z" fill="#5E84CA"/>
<path d="M66.3196 144.819L57.9062 145.419V141.577L66.3196 140.945V144.819Z" fill="#5E84CA"/>
<path d="M87.5075 143.312L78.75 143.937V140.017L87.5075 139.359V143.312Z" fill="#5E84CA"/>
<path d="M7.54036 153.968L0.046875 154.464V150.837L7.54036 150.312V153.968Z" fill="#5E84CA"/>
<path d="M16.8702 153.354L9.23438 153.86V150.198L16.8702 149.664V153.354Z" fill="#5E84CA"/>
<path d="M36.0815 152.082L28.1484 152.607V148.875L36.0815 148.32V152.082Z" fill="#5E84CA"/>
<path d="M45.9635 151.423L37.875 151.959V148.191L45.9635 147.625V151.423Z" fill="#5E84CA"/>
<path d="M56.0376 150.757L47.7891 151.304V147.499L56.0376 146.922V150.757Z" fill="#5E84CA"/>
<path d="M66.3193 150.077L57.9062 150.635V146.792L66.3193 146.203V150.077Z" fill="#5E84CA"/>
<path d="M76.8016 149.382L68.2188 149.95V146.07L76.8016 145.469V149.382Z" fill="#5E84CA"/>
<path d="M87.5078 148.672L78.75 149.252V145.332L87.5078 144.719V148.672Z" fill="#5E84CA"/>
<path d="M7.54036 158.929L0.046875 159.387V155.76L7.54036 155.273V158.929Z" fill="#5E84CA"/>
<path d="M16.8702 158.354L9.23438 158.821V155.16L16.8702 154.664V158.354Z" fill="#5E84CA"/>
<path d="M26.384 157.772L18.6016 158.248V154.552L26.384 154.047V157.772Z" fill="#5E84CA"/>
<path d="M36.0818 157.175L28.1484 157.661V153.929L36.0818 153.414V157.175Z" fill="#5E84CA"/>
<path d="M45.9637 156.571L37.875 157.067V153.299L45.9637 152.773V156.571Z" fill="#5E84CA"/>
<path d="M56.0376 155.961L47.7891 156.466V152.661L56.0376 152.125V155.961Z" fill="#5E84CA"/>
<path d="M66.3196 155.327L57.9062 155.842V151.999L66.3196 151.453V155.327Z" fill="#5E84CA"/>
<path d="M76.8016 154.686L68.2188 155.212V151.331L76.8016 150.773V154.686Z" fill="#5E84CA"/>
<path d="M87.5078 154.031L78.75 154.567V150.647L87.5078 150.078V154.031Z" fill="#5E84CA"/>
<path d="M7.54036 163.881L0.046875 164.302V160.675L7.54036 160.227V163.881Z" fill="#5E84CA"/>
<path d="M16.8702 163.354L9.23438 163.783V160.122L16.8702 159.664V163.354Z" fill="#5E84CA"/>
<path d="M26.384 162.827L18.6016 163.264V159.567L26.384 159.102V162.827Z" fill="#5E84CA"/>
<path d="M45.9635 161.728L37.875 162.182V158.414L45.9635 157.93V161.728Z" fill="#5E84CA"/>
<path d="M66.3193 160.577L57.9062 161.049V157.207L66.3193 156.703V160.577Z" fill="#5E84CA"/>
<path d="M76.7935 159.991L68.2109 160.473V156.592L76.7935 156.078V159.991Z" fill="#5E84CA"/>
<path d="M87.4997 159.39L78.7422 159.882V155.962L87.4997 155.438V159.39Z" fill="#5E84CA"/>
<path d="M16.8702 168.362L9.23438 168.752V165.091L16.8702 164.672V168.362Z" fill="#5E84CA"/>
<path d="M26.384 167.874L18.6016 168.272V164.575L26.384 164.148V167.874Z" fill="#5E84CA"/>
<path d="M36.0815 167.378L28.1484 167.784V164.052L36.0815 163.617V167.378Z" fill="#5E84CA"/>
<path d="M45.9637 166.876L37.875 167.29V163.522L45.9637 163.078V166.876Z" fill="#5E84CA"/>
<path d="M56.0376 166.359L47.7891 166.781V162.976L56.0376 162.523V166.359Z" fill="#5E84CA"/>
<path d="M66.3193 165.835L57.9062 166.265V162.422L66.3193 161.961V165.835Z" fill="#5E84CA"/>
<path d="M87.4997 164.749L78.7422 165.197V161.277L87.4997 160.797V164.749Z" fill="#5E84CA"/>
<path d="M7.54009 173.795L0.046875 174.141V170.514L7.54009 170.141V173.795Z" fill="#5E84CA"/>
<path d="M16.8702 173.362L9.23438 173.713V170.052L16.8702 169.672V173.362Z" fill="#5E84CA"/>
<path d="M26.384 172.928L18.6016 173.287V169.591L26.384 169.203V172.928Z" fill="#5E84CA"/>
<path d="M36.074 172.48L28.1406 172.846V169.114L36.074 168.719V172.48Z" fill="#5E84CA"/>
<path d="M45.9557 172.025L37.8672 172.397V168.629L45.9557 168.227V172.025Z" fill="#5E84CA"/>
<path d="M56.0376 171.562L47.7891 171.942V168.137L56.0376 167.727V171.562Z" fill="#5E84CA"/>
<path d="M66.3115 171.085L57.8984 171.473V167.63L66.3115 167.211V171.085Z" fill="#5E84CA"/>
<path d="M76.7938 170.6L68.2109 170.996V167.115L76.7938 166.688V170.6Z" fill="#5E84CA"/>
<path d="M87.4997 170.109L78.7422 170.512V166.593L87.4997 166.156V170.109Z" fill="#5E84CA"/>
<path d="M7.54007 178.749L0.046875 179.056V175.429L7.54007 175.094V178.749Z" fill="#5E84CA"/>
<path d="M16.8702 178.37L9.23438 178.683V175.021L16.8702 174.68V178.37Z" fill="#5E84CA"/>
<path d="M26.384 177.975L18.6016 178.295V174.598L26.384 174.25V177.975Z" fill="#5E84CA"/>
<path d="M36.074 177.582L28.1406 177.907V174.175L36.074 173.82V177.582Z" fill="#5E84CA"/>
<path d="M45.9557 177.173L37.8672 177.505V173.737L45.9557 173.375V177.173Z" fill="#5E84CA"/>
<path d="M66.3115 176.335L57.8984 176.68V172.837L66.3115 172.461V176.335Z" fill="#5E84CA"/>
<path d="M76.7935 175.905L68.2109 176.257V172.377L76.7935 171.992V175.905Z" fill="#5E84CA"/>
<path d="M87.4997 175.468L78.7422 175.828V171.907L87.4997 171.516V175.468Z" fill="#5E84CA"/>
<path d="M7.54007 183.702L0.046875 183.972V180.345L7.54007 180.047V183.702Z" fill="#5E84CA"/>
<path d="M16.87 183.37L9.23438 183.644V179.983L16.87 179.68V183.37Z" fill="#5E84CA"/>
<path d="M36.0737 182.675L28.1406 182.961V179.229L36.0737 178.914V182.675Z" fill="#5E84CA"/>
<path d="M45.9557 182.321L37.8672 182.613V178.845L45.9557 178.523V182.321Z" fill="#5E84CA"/>
<path d="M56.0295 181.96L47.7812 182.257V178.453L56.0295 178.125V181.96Z" fill="#5E84CA"/>
<path d="M76.7937 181.21L68.2109 181.518V177.637L76.7937 177.297V181.21Z" fill="#5E84CA"/>
<path d="M87.4997 180.828L78.7422 181.143V177.223L87.4997 176.875V180.828Z" fill="#5E84CA"/>
<path d="M16.87 188.369L9.23438 188.606V184.944L16.87 184.68V188.369Z" fill="#5E84CA"/>
<path d="M26.3761 188.077L18.5938 188.318V184.621L26.3761 184.352V188.077Z" fill="#5E84CA"/>
<path d="M45.9557 187.47L37.8672 187.72V183.952L45.9557 183.672V187.47Z" fill="#5E84CA"/>
<path d="M76.7938 186.514L68.2109 186.78V182.899L76.7938 182.602V186.514Z" fill="#5E84CA"/>
<path d="M87.4997 186.187L78.7422 186.458V182.538L87.4997 182.234V186.187Z" fill="#5E84CA"/>
<path d="M7.53226 193.616L0.0390625 193.81V190.183L7.53226 189.961V193.616Z" fill="#5E84CA"/>
<path d="M16.87 193.377L9.23438 193.575V189.914L16.87 189.688V193.377Z" fill="#5E84CA"/>
<path d="M26.3759 193.131L18.5938 193.333V189.637L26.3759 189.406V193.131Z" fill="#5E84CA"/>
<path d="M36.0659 192.878L28.1328 193.084V189.352L36.0659 189.117V192.878Z" fill="#5E84CA"/>
<path d="M45.9554 192.618L37.8672 192.828V189.06L45.9554 188.82V192.618Z" fill="#5E84CA"/>
<path d="M56.0295 192.359L47.7812 192.572V188.768L56.0295 188.523V192.359Z" fill="#5E84CA"/>
<path d="M66.3034 192.092L57.8906 192.31V188.468L66.3034 188.219V192.092Z" fill="#5E84CA"/>
<path d="M76.7935 191.827L68.2109 192.049V188.168L76.7935 187.914V191.827Z" fill="#5E84CA"/>
<path d="M87.4919 191.546L78.7344 191.773V187.853L87.4919 187.594V191.546Z" fill="#5E84CA"/>
<path d="M7.53226 198.577L0.0390625 198.733V195.106L7.53226 194.922V198.577Z" fill="#5E84CA"/>
<path d="M16.8702 198.377L9.23438 198.536V194.875L16.8702 194.688V198.377Z" fill="#5E84CA"/>
<path d="M36.0659 197.98L28.1328 198.145V194.414L36.0659 194.219V197.98Z" fill="#5E84CA"/>
<path d="M45.9557 197.775L37.8672 197.943V194.175L45.9557 193.977V197.775Z" fill="#5E84CA"/>
<path d="M66.3037 197.35L57.8906 197.526V193.683L66.3037 193.477V197.35Z" fill="#5E84CA"/>
<path d="M87.4919 196.906L78.7344 197.088V193.169L87.4919 192.953V196.906Z" fill="#5E84CA"/>
<path d="M7.53226 203.53L0.0390625 203.649V200.022L7.53226 199.875V203.53Z" fill="#5E84CA"/>
<path d="M16.8702 203.385L9.23438 203.506V199.844L16.8702 199.695V203.385Z" fill="#5E84CA"/>
<path d="M45.9557 202.923L37.8672 203.051V199.283L45.9557 199.125V202.923Z" fill="#5E84CA"/>
<path d="M56.0295 202.765L47.7812 202.896V199.091L56.0295 198.93V202.765Z" fill="#5E84CA"/>
<path d="M66.3037 202.6L57.8906 202.733V198.891L66.3037 198.727V202.6Z" fill="#5E84CA"/>
<path d="M76.7937 202.436L68.2109 202.572V198.691L76.7937 198.523V202.436Z" fill="#5E84CA"/>
<path d="M87.4916 202.265L78.7344 202.404V198.484L87.4916 198.312V202.265Z" fill="#5E84CA"/>
<path d="M7.53226 208.483L0.0390625 208.564V204.936L7.53226 204.828V208.483Z" fill="#5E84CA"/>
<path d="M16.87 208.385L9.23438 208.467V204.806L16.87 204.695V208.385Z" fill="#5E84CA"/>
<path d="M26.3759 208.28L18.5938 208.363V204.667L26.3759 204.555V208.28Z" fill="#5E84CA"/>
<path d="M36.0659 208.175L28.1328 208.261V204.529L36.0659 204.414V208.175Z" fill="#5E84CA"/>
<path d="M45.9556 208.071L37.8672 208.158V204.39L45.9556 204.273V208.071Z" fill="#5E84CA"/>
<path d="M56.0295 207.96L47.7812 208.049V204.244L56.0295 204.125V207.96Z" fill="#5E84CA"/>
<path d="M66.3034 207.85L57.8906 207.941V204.098L66.3034 203.977V207.85Z" fill="#5E84CA"/>
<path d="M87.4919 207.624L78.7344 207.718V203.799L87.4919 203.672V207.624Z" fill="#5E84CA"/>
<path d="M7.53199 213.444L0.0390625 213.487V209.86L7.53199 209.789V213.444Z" fill="#5E84CA"/>
<path d="M16.8621 213.385L9.22656 213.428V209.767L16.8621 209.695V213.385Z" fill="#5E84CA"/>
<path d="M26.3759 213.334L18.5938 213.379V209.683L26.3759 209.609V213.334Z" fill="#5E84CA"/>
<path d="M36.0581 213.277L28.125 213.322V209.59L36.0581 209.516V213.277Z" fill="#5E84CA"/>
<path d="M66.3037 213.108L57.8906 213.156V209.314L66.3037 209.234V213.108Z" fill="#5E84CA"/>
<path d="M76.7857 213.046L68.2031 213.095V209.214L76.7857 209.133V213.046Z" fill="#5E84CA"/>
<path d="M87.4841 212.984L78.7266 213.034V209.114L87.4841 209.031V212.984Z" fill="#5E84CA"/>
<path d="M16.8621 218.393L9.22656 218.398V214.737L16.8621 214.703V218.393Z" fill="#5E84CA"/>
<path d="M26.3759 218.381L18.5938 218.387V214.69L26.3759 214.656V218.381Z" fill="#5E84CA"/>
<path d="M45.9476 218.368L37.8594 218.374V214.606L45.9476 214.57V218.368Z" fill="#5E84CA"/>
<path d="M56.0217 218.367L47.7734 218.372V214.567L56.0217 214.531V218.367Z" fill="#5E84CA"/>
<path d="M76.7857 218.35L68.2031 218.356V214.475L76.7857 214.438V218.35Z" fill="#5E84CA"/>
<path d="M7.53199 223.355L0.0390625 223.322V219.695L7.53199 219.7V223.355Z" fill="#5E84CA"/>
<path d="M26.3681 223.441L18.5859 223.407V219.711L26.3681 219.716V223.441Z" fill="#5E84CA"/>
<path d="M36.0578 223.477L28.125 223.443V219.711L36.0578 219.716V223.477Z" fill="#5E84CA"/>
<path d="M45.9478 223.522L37.8594 223.487V219.719L45.9478 219.724V223.522Z" fill="#5E84CA"/>
<path d="M56.0217 223.567L47.7734 223.531V219.727L56.0217 219.732V223.567Z" fill="#5E84CA"/>
<path d="M66.2959 223.614L57.8828 223.577V219.734L66.2959 219.74V223.614Z" fill="#5E84CA"/>
<path d="M76.7857 223.661L68.2031 223.623V219.742L76.7857 219.748V223.661Z" fill="#5E84CA"/>
<path d="M87.476 223.708L78.7188 223.67V219.75L87.476 219.756V223.708Z" fill="#5E84CA"/>
<path d="M7.53199 228.315L0.0390625 228.244V224.617L7.53199 224.66V228.315Z" fill="#5E84CA"/>
<path d="M16.8621 228.405L9.22656 228.333V224.672L16.8621 224.716V228.405Z" fill="#5E84CA"/>
<path d="M26.3681 228.496L18.5859 228.423V224.727L26.3681 224.771V228.496Z" fill="#5E84CA"/>
<path d="M36.0581 228.588L28.125 228.513V224.781L36.0581 224.826V228.588Z" fill="#5E84CA"/>
<path d="M66.2956 228.867L57.8828 228.788V224.945L66.2956 224.993V228.867Z" fill="#5E84CA"/>
<path d="M76.7857 228.97L68.2031 228.889V225.008L76.7857 225.057V228.97Z" fill="#5E84CA"/>
<path d="M87.476 229.065L78.7188 228.982V225.062L87.476 225.113V229.065Z" fill="#5E84CA"/>
<path d="M7.53199 233.267L0.0390625 233.158V229.531L7.53199 229.612V233.267Z" fill="#5E84CA"/>
<path d="M26.3681 233.543L18.5859 233.43V229.734L26.3681 229.818V233.543Z" fill="#5E84CA"/>
<path d="M36.0581 233.682L28.125 233.568V229.836L36.0581 229.921V233.682Z" fill="#5E84CA"/>
<path d="M45.9398 233.823L37.8516 233.705V229.938L45.9398 230.025V233.823Z" fill="#5E84CA"/>
<path d="M56.0139 233.971L47.7656 233.852V230.047L56.0139 230.136V233.971Z" fill="#5E84CA"/>
<path d="M87.4763 234.422L78.7188 234.295V230.375L87.4763 230.469V234.422Z" fill="#5E84CA"/>
<path d="M7.53199 238.227L0.0390625 238.08V234.453L7.53199 234.571V238.227Z" fill="#5E84CA"/>
<path d="M16.8621 238.412L9.22656 238.263V234.602L16.8621 234.722V238.412Z" fill="#5E84CA"/>
<path d="M26.3681 238.598L18.5859 238.446V234.75L26.3681 234.873V238.598Z" fill="#5E84CA"/>
<path d="M36.0578 238.785L28.125 238.63V234.898L36.0578 235.024V238.785Z" fill="#5E84CA"/>
<path d="M56.0136 239.177L47.7656 239.016V235.211L56.0136 235.341V239.177Z" fill="#5E84CA"/>
<path d="M76.7778 239.579L68.1953 239.412V235.531L76.7778 235.667V239.579Z" fill="#5E84CA"/>
<path d="M26.3603 243.645L18.5781 243.454V239.758L26.3603 239.92V243.645Z" fill="#5E84CA"/>
<path d="M36.0581 243.88L28.125 243.685V239.953L36.0581 240.118V243.88Z" fill="#5E84CA"/>
<path d="M45.9398 244.123L37.8516 243.924V240.156L45.9398 240.325V244.123Z" fill="#5E84CA"/>
<path d="M66.2878 244.627L57.875 244.42V240.578L66.2878 240.753V244.627Z" fill="#5E84CA"/>
<path d="M76.7779 244.881L68.1953 244.67V240.789L76.7779 240.968V244.881Z" fill="#5E84CA"/>
<path d="M87.476 245.151L78.7188 244.936V241.016L87.476 241.198V245.151Z" fill="#5E84CA"/>
<path d="M7.52444 248.138L0.03125 247.916V244.289L7.52444 244.483V248.138Z" fill="#5E84CA"/>
<path d="M16.8543 248.411L9.21875 248.185V244.523L16.8543 244.721V248.411Z" fill="#5E84CA"/>
<path d="M26.3602 248.692L18.5781 248.462V244.766L26.3602 244.967V248.692Z" fill="#5E84CA"/>
<path d="M45.9322 249.273L37.8438 249.033V245.266L45.9322 245.475V249.273Z" fill="#5E84CA"/>
<path d="M56.0136 249.573L47.7656 249.328V245.523L56.0136 245.737V249.573Z" fill="#5E84CA"/>
<path d="M66.2878 249.881L57.875 249.632V245.789L66.2878 246.007V249.881Z" fill="#5E84CA"/>
<path d="M76.7776 250.19L68.1953 249.936V246.055L76.7776 246.277V250.19Z" fill="#5E84CA"/>
<path d="M87.476 250.507L78.7188 250.248V246.328L87.476 246.555V250.507Z" fill="#5E84CA"/>
<path d="M16.8543 253.418L9.21875 253.153V249.492L16.8543 249.728V253.418Z" fill="#5E84CA"/>
<path d="M36.0578 254.085L28.125 253.81V250.078L36.0578 250.324V254.085Z" fill="#5E84CA"/>
<path d="M45.9319 254.423L37.8438 254.143V250.375L45.9319 250.625V254.423Z" fill="#5E84CA"/>
<path d="M66.2878 255.134L57.875 254.842V251L66.2878 251.26V255.134Z" fill="#5E84CA"/>
<path d="M87.476 255.864L78.7188 255.561V251.641L87.476 251.912V255.864Z" fill="#5E84CA"/>
<path d="M7.52444 258.05L0.03125 257.752V254.125L7.52444 254.395V258.05Z" fill="#5E84CA"/>
<path d="M16.8463 258.418L9.21094 258.114V254.453L16.8463 254.728V258.418Z" fill="#5E84CA"/>
<path d="M26.3602 258.794L18.5781 258.485V254.789L26.3602 255.069V258.794Z" fill="#5E84CA"/>
<path d="M45.9319 259.573L37.8438 259.252V255.484L45.9319 255.775V259.573Z" fill="#5E84CA"/>
<path d="M56.0136 259.976L47.7656 259.648V255.844L56.0136 256.14V259.976Z" fill="#5E84CA"/>
<path d="M66.2878 260.38L57.875 260.045V256.203L66.2878 256.506V260.38Z" fill="#5E84CA"/>
<path d="M7.52417 263.001L0.03125 262.666V259.039L7.52417 259.347V263.001Z" fill="#5E84CA"/>
<path d="M16.8462 263.417L9.21094 263.075V259.414L16.8462 259.727V263.417Z" fill="#5E84CA"/>
<path d="M26.36 263.841L18.5781 263.493V259.797L26.36 260.116V263.841Z" fill="#5E84CA"/>
<path d="M36.0581 264.282L28.125 263.927V260.195L36.0581 260.521V264.282Z" fill="#5E84CA"/>
<path d="M45.9319 264.724L37.8438 264.362V260.594L45.9319 260.926V264.724Z" fill="#5E84CA"/>
<path d="M56.0136 265.174L47.7656 264.805V261L56.0136 261.338V265.174Z" fill="#5E84CA"/>
<path d="M76.7776 266.101L68.1953 265.717V261.836L76.7776 262.188V266.101Z" fill="#5E84CA"/>
<path d="M87.476 266.578L78.7188 266.186V262.266L87.476 262.625V266.578Z" fill="#5E84CA"/>
<path d="M7.51636 267.961L0.0234375 267.588V263.961L7.51636 264.306V267.961Z" fill="#5E84CA"/>
<path d="M16.8463 268.424L9.21094 268.044V264.383L16.8463 264.735V268.424Z" fill="#5E84CA"/>
<path d="M26.3524 268.896L18.5703 268.509V264.812L26.3524 265.171V268.896Z" fill="#5E84CA"/>
<path d="M36.0578 269.385L28.125 268.99V265.258L36.0578 265.623V269.385Z" fill="#5E84CA"/>
<path d="M56.0136 270.38L47.7656 269.969V266.164L56.0136 266.544V270.38Z" fill="#5E84CA"/>
<path d="M76.7697 271.41L68.1875 270.982V267.102L76.7697 267.497V271.41Z" fill="#5E84CA"/>
<path d="M87.476 271.942L78.7188 271.506V267.586L87.476 267.989V271.942Z" fill="#5E84CA"/>
<path d="M26.3524 273.951L18.5703 273.524V269.828L26.3524 270.226V273.951Z" fill="#5E84CA"/>
<path d="M66.2875 276.14L57.875 275.678V271.836L66.2875 272.266V276.14Z" fill="#5E84CA"/>
<path d="M87.4682 277.306L78.7109 276.826V272.906L87.4682 273.354V277.306Z" fill="#5E84CA"/>
<path d="M7.51635 277.873L0.0234375 277.424V273.797L7.51635 274.218V277.873Z" fill="#5E84CA"/>
<path d="M26.3522 278.998L18.5703 278.532V274.836L26.3522 275.273V278.998Z" fill="#5E84CA"/>
<path d="M36.05 279.582L28.1172 279.107V275.375L36.05 275.821V279.582Z" fill="#5E84CA"/>
<path d="M45.9319 280.174L37.8438 279.69V275.922L45.9319 276.376V280.174Z" fill="#5E84CA"/>
<path d="M56.0136 280.775L47.7656 280.281V276.477L56.0136 276.94V280.775Z" fill="#5E84CA"/>
<path d="M66.2878 281.393L57.875 280.889V277.047L66.2878 277.519V281.393Z" fill="#5E84CA"/>
<path d="M76.7698 282.02L68.1875 281.506V277.625L76.7698 278.107V282.02Z" fill="#5E84CA"/>
<path d="M7.51636 282.825L0.0234375 282.338V278.711L7.51636 279.17V282.825Z" fill="#5E84CA"/>
<path d="M16.8463 283.431L9.21094 282.935V279.273L16.8463 279.741V283.431Z" fill="#5E84CA"/>
<path d="M26.3522 284.045L18.5703 283.54V279.844L26.3522 280.32V284.045Z" fill="#5E84CA"/>
<path d="M36.05 284.676L28.1172 284.161V280.43L36.05 280.915V284.676Z" fill="#5E84CA"/>
<path d="M56.0136 285.973L47.7656 285.437V281.633L56.0136 282.138V285.973Z" fill="#5E84CA"/>
<path d="M66.2875 286.639L57.875 286.092V282.25L66.2875 282.765V286.639Z" fill="#5E84CA"/>
<path d="M76.7698 287.321L68.1875 286.764V282.883L76.7698 283.408V287.321Z" fill="#5E84CA"/>
<path d="M87.4679 288.02L78.7109 287.451V283.531L87.4679 284.067V288.02Z" fill="#5E84CA"/>
<path d="M7.51635 287.784L0.0234375 287.26V283.633L7.51635 284.129V287.784Z" fill="#5E84CA"/>
<path d="M45.9317 290.474L37.8438 289.909V286.141L45.9317 286.677V290.474Z" fill="#5E84CA"/>
<path d="M87.4682 293.376L78.7109 292.764V288.844L87.4682 289.424V293.376Z" fill="#5E84CA"/>
<path d="M16.8463 293.437L9.21094 292.864V289.203L16.8463 289.748V293.437Z" fill="#5E84CA"/>
<path d="M26.3524 294.147L18.5703 293.563V289.867L26.3524 290.422V294.147Z" fill="#5E84CA"/>
<path d="M36.05 294.881L28.1172 294.286V290.555L36.05 291.12V294.881Z" fill="#5E84CA"/>
<path d="M56.0058 296.377L47.7578 295.758V291.953L56.0058 292.541V296.377Z" fill="#5E84CA"/>
<path d="M66.2797 297.146L57.8672 296.514V292.672L66.2797 293.272V297.146Z" fill="#5E84CA"/>
<path d="M76.7698 297.931L68.1875 297.287V293.406L76.7698 294.018V297.931Z" fill="#5E84CA"/>
<path d="M7.51635 297.696L0.0234375 297.096V293.469L7.51635 294.041V297.696Z" fill="#5E84CA"/>
<path d="M16.8384 298.445L9.20312 297.833V294.172L16.8384 294.755V298.445Z" fill="#5E84CA"/>
<path d="M26.3522 299.202L18.5703 298.579V294.883L26.3522 295.477V299.202Z" fill="#5E84CA"/>
<path d="M36.0422 299.984L28.1094 299.349V295.617L36.0422 296.223V299.984Z" fill="#5E84CA"/>
<path d="M45.9317 300.775L37.8438 300.127V296.359L45.9317 296.977V300.775Z" fill="#5E84CA"/>
<path d="M56.0058 301.582L47.7578 300.922V297.117L56.0058 297.747V301.582Z" fill="#5E84CA"/>
<path d="M66.2797 302.399L57.8672 301.725V297.883L66.2797 298.525V302.399Z" fill="#5E84CA"/>
<path d="M76.7698 303.24L68.1875 302.553V298.672L76.7698 299.327V303.24Z" fill="#5E84CA"/>
<path d="M87.4601 304.098L78.7031 303.397V299.477L87.4601 300.145V304.098Z" fill="#5E84CA"/>
<path d="M16.8384 303.444L9.20312 302.794V299.133L16.8384 299.754V303.444Z" fill="#5E84CA"/>
<path d="M45.9319 305.917L37.8438 305.229V301.461L45.9319 302.12V305.917Z" fill="#5E84CA"/>
<path d="M66.28 307.652L57.8672 306.936V303.094L66.28 303.779V307.652Z" fill="#5E84CA"/>
<path d="M87.4601 309.454L78.7031 308.709V304.789L87.4601 305.502V309.454Z" fill="#5E84CA"/>
<path d="M7.50828 307.607L0.015625 306.932V303.305L7.50828 303.952V307.607Z" fill="#5E84CA"/>
<path d="M16.8382 308.451L9.20312 307.763V304.102L16.8382 304.762V308.451Z" fill="#5E84CA"/>
<path d="M26.3443 309.304L18.5625 308.602V304.906L26.3443 305.579V309.304Z" fill="#5E84CA"/>
<path d="M36.0419 310.181L28.1094 309.466V305.734L36.0419 306.42V310.181Z" fill="#5E84CA"/>
<path d="M45.9317 311.068L37.8438 310.338V306.57L45.9317 307.27V311.068Z" fill="#5E84CA"/>
<path d="M56.0055 311.978L47.7578 311.234V307.43L56.0055 308.143V311.978Z" fill="#5E84CA"/>
<path d="M76.7698 313.85L68.1875 313.076V309.195L76.7698 309.937V313.85Z" fill="#5E84CA"/>
<path d="M7.50826 312.559L0.015625 311.846V308.219L7.50826 308.904V312.559Z" fill="#5E84CA"/>
<path d="M26.3443 314.351L18.5625 313.61V309.914L26.3443 310.626V314.351Z" fill="#5E84CA"/>
<path d="M56.0058 317.176L47.7578 316.391V312.586L56.0058 313.34V317.176Z" fill="#5E84CA"/>
<path d="M66.2797 318.151L57.8672 317.35V313.508L66.2797 314.278V318.151Z" fill="#5E84CA"/>
<path d="M76.7698 319.151L68.1875 318.334V314.453L76.7698 315.239V319.151Z" fill="#5E84CA"/>
<path d="M87.4601 320.176L78.7031 319.342V315.422L87.4601 316.223V320.176Z" fill="#5E84CA"/>
<path d="M16.8384 318.45L9.20312 317.685V314.023L16.8384 314.761V318.45Z" fill="#5E84CA"/>
<path d="M26.3443 319.406L18.5625 318.626V314.93L26.3443 315.681V319.406Z" fill="#5E84CA"/>
<path d="M36.0344 320.378L28.1016 319.583V315.852L36.0344 316.617V320.378Z" fill="#5E84CA"/>
<path d="M68.1797 323.599V319.719L76.7617 320.547V324.46" fill="#5E84CA"/>
<path d="M7.50826 322.471L0.015625 321.682V318.055L7.50826 318.816V322.471Z" fill="#5E84CA"/>
<path d="M16.8384 323.45L9.20312 322.646V318.984L16.8384 319.76V323.45Z" fill="#5E84CA"/>
<path d="M36.0341 325.473L28.1016 324.638V320.906L36.0341 321.712V325.473Z" fill="#5E84CA"/>
<path d="M45.9238 326.518L37.8359 325.666V321.898L45.9238 322.72V326.518Z" fill="#5E84CA"/>
<path d="M55.9977 327.58L47.75 326.711V322.906L55.9977 323.744V327.58Z" fill="#5E84CA"/>
<path d="M76.7619 329.761L68.1797 328.857V324.977L76.7619 325.848V329.761Z" fill="#5E84CA"/>
<path d="M87.4523 330.889L78.6953 329.967V326.047L87.4523 326.937V330.889Z" fill="#5E84CA"/>
<path d="M7.50828 327.43L0.015625 326.603V322.977L7.50828 323.776V327.43Z" fill="#5E84CA"/>
<path d="M36.0344 330.576L28.1016 329.7V325.969L36.0344 326.815V330.576Z" fill="#5E84CA"/>
<path d="M45.916 331.668L37.8281 330.776V327.008L45.916 327.87V331.668Z" fill="#5E84CA"/>
<path d="M16.8384 333.464L9.20312 332.583V328.922L16.8384 329.775V333.464Z" fill="#5E84CA"/>
<path d="M36.0341 335.678L28.1016 334.763V331.031L36.0341 331.917V335.678Z" fill="#5E84CA"/>
<path d="M55.9977 337.983L47.75 337.031V333.227L55.9977 334.148V337.983Z" fill="#5E84CA"/>
<path d="M66.2719 339.172L57.8594 338.202V334.359L66.2719 335.299V339.172Z" fill="#5E84CA"/>
<path d="M76.7617 340.379L68.1797 339.389V335.508L76.7617 336.466V340.379Z" fill="#5E84CA"/>
<path d="M87.452 341.618L78.6953 340.607V336.688L87.452 337.665V341.618Z" fill="#5E84CA"/>
<path d="M7.50855 337.342L0.015625 336.44V332.812L7.50855 333.687V337.342Z" fill="#5E84CA"/>
<path d="M45.916 341.968L37.8281 340.994V337.227L45.916 338.171V341.968Z" fill="#5E84CA"/>
<path d="M76.7538 345.68L68.1719 344.646V340.766L76.7538 341.768V345.68Z" fill="#5E84CA"/>
<path d="M87.452 346.975L78.6953 345.92V342L87.452 343.022V346.975Z" fill="#5E84CA"/>
<path d="M7.50855 342.294L0.015625 341.354V337.727L7.50855 338.639V342.294Z" fill="#5E84CA"/>
<path d="M26.3443 344.657L18.5625 343.68V339.984L26.3443 340.932V344.657Z" fill="#5E84CA"/>
<path d="M36.0263 345.876L28.0938 344.88V341.148L36.0263 342.114V345.876Z" fill="#5E84CA"/>
<path d="M55.9899 348.379L47.7422 347.344V343.539L55.9899 344.544V348.379Z" fill="#5E84CA"/>
<path d="M66.2641 349.671L57.8516 348.616V344.773L66.2641 345.798V349.671Z" fill="#5E84CA"/>
<path d="M26.3365 349.712L18.5547 348.696V345L26.3365 345.987V349.712Z" fill="#5E84CA"/>
<path d="M45.9082 352.269L37.8203 351.213V347.445L45.9082 348.471V352.269Z" fill="#5E84CA"/>
<path d="M55.9899 353.585L47.7422 352.508V348.703L55.9899 349.749V353.585Z" fill="#5E84CA"/>
<path d="M45.9079 357.419L37.8203 356.323V352.555L45.9079 353.621V357.419Z" fill="#5E84CA"/>
<path d="M66.2638 360.178L57.8516 359.038V355.195L66.2638 356.305V360.178Z" fill="#5E84CA"/>
<path d="M76.7461 361.599L68.1641 360.435V356.555L76.7461 357.686V361.599Z" fill="#5E84CA"/>
<path d="M87.452 363.052L78.6953 361.865V357.945L87.452 359.1V363.052Z" fill="#5E84CA"/>
<path d="M26.3363 359.814L18.5547 358.72V355.023L26.3363 356.089V359.814Z" fill="#5E84CA"/>
<path d="M76.746 366.908L68.1641 365.701V361.82L76.746 362.995V366.908Z" fill="#5E84CA"/>
<path d="M7.50828 362.117L0.015625 361.025V357.398L7.50828 358.462V362.117Z" fill="#5E84CA"/>
<path d="M26.3363 364.861L18.5547 363.727V360.031L26.3363 361.136V364.861Z" fill="#5E84CA"/>
<path d="M36.0263 366.27L28.0938 365.114V361.383L36.0263 362.509V366.27Z" fill="#5E84CA"/>
<path d="M55.9821 369.178L47.7344 367.977V364.172L55.9821 365.343V369.178Z" fill="#5E84CA"/>
<path d="M66.2638 370.677L57.8516 369.452V365.609L66.2638 366.804V370.677Z" fill="#5E84CA"/>
<path d="M87.452 373.766L78.6953 372.49V368.57L87.452 369.814V373.766Z" fill="#5E84CA"/>
<path d="M7.50045 367.077L0.0078125 365.947V362.32L7.50045 363.422V367.077Z" fill="#5E84CA"/>
<path d="M55.9821 374.384L47.7344 373.141V369.336L55.9821 370.548V374.384Z" fill="#5E84CA"/>
<path d="M76.746 377.518L68.1641 376.224V372.344L76.746 373.605V377.518Z" fill="#5E84CA"/>
<path d="M87.4442 379.13L78.6875 377.811V373.891L87.4442 375.178V379.13Z" fill="#5E84CA"/>
<path d="M16.8225 373.483L9.1875 372.294V368.633L16.8225 369.794V373.483Z" fill="#5E84CA"/>
<path d="M36.0263 376.475L28.0938 375.239V371.508L36.0263 372.714V376.475Z" fill="#5E84CA"/>
<path d="M45.9001 378.012L37.8125 376.752V372.984L45.9001 374.214V378.012Z" fill="#5E84CA"/>
<path d="M7.50045 376.988L0.0078125 375.783V372.156L7.50045 373.334V376.988Z" fill="#5E84CA"/>
<path d="M55.9821 384.787L47.7344 383.461V379.656L55.9821 380.952V384.787Z" fill="#5E84CA"/>
<path d="M66.2638 386.437L57.8516 385.084V381.242L66.2638 382.564V386.437Z" fill="#5E84CA"/>
<path d="M87.4442 389.844L78.6875 388.436V384.516L87.4442 385.891V389.844Z" fill="#5E84CA"/>
<path d="M26.3284 385.065L18.5469 383.774V380.078L26.3284 381.34V385.065Z" fill="#5E84CA"/>
<path d="M36.0263 386.672L28.0938 385.357V381.625L36.0263 382.911V386.672Z" fill="#5E84CA"/>
<path d="M7.49237 386.9L0 385.619V381.992L7.49237 383.245V386.9Z" fill="#5E84CA"/>
<path d="M76.738 398.738L68.1562 397.271V393.391L76.738 394.826V398.738Z" fill="#5E84CA"/>
<path d="M16.8225 393.497L9.1875 392.153V388.492L16.8225 389.807V393.497Z" fill="#5E84CA"/>
<path d="M36.026 396.877L28.0938 395.481V391.75L36.026 393.116V396.877Z" fill="#5E84CA"/>
<path d="M55.9818 400.389L47.7344 398.937V395.133L55.9818 396.553V400.389Z" fill="#5E84CA"/>
<path d="M87.4442 405.922L78.6875 404.381V400.461L87.4442 401.969V405.922Z" fill="#5E84CA"/>
<path d="M76.738 409.348L68.1562 407.795V403.914L76.738 405.436V409.348Z" fill="#5E84CA"/>
<path d="M55.9818 410.784L47.7344 409.25V405.445L55.9818 406.949V410.784Z" fill="#5E84CA"/>
<path d="M16.8225 408.503L9.1875 407.044V403.383L16.8225 404.813V408.503Z" fill="#5E84CA"/>
<path d="M26.3282 410.324L18.5469 408.837V405.141L26.3282 406.599V410.324Z" fill="#5E84CA"/>
<path d="M76.738 419.95L68.1562 418.31V414.43L76.738 416.038V419.95Z" fill="#5E84CA"/>
<path d="M87.4361 421.999L78.6797 420.326V416.406L87.4361 418.047V421.999Z" fill="#5E84CA"/>
<path d="M168.969 20.1473L176.463 21.6649V18.0377L168.969 16.4922V20.1473Z" fill="#5E84CA"/>
<path d="M159.633 18.2602L167.269 19.8066V16.1451L159.633 14.5703V18.2602Z" fill="#5E84CA"/>
<path d="M150.133 16.3347L157.915 17.9109V14.2146L150.133 12.6094V16.3347Z" fill="#5E84CA"/>
<path d="M140.438 14.3706L148.371 15.9775V12.2456L140.438 10.6094V14.3706Z" fill="#5E84CA"/>
<path d="M130.547 12.3686L138.636 14.0068V10.2386L130.547 8.57031V12.3686Z" fill="#5E84CA"/>
<path d="M120.469 10.3278L128.718 11.9986V8.19365L120.469 6.49219V10.3278Z" fill="#5E84CA"/>
<path d="M110.195 8.24096L118.609 9.9452V6.10265L110.195 4.36719V8.24096Z" fill="#5E84CA"/>
<path d="M99.7031 6.11588L108.286 7.8544V3.97315L99.7031 2.20312V6.11588Z" fill="#5E84CA"/>
<path d="M89.0078 3.95258L97.7659 5.72648V1.80626L89.0078 0V3.95258Z" fill="#5E84CA"/>
<path d="M168.969 25.1004L176.463 26.5804V22.953L168.969 21.4453V25.1004Z" fill="#5E84CA"/>
<path d="M159.641 23.2602L167.277 24.7682V21.1067L159.641 19.5703V23.2602Z" fill="#5E84CA"/>
<path d="M150.133 21.3816L157.916 22.9185V19.2222L150.133 17.6562V21.3816Z" fill="#5E84CA"/>
<path d="M140.438 19.4644L148.371 21.0312V17.2993L140.438 15.7031V19.4644Z" fill="#5E84CA"/>
<path d="M130.555 17.5168L138.644 19.1143V15.3461L130.555 13.7188V17.5168Z" fill="#5E84CA"/>
<path d="M120.477 15.5231L128.726 17.1522V13.3472L120.477 11.6875V15.5231Z" fill="#5E84CA"/>
<path d="M110.195 13.499L118.609 15.1604V11.3179L110.195 9.625V13.499Z" fill="#5E84CA"/>
<path d="M99.7109 11.4287L108.294 13.1235V9.24254L99.7109 7.51562V11.4287Z" fill="#5E84CA"/>
<path d="M89.0078 9.31223L97.7659 11.0419V7.12167L89.0078 5.35938V9.31223Z" fill="#5E84CA"/>
<path d="M168.969 30.0613L176.463 31.5035V27.8763L168.969 26.4062V30.0613Z" fill="#5E84CA"/>
<path d="M159.641 28.2599L167.277 29.7294V26.068L159.641 24.5703V28.2599Z" fill="#5E84CA"/>
<path d="M150.133 26.4362L157.916 27.9339V24.2377L150.133 22.7109V26.4362Z" fill="#5E84CA"/>
<path d="M140.438 24.5659L148.371 26.0927V22.361L140.438 20.8047V24.5659Z" fill="#5E84CA"/>
<path d="M130.555 22.6655L138.644 24.2221V20.4539L130.555 18.8672V22.6655Z" fill="#5E84CA"/>
<path d="M120.477 20.7262L128.725 22.3135V18.5086L120.477 16.8906V20.7262Z" fill="#5E84CA"/>
<path d="M110.195 18.749L118.609 20.3681V16.5253L110.195 14.875V18.749Z" fill="#5E84CA"/>
<path d="M89.0078 14.6716L97.7659 16.357V12.4368L89.0078 10.7188V14.6716Z" fill="#5E84CA"/>
<path d="M168.969 35.0145L176.463 36.4187V32.7915L168.969 31.3594V35.0145Z" fill="#5E84CA"/>
<path d="M159.641 33.268L167.277 34.6988V31.0374L159.641 29.5781V33.268Z" fill="#5E84CA"/>
<path d="M150.133 31.4831L157.916 32.9416V29.2453L150.133 27.7578V31.4831Z" fill="#5E84CA"/>
<path d="M140.438 29.6675L148.371 31.1541V27.4225L140.438 25.9062V29.6675Z" fill="#5E84CA"/>
<path d="M130.555 27.8136L138.644 29.3293V25.5614L130.555 24.0156V27.8136Z" fill="#5E84CA"/>
<path d="M120.477 25.9294L128.726 27.4752V23.6703L120.477 22.0938V25.9294Z" fill="#5E84CA"/>
<path d="M110.195 23.999L118.609 25.5756V21.733L110.195 20.125V23.999Z" fill="#5E84CA"/>
<path d="M99.7109 22.038L108.294 23.6463V19.7654L99.7109 18.125V22.038Z" fill="#5E84CA"/>
<path d="M89.0156 20.031L97.774 21.6722V17.7519L89.0156 16.0781V20.031Z" fill="#5E84CA"/>
<path d="M168.969 39.9676L176.463 41.3342V37.7068L168.969 36.3125V39.9676Z" fill="#5E84CA"/>
<path d="M159.641 38.268L167.277 39.6604V35.999L159.641 34.5781V38.268Z" fill="#5E84CA"/>
<path d="M150.133 36.5378L157.915 37.957V34.2607L150.133 32.8125V36.5378Z" fill="#5E84CA"/>
<path d="M140.438 34.7691L148.371 36.2156V32.484L140.438 31.0078V34.7691Z" fill="#5E84CA"/>
<path d="M120.477 31.1247L128.725 32.6287V28.8238L120.477 27.2891V31.1247Z" fill="#5E84CA"/>
<path d="M110.195 29.2569L118.609 30.7908V26.9482L110.195 25.3828V29.2569Z" fill="#5E84CA"/>
<path d="M99.7109 27.3427L108.294 28.9076V25.0269L99.7109 23.4297V27.3427Z" fill="#5E84CA"/>
<path d="M89.0156 25.3901L97.7737 26.987V23.0671L89.0156 21.4375V25.3901Z" fill="#5E84CA"/>
<path d="M168.977 44.9288L176.47 46.2573V42.6301L168.977 41.2734V44.9288Z" fill="#5E84CA"/>
<path d="M159.641 43.268L167.277 44.6217V40.9603L159.641 39.5781V43.268Z" fill="#5E84CA"/>
<path d="M140.438 39.8706L148.371 41.2771V37.5454L140.438 36.1094V39.8706Z" fill="#5E84CA"/>
<path d="M130.555 38.1186L138.644 39.5527V35.7845L130.555 34.3203V38.1186Z" fill="#5E84CA"/>
<path d="M120.484 36.3278L128.733 37.7904V33.9855L120.484 32.4922V36.3278Z" fill="#5E84CA"/>
<path d="M110.203 34.5066L118.617 35.9985V32.1559L110.203 30.6328V34.5066Z" fill="#5E84CA"/>
<path d="M99.7188 32.6471L108.302 34.1689V30.2879L99.7188 28.7344V32.6471Z" fill="#5E84CA"/>
<path d="M89.0156 30.7497L97.7737 32.3025V28.3822L89.0156 26.7969V30.7497Z" fill="#5E84CA"/>
<path d="M168.977 49.8895L176.47 51.1803V47.5532L168.977 46.2344V49.8895Z" fill="#5E84CA"/>
<path d="M159.648 48.2837L167.285 49.5989V45.9375L159.648 44.5938V48.2837Z" fill="#5E84CA"/>
<path d="M150.133 46.6472L157.916 47.9876V44.2913L150.133 42.9219V46.6472Z" fill="#5E84CA"/>
<path d="M140.438 44.9725L148.371 46.3388V42.6072L140.438 41.2109V44.9725Z" fill="#5E84CA"/>
<path d="M130.555 43.2746L138.644 44.6678V40.8999L130.555 39.4766V43.2746Z" fill="#5E84CA"/>
<path d="M120.484 41.5387L128.733 42.9596V39.1547L120.484 37.7031V41.5387Z" fill="#5E84CA"/>
<path d="M110.203 39.7644L118.617 41.2137V37.3712L110.203 35.8906V39.7644Z" fill="#5E84CA"/>
<path d="M89.0156 36.1169L97.7737 37.6254V33.7052L89.0156 32.1641V36.1169Z" fill="#5E84CA"/>
<path d="M168.977 54.8426L176.47 56.0956V52.4684L168.977 51.1875V54.8426Z" fill="#5E84CA"/>
<path d="M159.648 53.2837L167.285 54.5605V50.899L159.648 49.5938V53.2837Z" fill="#5E84CA"/>
<path d="M150.133 51.6938L157.915 52.9952V49.2989L150.133 47.9688V51.6938Z" fill="#5E84CA"/>
<path d="M140.438 50.074L148.371 51.4003V47.6686L140.438 46.3125V50.074Z" fill="#5E84CA"/>
<path d="M130.555 48.423L138.643 49.7756V46.0074L130.555 44.625V48.423Z" fill="#5E84CA"/>
<path d="M120.484 46.7341L128.733 48.1134V44.3085L120.484 42.8984V46.7341Z" fill="#5E84CA"/>
<path d="M110.203 45.0222L118.617 46.429V42.5864L110.203 41.1484V45.0222Z" fill="#5E84CA"/>
<path d="M99.7188 43.2646L108.302 44.6995V40.8186L99.7188 39.3516V43.2646Z" fill="#5E84CA"/>
<path d="M89.0156 41.4763L97.7737 42.9408V39.0206L89.0156 37.5234V41.4763Z" fill="#5E84CA"/>
<path d="M168.977 59.8035L176.47 61.0187V57.3915L168.977 56.1484V59.8035Z" fill="#5E84CA"/>
<path d="M159.648 58.2912L167.285 59.5296V55.8681L159.648 54.6016V58.2912Z" fill="#5E84CA"/>
<path d="M150.133 56.7485L157.915 58.0106V54.3143L150.133 53.0234V56.7485Z" fill="#5E84CA"/>
<path d="M140.445 55.1753L148.379 56.4618V52.7301L140.445 51.4141V55.1753Z" fill="#5E84CA"/>
<path d="M120.484 51.9369L128.733 53.2745V49.4696L120.484 48.1016V51.9369Z" fill="#5E84CA"/>
<path d="M110.203 50.2725L118.617 51.6367V47.7941L110.203 46.3984V50.2725Z" fill="#5E84CA"/>
<path d="M99.7188 48.5693L108.302 49.9611V46.0801L99.7188 44.6562V48.5693Z" fill="#5E84CA"/>
<path d="M89.0156 46.8354L97.7737 48.2557V44.3354L89.0156 42.8828V46.8354Z" fill="#5E84CA"/>
<path d="M168.977 64.7567L176.47 65.9339V62.3067L168.977 61.1016V64.7567Z" fill="#5E84CA"/>
<path d="M159.648 63.2912L167.284 64.4911V60.8297L159.648 59.6016V63.2912Z" fill="#5E84CA"/>
<path d="M150.133 61.7956L157.915 63.0182V59.3222L150.133 58.0703V61.7956Z" fill="#5E84CA"/>
<path d="M140.445 60.2769L148.379 61.5233V57.7916L140.445 56.5156V60.2769Z" fill="#5E84CA"/>
<path d="M130.562 58.7199L138.651 59.9909V56.2227L130.562 54.9219V58.7199Z" fill="#5E84CA"/>
<path d="M120.484 57.1403L128.733 58.4362V54.6312L120.484 53.3047V57.1403Z" fill="#5E84CA"/>
<path d="M110.203 55.5225L118.617 56.8441V53.0015L110.203 51.6484V55.5225Z" fill="#5E84CA"/>
<path d="M99.7188 53.874L108.302 55.2224V51.3414L99.7188 49.9609V53.874Z" fill="#5E84CA"/>
<path d="M89.0234 52.195L97.7815 53.5711V49.6509L89.0234 48.2422V52.195Z" fill="#5E84CA"/>
<path d="M168.977 69.7098L176.47 70.8492V67.222L168.977 66.0547V69.7098Z" fill="#5E84CA"/>
<path d="M150.133 66.8503L157.916 68.0337V64.3374L150.133 63.125V66.8503Z" fill="#5E84CA"/>
<path d="M140.445 65.3709L148.379 66.5772V62.8455L140.445 61.6094V65.3709Z" fill="#5E84CA"/>
<path d="M130.562 63.8683L138.652 65.0984V61.3305L130.562 60.0703V63.8683Z" fill="#5E84CA"/>
<path d="M120.484 62.3354L128.733 63.5897V59.7848L120.484 58.5V62.3354Z" fill="#5E84CA"/>
<path d="M110.203 60.7722L118.616 62.0515V58.209L110.203 56.8984V60.7722Z" fill="#5E84CA"/>
<path d="M99.7188 59.1787L108.302 60.4839V56.603L99.7188 55.2656V59.1787Z" fill="#5E84CA"/>
<path d="M89.0234 57.5541L97.7815 58.886V54.966L89.0234 53.6016V57.5541Z" fill="#5E84CA"/>
<path d="M168.977 74.6707L176.47 75.7722V72.1451L168.977 71.0156V74.6707Z" fill="#5E84CA"/>
<path d="M159.648 73.2993L167.285 74.4218V70.7604L159.648 69.6094V73.2993Z" fill="#5E84CA"/>
<path d="M150.141 71.8969L157.923 73.0413V69.345L150.141 68.1719V71.8969Z" fill="#5E84CA"/>
<path d="M140.445 70.4722L148.379 71.6387V67.9067L140.445 66.7109V70.4722Z" fill="#5E84CA"/>
<path d="M130.57 69.0246L138.659 70.2137V66.4458L130.57 65.2266V69.0246Z" fill="#5E84CA"/>
<path d="M120.492 67.5385L128.741 68.7514V64.9465L120.492 63.7031V67.5385Z" fill="#5E84CA"/>
<path d="M110.211 66.0303L118.625 67.267V63.4245L110.211 62.1562V66.0303Z" fill="#5E84CA"/>
<path d="M89.0234 62.9138L97.7815 64.2014V60.2811L89.0234 58.9609V62.9138Z" fill="#5E84CA"/>
<path d="M168.977 79.6241L176.47 80.6878V77.0606L168.977 75.9688V79.6241Z" fill="#5E84CA"/>
<path d="M159.648 78.2993L167.285 79.3834V75.7219L159.648 74.6094V78.2993Z" fill="#5E84CA"/>
<path d="M150.141 76.9519L157.923 78.0567V74.3604L150.141 73.2266V76.9519Z" fill="#5E84CA"/>
<path d="M140.445 75.5738L148.379 76.6999V72.9682L140.445 71.8125V75.5738Z" fill="#5E84CA"/>
<path d="M130.57 74.173L138.659 75.3215V71.5534L130.57 70.375V74.173Z" fill="#5E84CA"/>
<path d="M120.492 72.7416L128.741 73.9128V70.1078L120.492 68.9062V72.7416Z" fill="#5E84CA"/>
<path d="M110.211 71.28L118.624 72.4744V68.6319L110.211 67.4062V71.28Z" fill="#5E84CA"/>
<path d="M99.7188 69.7956L108.302 71.014V67.1331L99.7188 65.8828V69.7956Z" fill="#5E84CA"/>
<path d="M89.0234 68.2729L97.7813 69.5162V65.596L89.0234 64.3203V68.2729Z" fill="#5E84CA"/>
<path d="M168.984 84.577L176.478 85.603V81.9758L168.984 80.9219V84.577Z" fill="#5E84CA"/>
<path d="M159.656 83.2993L167.292 84.3447V80.6832L159.656 79.6094V83.2993Z" fill="#5E84CA"/>
<path d="M150.141 81.9987L157.923 83.0643V79.368L150.141 78.2734V81.9987Z" fill="#5E84CA"/>
<path d="M140.445 80.6753L148.379 81.7616V78.0299L140.445 76.9141V80.6753Z" fill="#5E84CA"/>
<path d="M130.57 79.3214L138.659 80.429V76.6612L130.57 75.5234V79.3214Z" fill="#5E84CA"/>
<path d="M120.492 77.9372L128.741 79.0666V75.2617L120.492 74.1016V77.9372Z" fill="#5E84CA"/>
<path d="M110.211 76.53L118.625 77.6818V73.8393L110.211 72.6562V76.53Z" fill="#5E84CA"/>
<path d="M99.7266 75.1005L108.31 76.2759V72.3949L99.7266 71.1875V75.1005Z" fill="#5E84CA"/>
<path d="M89.0312 73.6323L97.7894 74.8314V70.9114L89.0312 69.6797V73.6323Z" fill="#5E84CA"/>
<path d="M168.984 89.5379L176.478 90.5261V86.8989L168.984 85.8828V89.5379Z" fill="#5E84CA"/>
<path d="M159.656 88.3071L167.292 89.3141V85.6526L159.656 84.6172V88.3071Z" fill="#5E84CA"/>
<path d="M150.141 87.0534L157.923 88.0797V84.3835L150.141 83.3281V87.0534Z" fill="#5E84CA"/>
<path d="M140.453 85.7769L148.387 86.8231V83.0914L140.453 82.0156V85.7769Z" fill="#5E84CA"/>
<path d="M130.578 84.4699L138.667 85.5366V81.7687L130.578 80.6719V84.4699Z" fill="#5E84CA"/>
<path d="M120.492 83.1403L128.741 84.2283V80.4233L120.492 79.3047V83.1403Z" fill="#5E84CA"/>
<path d="M110.211 81.7878L118.625 82.8974V79.0548L110.211 77.9141V81.7878Z" fill="#5E84CA"/>
<path d="M99.7266 80.4052L108.31 81.5371V77.6562L99.7266 76.4922V80.4052Z" fill="#5E84CA"/>
<path d="M89.0312 78.9916L97.7894 80.1468V76.2265L89.0312 75.0391V78.9916Z" fill="#5E84CA"/>
<path d="M168.984 94.4913L176.478 95.4416V91.8144L168.984 90.8359V94.4913Z" fill="#5E84CA"/>
<path d="M159.656 93.3071L167.292 94.2754V90.6142L159.656 89.6172V93.3071Z" fill="#5E84CA"/>
<path d="M150.141 92.1003L157.923 93.0874V89.3911L150.141 88.375V92.1003Z" fill="#5E84CA"/>
<path d="M130.578 89.6183L138.667 90.6441V86.8762L130.578 85.8203V89.6183Z" fill="#5E84CA"/>
<path d="M120.492 88.3435L128.741 89.3896V85.5847L120.492 84.5078V88.3435Z" fill="#5E84CA"/>
<path d="M99.7266 85.7099L108.31 86.7984V82.9175L99.7266 81.7969V85.7099Z" fill="#5E84CA"/>
<path d="M89.0312 84.3513L97.7891 85.4619V81.542L89.0312 80.3984V84.3513Z" fill="#5E84CA"/>
<path d="M168.984 99.4441L176.478 100.357V96.7294L168.984 95.7891V99.4441Z" fill="#5E84CA"/>
<path d="M159.656 98.3146L167.292 99.2447V95.5833L159.656 94.625V98.3146Z" fill="#5E84CA"/>
<path d="M150.148 97.155L157.931 98.1028V94.4065L150.148 93.4297V97.155Z" fill="#5E84CA"/>
<path d="M140.453 95.9722L148.387 96.9382V93.2065L140.453 92.2109V95.9722Z" fill="#5E84CA"/>
<path d="M130.578 94.7671L138.667 95.7522V91.984L130.578 90.9688V94.7671Z" fill="#5E84CA"/>
<path d="M120.492 93.5388L128.741 94.5432V90.7383L120.492 89.7031V93.5388Z" fill="#5E84CA"/>
<path d="M110.211 92.2878L118.625 93.3125V89.4699L110.211 88.4141V92.2878Z" fill="#5E84CA"/>
<path d="M89.0312 89.7107L97.7891 90.777V86.8571L89.0312 85.7578V89.7107Z" fill="#5E84CA"/>
<path d="M168.984 104.405L176.478 105.28V101.653L168.984 100.75V104.405Z" fill="#5E84CA"/>
<path d="M159.656 103.315L167.292 104.206V100.545L159.656 99.625V103.315Z" fill="#5E84CA"/>
<path d="M150.148 102.202L157.931 103.11V99.4141L150.148 98.4766V102.202Z" fill="#5E84CA"/>
<path d="M130.578 99.923L138.667 100.867V97.0993L130.578 96.125V99.923Z" fill="#5E84CA"/>
<path d="M120.492 98.7416L128.741 99.7046V95.8997L120.492 94.9062V98.7416Z" fill="#5E84CA"/>
<path d="M110.211 97.5457L118.624 98.528V94.6855L110.211 93.6719V97.5457Z" fill="#5E84CA"/>
<path d="M99.7344 96.319L108.317 97.321V93.44L99.7344 92.4062V96.319Z" fill="#5E84CA"/>
<path d="M89.0312 95.07L97.7891 96.0922V92.1722L89.0312 91.1172V95.07Z" fill="#5E84CA"/>
<path d="M168.984 109.358L176.478 110.195V106.568L168.984 105.703V109.358Z" fill="#5E84CA"/>
<path d="M150.148 107.257L157.931 108.126V104.43L150.148 103.531V107.257Z" fill="#5E84CA"/>
<path d="M140.461 106.175L148.394 107.061V103.33L140.461 102.414V106.175Z" fill="#5E84CA"/>
<path d="M130.578 105.071L138.667 105.975V102.207L130.578 101.273V105.071Z" fill="#5E84CA"/>
<path d="M120.492 103.945L128.741 104.866V101.061L120.492 100.109V103.945Z" fill="#5E84CA"/>
<path d="M110.219 102.796L118.632 103.735V99.8926L110.219 98.9219V102.796Z" fill="#5E84CA"/>
<path d="M99.7344 101.624L108.317 102.582V98.7013L99.7344 97.7109V101.624Z" fill="#5E84CA"/>
<path d="M89.0312 100.429L97.7891 101.408V97.4874L89.0312 96.4766V100.429Z" fill="#5E84CA"/>
<path d="M168.992 114.319L176.486 115.118V111.491L168.992 110.664V114.319Z" fill="#5E84CA"/>
<path d="M159.656 113.323L167.292 114.137V110.476L159.656 109.633V113.323Z" fill="#5E84CA"/>
<path d="M150.156 112.303L157.939 113.133V109.437L150.156 108.578V112.303Z" fill="#5E84CA"/>
<path d="M140.461 111.269L148.394 112.115V108.383L140.461 107.508V111.269Z" fill="#5E84CA"/>
<path d="M130.578 110.22L138.667 111.083V107.314L130.578 106.422V110.22Z" fill="#5E84CA"/>
<path d="M120.492 109.148L128.741 110.028V106.223L120.492 105.312V109.148Z" fill="#5E84CA"/>
<path d="M110.219 108.046L118.632 108.943V105.1L110.219 104.172V108.046Z" fill="#5E84CA"/>
<path d="M99.7344 106.928L108.317 107.844V103.963L99.7344 103.016V106.928Z" fill="#5E84CA"/>
<path d="M89.0312 105.789L97.7891 106.723V102.803L89.0312 101.836V105.789Z" fill="#5E84CA"/>
<path d="M168.992 119.272L176.486 120.033V116.406L168.992 115.617V119.272Z" fill="#5E84CA"/>
<path d="M159.656 118.323L167.292 119.098V115.437L159.656 114.633V118.323Z" fill="#5E84CA"/>
<path d="M150.156 117.358L157.939 118.149V114.452L150.156 113.633V117.358Z" fill="#5E84CA"/>
<path d="M140.461 116.371L148.394 117.177V113.445L140.461 112.609V116.371Z" fill="#5E84CA"/>
<path d="M130.578 115.368L138.667 116.19V112.422L130.578 111.57V115.368Z" fill="#5E84CA"/>
<path d="M120.492 114.343L128.741 115.181V111.377L120.492 110.508V114.343Z" fill="#5E84CA"/>
<path d="M110.219 113.303L118.632 114.158V110.316L110.219 109.43V113.303Z" fill="#5E84CA"/>
<path d="M99.7344 112.233L108.317 113.105V109.224L99.7344 108.32V112.233Z" fill="#5E84CA"/>
<path d="M89.0312 111.148L97.7891 112.038V108.118L89.0312 107.195V111.148Z" fill="#5E84CA"/>
<path d="M168.992 124.233L176.486 124.957V121.33L168.992 120.578V124.233Z" fill="#5E84CA"/>
<path d="M159.664 123.33L167.3 124.068V120.406L159.664 119.641V123.33Z" fill="#5E84CA"/>
<path d="M150.156 122.413L157.939 123.164V119.468L150.156 118.688V122.413Z" fill="#5E84CA"/>
<path d="M140.461 121.48L148.394 122.246V118.514L140.461 117.719V121.48Z" fill="#5E84CA"/>
<path d="M130.578 120.525L138.667 121.306V117.537L130.578 116.727V120.525Z" fill="#5E84CA"/>
<path d="M120.5 119.554L128.749 120.351V116.546L120.5 115.719V119.554Z" fill="#5E84CA"/>
<path d="M99.7344 117.546L108.317 118.374V114.494L99.7344 113.633V117.546Z" fill="#5E84CA"/>
<path d="M89.0312 116.515L97.7891 117.361V113.441L89.0312 112.562V116.515Z" fill="#5E84CA"/>
<path d="M168.992 129.194L176.486 129.88V126.253L168.992 125.539V129.194Z" fill="#5E84CA"/>
<path d="M159.664 128.338L167.3 129.037V125.376L159.664 124.648V128.338Z" fill="#5E84CA"/>
<path d="M140.469 126.582L148.402 127.308V123.576L140.469 122.82V126.582Z" fill="#5E84CA"/>
<path d="M130.578 125.673L138.667 126.413V122.645L130.578 121.875V125.673Z" fill="#5E84CA"/>
<path d="M120.5 124.757L128.749 125.512V121.707L120.5 120.922V124.757Z" fill="#5E84CA"/>
<path d="M110.219 123.811L118.632 124.581V120.739L110.219 119.938V123.811Z" fill="#5E84CA"/>
<path d="M99.7344 122.85L108.317 123.636V119.755L99.7344 118.938V122.85Z" fill="#5E84CA"/>
<path d="M89.0312 121.874L97.7891 122.676V118.756L89.0312 117.922V121.874Z" fill="#5E84CA"/>
<path d="M168.992 134.147L176.486 134.795V131.168L168.992 130.492V134.147Z" fill="#5E84CA"/>
<path d="M159.664 133.338L167.3 133.998V130.337L159.664 129.648V133.338Z" fill="#5E84CA"/>
<path d="M150.156 132.514L157.939 133.187V129.491L150.156 128.789V132.514Z" fill="#5E84CA"/>
<path d="M140.469 131.683L148.402 132.369V128.637L140.469 127.922V131.683Z" fill="#5E84CA"/>
<path d="M130.578 130.821L138.667 131.521V127.753L130.578 127.023V130.821Z" fill="#5E84CA"/>
<path d="M120.5 129.953L128.749 130.666V126.861L120.5 126.117V129.953Z" fill="#5E84CA"/>
<path d="M110.219 129.061L118.632 129.789V125.946L110.219 125.188V129.061Z" fill="#5E84CA"/>
<path d="M99.7344 128.155L108.317 128.897V125.016L99.7344 124.242V128.155Z" fill="#5E84CA"/>
<path d="M89.0312 127.234L97.7888 127.991V124.071L89.0312 123.281V127.234Z" fill="#5E84CA"/>
<path d="M168.992 139.1L176.486 139.71V136.083L168.992 135.445V139.1Z" fill="#5E84CA"/>
<path d="M159.664 138.346L167.3 138.968V135.306L159.664 134.656V138.346Z" fill="#5E84CA"/>
<path d="M150.156 137.569L157.939 138.202V134.506L150.156 133.844V137.569Z" fill="#5E84CA"/>
<path d="M140.469 136.777L148.402 137.423V133.691L140.469 133.016V136.777Z" fill="#5E84CA"/>
<path d="M130.578 135.978L138.667 136.636V132.868L130.578 132.18V135.978Z" fill="#5E84CA"/>
<path d="M120.508 135.156L128.756 135.828V132.023L120.508 131.32V135.156Z" fill="#5E84CA"/>
<path d="M110.227 134.319L118.64 135.004V131.161L110.227 130.445V134.319Z" fill="#5E84CA"/>
<path d="M99.7344 133.467L108.317 134.166V130.285L99.7344 129.555V133.467Z" fill="#5E84CA"/>
<path d="M89.0312 132.593L97.7891 133.306V129.386L89.0312 128.641V132.593Z" fill="#5E84CA"/>
<path d="M168.992 144.061L176.486 144.634V141.006L168.992 140.406V144.061Z" fill="#5E84CA"/>
<path d="M150.156 142.616L157.939 143.21V139.514L150.156 138.891V142.616Z" fill="#5E84CA"/>
<path d="M140.469 141.878L148.402 142.484V138.753L140.469 138.117V141.878Z" fill="#5E84CA"/>
<path d="M120.508 140.359L128.756 140.989V137.184L120.508 136.523V140.359Z" fill="#5E84CA"/>
<path d="M110.227 139.569L118.64 140.212V136.369L110.227 135.695V139.569Z" fill="#5E84CA"/>
<path d="M99.7344 138.772L108.317 139.428V135.547L99.7344 134.859V138.772Z" fill="#5E84CA"/>
<path d="M89.0312 137.953L97.7891 138.621V134.701L89.0312 134V137.953Z" fill="#5E84CA"/>
<path d="M168.992 149.014L176.486 149.549V145.922L168.992 145.359V149.014Z" fill="#5E84CA"/>
<path d="M159.664 148.346L167.3 148.891V145.229L159.664 144.656V148.346Z" fill="#5E84CA"/>
<path d="M150.164 147.67L157.946 148.226V144.529L150.164 143.945V147.67Z" fill="#5E84CA"/>
<path d="M140.469 146.98L148.402 147.546V143.814L140.469 143.219V146.98Z" fill="#5E84CA"/>
<path d="M130.578 146.275L138.667 146.851V143.083L130.578 142.477V146.275Z" fill="#5E84CA"/>
<path d="M120.508 145.554L128.756 146.142V142.338L120.508 141.719V145.554Z" fill="#5E84CA"/>
<path d="M110.227 144.819L118.64 145.419V141.577L110.227 140.945V144.819Z" fill="#5E84CA"/>
<path d="M99.7422 144.077L108.325 144.689V140.808L99.7422 140.164V144.077Z" fill="#5E84CA"/>
<path d="M89.0391 143.312L97.7969 143.937V140.017L89.0391 139.359V143.312Z" fill="#5E84CA"/>
<path d="M169 153.968L176.493 154.464V150.837L169 150.312V153.968Z" fill="#5E84CA"/>
<path d="M159.672 153.354L167.308 153.86V150.198L159.672 149.664V153.354Z" fill="#5E84CA"/>
<path d="M150.164 152.725L157.946 153.241V149.545L150.164 149V152.725Z" fill="#5E84CA"/>
<path d="M130.578 151.423L138.667 151.959V148.191L130.578 147.625V151.423Z" fill="#5E84CA"/>
<path d="M120.508 150.757L128.756 151.304V147.499L120.508 146.922V150.757Z" fill="#5E84CA"/>
<path d="M110.234 150.077L118.648 150.635V146.792L110.234 146.203V150.077Z" fill="#5E84CA"/>
<path d="M99.7422 149.382L108.325 149.95V146.07L99.7422 145.469V149.382Z" fill="#5E84CA"/>
<path d="M89.0391 148.672L97.7966 149.252V145.332L89.0391 144.719V148.672Z" fill="#5E84CA"/>
<path d="M169 158.929L176.493 159.387V155.76L169 155.273V158.929Z" fill="#5E84CA"/>
<path d="M159.672 158.354L167.308 158.821V155.16L159.672 154.664V158.354Z" fill="#5E84CA"/>
<path d="M150.164 157.772L157.946 158.248V154.552L150.164 154.047V157.772Z" fill="#5E84CA"/>
<path d="M140.469 157.175L148.402 157.661V153.929L140.469 153.414V157.175Z" fill="#5E84CA"/>
<path d="M130.578 156.571L138.667 157.067V153.299L130.578 152.773V156.571Z" fill="#5E84CA"/>
<path d="M120.508 155.961L128.756 156.466V152.661L120.508 152.125V155.961Z" fill="#5E84CA"/>
<path d="M99.7422 154.686L108.325 155.212V151.331L99.7422 150.773V154.686Z" fill="#5E84CA"/>
<path d="M89.0391 154.031L97.7966 154.567V150.647L89.0391 150.078V154.031Z" fill="#5E84CA"/>
<path d="M169 163.881L176.493 164.302V160.675L169 160.227V163.881Z" fill="#5E84CA"/>
<path d="M150.164 162.827L157.946 163.264V159.567L150.164 159.102V162.827Z" fill="#5E84CA"/>
<path d="M140.469 162.277L148.402 162.723V158.991L140.469 158.516V162.277Z" fill="#5E84CA"/>
<path d="M130.586 161.72L138.675 162.174V158.406L130.586 157.922V161.72Z" fill="#5E84CA"/>
<path d="M120.508 161.156L128.756 161.619V157.814L120.508 157.32V161.156Z" fill="#5E84CA"/>
<path d="M110.234 160.577L118.648 161.049V157.207L110.234 156.703V160.577Z" fill="#5E84CA"/>
<path d="M99.7422 159.991L108.325 160.473V156.592L99.7422 156.078V159.991Z" fill="#5E84CA"/>
<path d="M169 168.834L176.493 169.218V165.591L169 165.18V168.834Z" fill="#5E84CA"/>
<path d="M159.672 168.362L167.308 168.752V165.091L159.672 164.672V168.362Z" fill="#5E84CA"/>
<path d="M150.164 167.874L157.946 168.272V164.575L150.164 164.148V167.874Z" fill="#5E84CA"/>
<path d="M130.586 166.876L138.674 167.29V163.522L130.586 163.078V166.876Z" fill="#5E84CA"/>
<path d="M120.508 166.359L128.756 166.781V162.976L120.508 162.523V166.359Z" fill="#5E84CA"/>
<path d="M110.234 165.835L118.647 166.265V162.422L110.234 161.961V165.835Z" fill="#5E84CA"/>
<path d="M99.7422 165.296L108.325 165.735V161.854L99.7422 161.383V165.296Z" fill="#5E84CA"/>
<path d="M89.0469 164.749L97.8047 165.197V161.277L89.0469 160.797V164.749Z" fill="#5E84CA"/>
<path d="M169.008 173.795L176.501 174.141V170.514L169.008 170.141V173.795Z" fill="#5E84CA"/>
<path d="M159.672 173.362L167.307 173.713V170.052L159.672 169.672V173.362Z" fill="#5E84CA"/>
<path d="M150.164 172.928L157.946 173.287V169.591L150.164 169.203V172.928Z" fill="#5E84CA"/>
<path d="M140.469 172.48L148.402 172.846V169.114L140.469 168.719V172.48Z" fill="#5E84CA"/>
<path d="M120.508 171.562L128.756 171.942V168.137L120.508 167.727V171.562Z" fill="#5E84CA"/>
<path d="M110.234 171.085L118.647 171.473V167.63L110.234 167.211V171.085Z" fill="#5E84CA"/>
<path d="M99.7422 170.6L108.325 170.996V167.115L99.7422 166.688V170.6Z" fill="#5E84CA"/>
<path d="M89.0469 170.109L97.8044 170.512V166.593L89.0469 166.156V170.109Z" fill="#5E84CA"/>
<path d="M169.008 178.749L176.501 179.056V175.429L169.008 175.094V178.749Z" fill="#5E84CA"/>
<path d="M159.672 178.362L167.308 178.675V175.014L159.672 174.672V178.362Z" fill="#5E84CA"/>
<path d="M150.164 177.975L157.946 178.295V174.598L150.164 174.25V177.975Z" fill="#5E84CA"/>
<path d="M140.469 177.574L148.402 177.899V174.167L140.469 173.812V177.574Z" fill="#5E84CA"/>
<path d="M110.234 176.335L118.647 176.68V172.837L110.234 172.461V176.335Z" fill="#5E84CA"/>
<path d="M99.75 175.905L108.333 176.257V172.377L99.75 171.992V175.905Z" fill="#5E84CA"/>
<path d="M159.672 183.37L167.308 183.644V179.983L159.672 179.68V183.37Z" fill="#5E84CA"/>
<path d="M140.469 182.675L148.402 182.961V179.229L140.469 178.914V182.675Z" fill="#5E84CA"/>
<path d="M120.516 181.96L128.764 182.257V178.453L120.516 178.125V181.96Z" fill="#5E84CA"/>
<path d="M110.234 181.593L118.647 181.895V178.053L110.234 177.719V181.593Z" fill="#5E84CA"/>
<path d="M89.0547 180.828L97.8122 181.143V177.223L89.0547 176.875V180.828Z" fill="#5E84CA"/>
<path d="M169.008 188.663L176.501 188.895V185.268L169.008 185.008V188.663Z" fill="#5E84CA"/>
<path d="M159.672 188.369L167.308 188.606V184.944L159.672 184.68V188.369Z" fill="#5E84CA"/>
<path d="M150.164 188.077L157.946 188.318V184.621L150.164 184.352V188.077Z" fill="#5E84CA"/>
<path d="M130.594 187.47L138.682 187.72V183.952L130.594 183.672V187.47Z" fill="#5E84CA"/>
<path d="M120.516 187.163L128.764 187.419V183.614L120.516 183.328V187.163Z" fill="#5E84CA"/>
<path d="M110.234 186.843L118.647 187.103V183.26L110.234 182.969V186.843Z" fill="#5E84CA"/>
<path d="M99.75 186.514L108.333 186.78V182.899L99.75 182.602V186.514Z" fill="#5E84CA"/>
<path d="M89.0547 186.187L97.812 186.458V182.538L89.0547 182.234V186.187Z" fill="#5E84CA"/>
<path d="M169.008 193.616L176.501 193.81V190.183L169.008 189.961V193.616Z" fill="#5E84CA"/>
<path d="M159.68 193.377L167.316 193.575V189.914L159.68 189.688V193.377Z" fill="#5E84CA"/>
<path d="M150.164 193.131L157.946 193.333V189.637L150.164 189.406V193.131Z" fill="#5E84CA"/>
<path d="M140.477 192.878L148.41 193.084V189.352L140.477 189.117V192.878Z" fill="#5E84CA"/>
<path d="M130.602 192.618L138.69 192.828V189.06L130.602 188.82V192.618Z" fill="#5E84CA"/>
<path d="M120.516 192.359L128.764 192.572V188.768L120.516 188.523V192.359Z" fill="#5E84CA"/>
<path d="M99.75 191.827L108.333 192.049V188.168L99.75 187.914V191.827Z" fill="#5E84CA"/>
<path d="M89.0547 191.546L97.8122 191.773V187.853L89.0547 187.594V191.546Z" fill="#5E84CA"/>
<path d="M169.008 198.577L176.501 198.733V195.106L169.008 194.922V198.577Z" fill="#5E84CA"/>
<path d="M150.164 198.178L157.946 198.34V194.644L150.164 194.453V198.178Z" fill="#5E84CA"/>
<path d="M140.477 197.98L148.41 198.145V194.414L140.477 194.219V197.98Z" fill="#5E84CA"/>
<path d="M120.516 197.562L128.764 197.734V193.93L120.516 193.727V197.562Z" fill="#5E84CA"/>
<path d="M110.242 197.35L118.655 197.526V193.683L110.242 193.477V197.35Z" fill="#5E84CA"/>
<path d="M99.75 197.132L108.333 197.31V193.43L99.75 193.219V197.132Z" fill="#5E84CA"/>
<path d="M89.0547 196.906L97.8122 197.088V193.169L89.0547 192.953V196.906Z" fill="#5E84CA"/>
<path d="M169.008 203.53L176.501 203.649V200.022L169.008 199.875V203.53Z" fill="#5E84CA"/>
<path d="M159.688 203.385L167.323 203.506V199.844L159.688 199.695V203.385Z" fill="#5E84CA"/>
<path d="M140.477 203.082L148.41 203.207V199.475L140.477 199.32V203.082Z" fill="#5E84CA"/>
<path d="M99.7578 202.436L108.34 202.572V198.691L99.7578 198.523V202.436Z" fill="#5E84CA"/>
<path d="M169.008 208.483L176.501 208.564V204.936L169.008 204.828V208.483Z" fill="#5E84CA"/>
<path d="M159.688 208.385L167.323 208.467V204.806L159.688 204.695V208.385Z" fill="#5E84CA"/>
<path d="M150.172 208.28L157.954 208.363V204.667L150.172 204.555V208.28Z" fill="#5E84CA"/>
<path d="M140.477 208.175L148.41 208.261V204.529L140.477 204.414V208.175Z" fill="#5E84CA"/>
<path d="M130.602 208.071L138.69 208.158V204.39L130.602 204.273V208.071Z" fill="#5E84CA"/>
<path d="M120.516 207.96L128.764 208.049V204.244L120.516 204.125V207.96Z" fill="#5E84CA"/>
<path d="M110.242 207.85L118.655 207.941V204.098L110.242 203.977V207.85Z" fill="#5E84CA"/>
<path d="M99.7578 207.741L108.341 207.833V203.952L99.7578 203.828V207.741Z" fill="#5E84CA"/>
<path d="M89.0547 207.624L97.812 207.718V203.799L89.0547 203.672V207.624Z" fill="#5E84CA"/>
<path d="M169.008 213.444L176.501 213.487V209.86L169.008 209.789V213.444Z" fill="#5E84CA"/>
<path d="M159.688 213.385L167.323 213.428V209.767L159.688 209.695V213.385Z" fill="#5E84CA"/>
<path d="M140.477 213.277L148.41 213.322V209.59L140.477 209.516V213.277Z" fill="#5E84CA"/>
<path d="M130.602 213.22L138.69 213.266V209.498L130.602 209.422V213.22Z" fill="#5E84CA"/>
<path d="M110.242 213.108L118.655 213.156V209.314L110.242 209.234V213.108Z" fill="#5E84CA"/>
<path d="M99.7578 213.046L108.34 213.095V209.214L99.7578 209.133V213.046Z" fill="#5E84CA"/>
<path d="M89.0547 212.984L97.812 213.034V209.114L89.0547 209.031V212.984Z" fill="#5E84CA"/>
<path d="M159.688 218.393L167.323 218.398V214.737L159.688 214.703V218.393Z" fill="#5E84CA"/>
<path d="M150.172 218.381L157.954 218.387V214.69L150.172 214.656V218.381Z" fill="#5E84CA"/>
<path d="M120.523 218.367L128.772 218.372V214.567L120.523 214.531V218.367Z" fill="#5E84CA"/>
<path d="M110.242 218.358L118.655 218.363V214.521L110.242 214.484V218.358Z" fill="#5E84CA"/>
<path d="M169.008 223.355L176.501 223.322V219.695L169.008 219.7V223.355Z" fill="#5E84CA"/>
<path d="M159.688 223.398L167.323 223.364V219.703L159.688 219.708V223.398Z" fill="#5E84CA"/>
<path d="M150.18 223.441L157.962 223.407V219.711L150.18 219.716V223.441Z" fill="#5E84CA"/>
<path d="M140.484 223.477L148.417 223.443V219.711L140.484 219.716V223.477Z" fill="#5E84CA"/>
<path d="M130.602 223.522L138.69 223.487V219.719L130.602 219.724V223.522Z" fill="#5E84CA"/>
<path d="M120.523 223.567L128.772 223.531V219.727L120.523 219.732V223.567Z" fill="#5E84CA"/>
<path d="M99.7578 223.661L108.34 223.623V219.742L99.7578 219.748V223.661Z" fill="#5E84CA"/>
<path d="M89.0547 223.708L97.8122 223.67V219.75L89.0547 219.756V223.708Z" fill="#5E84CA"/>
<path d="M169.016 228.315L176.509 228.244V224.617L169.016 224.66V228.315Z" fill="#5E84CA"/>
<path d="M140.484 228.588L148.417 228.513V224.781L140.484 224.826V228.588Z" fill="#5E84CA"/>
<path d="M130.602 228.68L138.69 228.604V224.836L130.602 224.882V228.68Z" fill="#5E84CA"/>
<path d="M110.242 228.867L118.655 228.788V224.945L110.242 224.993V228.867Z" fill="#5E84CA"/>
<path d="M99.7578 228.97L108.34 228.889V225.008L99.7578 225.057V228.97Z" fill="#5E84CA"/>
<path d="M169.016 233.267L176.509 233.158V229.531L169.016 229.612V233.267Z" fill="#5E84CA"/>
<path d="M159.688 233.405L167.323 233.294V229.633L159.688 229.715V233.405Z" fill="#5E84CA"/>
<path d="M150.18 233.543L157.962 233.43V229.734L150.18 229.818V233.543Z" fill="#5E84CA"/>
<path d="M120.523 233.971L128.772 233.852V230.047L120.523 230.136V233.971Z" fill="#5E84CA"/>
<path d="M110.25 234.12L118.663 233.999V230.156L110.25 230.247V234.12Z" fill="#5E84CA"/>
<path d="M159.688 238.404L167.323 238.255V234.594L159.688 234.715V238.404Z" fill="#5E84CA"/>
<path d="M150.18 238.59L157.962 238.438V234.742L150.18 234.865V238.59Z" fill="#5E84CA"/>
<path d="M140.492 238.777L148.425 238.622V234.891L140.492 235.016V238.777Z" fill="#5E84CA"/>
<path d="M130.602 238.973L138.69 238.815V235.047L130.602 235.175V238.973Z" fill="#5E84CA"/>
<path d="M120.531 239.169L128.779 239.008V235.203L120.531 235.334V239.169Z" fill="#5E84CA"/>
<path d="M110.25 239.366L118.663 239.202V235.359L110.25 235.492V239.366Z" fill="#5E84CA"/>
<path d="M99.7656 239.572L108.348 239.404V235.523L99.7656 235.659V239.572Z" fill="#5E84CA"/>
<path d="M89.0625 239.786L97.8198 239.615V235.695L89.0625 235.834V239.786Z" fill="#5E84CA"/>
<path d="M169.023 243.178L176.516 242.994V239.367L169.023 239.523V243.178Z" fill="#5E84CA"/>
<path d="M159.688 243.411L167.323 243.224V239.562L159.688 239.722V243.411Z" fill="#5E84CA"/>
<path d="M140.492 243.88L148.425 243.685V239.953L140.492 240.118V243.88Z" fill="#5E84CA"/>
<path d="M130.602 244.123L138.69 243.924V240.156L130.602 240.325V244.123Z" fill="#5E84CA"/>
<path d="M99.7656 244.881L108.348 244.67V240.789L99.7656 240.968V244.881Z" fill="#5E84CA"/>
<path d="M89.0625 245.143L97.82 244.928V241.008L89.0625 241.191V245.143Z" fill="#5E84CA"/>
<path d="M89.0625 250.237L97.82 250.022V246.102L89.0625 246.284V250.237Z" fill="#5E84CA"/>
<path d="M89.0625 266.705L97.82 266.49V262.57L89.0625 262.753V266.705Z" fill="#5E84CA"/>
<path d="M150.18 248.692L157.962 248.462V244.766L150.18 244.967V248.692Z" fill="#5E84CA"/>
<path d="M140.492 248.982L148.425 248.747V245.016L140.492 245.221V248.982Z" fill="#5E84CA"/>
<path d="M130.602 249.273L138.69 249.033V245.266L130.602 245.475V249.273Z" fill="#5E84CA"/>
<path d="M120.531 249.573L128.779 249.328V245.523L120.531 245.737V249.573Z" fill="#5E84CA"/>
<path d="M110.25 249.873L118.663 249.624V245.781L110.25 245.999V249.873Z" fill="#5E84CA"/>
<path d="M99.7656 250.182L108.348 249.928V246.047L99.7656 246.269V250.182Z" fill="#5E84CA"/>
<path d="M159.688 253.418L167.323 253.153V249.492L159.688 249.728V253.418Z" fill="#5E84CA"/>
<path d="M130.609 254.423L138.698 254.143V250.375L130.609 250.625V254.423Z" fill="#5E84CA"/>
<path d="M120.531 254.778L128.779 254.492V250.688L120.531 250.943V254.778Z" fill="#5E84CA"/>
<path d="M110.258 255.134L118.671 254.842V251L110.258 251.26V255.134Z" fill="#5E84CA"/>
<path d="M99.7734 255.498L108.356 255.201V251.32L99.7734 251.586V255.498Z" fill="#5E84CA"/>
<path d="M169.023 258.05L176.516 257.752V254.125L169.023 254.395V258.05Z" fill="#5E84CA"/>
<path d="M159.695 258.418L167.331 258.114V254.453L159.695 254.728V258.418Z" fill="#5E84CA"/>
<path d="M150.188 258.794L157.969 258.485V254.789L150.188 255.069V258.794Z" fill="#5E84CA"/>
<path d="M140.492 259.179L148.425 258.864V255.133L140.492 255.418V259.179Z" fill="#5E84CA"/>
<path d="M110.258 260.38L118.671 260.045V256.203L110.258 256.506V260.38Z" fill="#5E84CA"/>
<path d="M169.023 263.001L176.516 262.666V259.039L169.023 259.347V263.001Z" fill="#5E84CA"/>
<path d="M140.492 264.282L148.425 263.927V260.195L140.492 260.521V264.282Z" fill="#5E84CA"/>
<path d="M120.531 265.174L128.779 264.805V261L120.531 261.338V265.174Z" fill="#5E84CA"/>
<path d="M99.7734 266.101L108.356 265.717V261.836L99.7734 262.188V266.101Z" fill="#5E84CA"/>
<path d="M169.023 267.961L176.516 267.588V263.961L169.023 264.306V267.961Z" fill="#5E84CA"/>
<path d="M159.695 268.424L167.331 268.044V264.383L159.695 264.735V268.424Z" fill="#5E84CA"/>
<path d="M150.188 268.896L157.97 268.509V264.812L150.188 265.171V268.896Z" fill="#5E84CA"/>
<path d="M140.492 269.385L148.425 268.99V265.258L140.492 265.623V269.385Z" fill="#5E84CA"/>
<path d="M130.609 269.874L138.697 269.471V265.703L130.609 266.076V269.874Z" fill="#5E84CA"/>
<path d="M120.539 270.38L128.787 269.969V266.164L120.539 266.544V270.38Z" fill="#5E84CA"/>
<path d="M110.266 270.886L118.678 270.467V266.625L110.266 267.013V270.886Z" fill="#5E84CA"/>
<path d="M99.7734 271.41L108.356 270.982V267.102L99.7734 267.497V271.41Z" fill="#5E84CA"/>
<path d="M169.023 272.913L176.516 272.502V268.875L169.023 269.258V272.913Z" fill="#5E84CA"/>
<path d="M159.695 273.424L167.331 273.005V269.344L159.695 269.734V273.424Z" fill="#5E84CA"/>
<path d="M140.492 274.479L148.425 274.044V270.312L140.492 270.718V274.479Z" fill="#5E84CA"/>
<path d="M130.609 275.016L138.698 274.573V270.805L130.609 271.218V275.016Z" fill="#5E84CA"/>
<path d="M120.539 275.569L128.787 275.117V271.312L120.539 271.734V275.569Z" fill="#5E84CA"/>
<path d="M110.266 276.14L118.678 275.678V271.836L110.266 272.266V276.14Z" fill="#5E84CA"/>
<path d="M89.0781 277.299L97.8354 276.818V272.898L89.0781 273.346V277.299Z" fill="#5E84CA"/>
<path d="M159.695 278.431L167.331 277.974V274.312L159.695 274.742V278.431Z" fill="#5E84CA"/>
<path d="M150.188 278.998L157.969 278.532V274.836L150.188 275.273V278.998Z" fill="#5E84CA"/>
<path d="M130.617 280.174L138.705 279.69V275.922L130.617 276.376V280.174Z" fill="#5E84CA"/>
<path d="M99.7734 282.02L108.356 281.506V277.625L99.7734 278.107V282.02Z" fill="#5E84CA"/>
<path d="M169.031 282.825L176.524 282.338V278.711L169.031 279.17V282.825Z" fill="#5E84CA"/>
<path d="M159.695 283.431L167.331 282.935V279.273L159.695 279.741V283.431Z" fill="#5E84CA"/>
<path d="M150.188 284.045L157.97 283.54V279.844L150.188 280.32V284.045Z" fill="#5E84CA"/>
<path d="M140.5 284.676L148.433 284.161V280.43L140.5 280.915V284.676Z" fill="#5E84CA"/>
<path d="M130.617 285.316L138.705 284.791V281.023L130.617 281.519V285.316Z" fill="#5E84CA"/>
<path d="M110.266 286.639L118.678 286.092V282.25L110.266 282.765V286.639Z" fill="#5E84CA"/>
<path d="M99.7734 287.321L108.356 286.764V282.883L99.7734 283.408V287.321Z" fill="#5E84CA"/>
<path d="M140.5 289.779L148.433 289.224V285.492L140.5 286.018V289.779Z" fill="#5E84CA"/>
<path d="M130.617 290.474L138.705 289.909V286.141L130.617 286.677V290.474Z" fill="#5E84CA"/>
<path d="M120.539 291.179L128.787 290.602V286.797L120.539 287.343V291.179Z" fill="#5E84CA"/>
<path d="M110.266 291.892L118.678 291.303V287.461L110.266 288.018V291.892Z" fill="#5E84CA"/>
<path d="M99.7734 292.63L108.356 292.029V288.148L99.7734 288.717V292.63Z" fill="#5E84CA"/>
<path d="M89.0859 293.376L97.8429 292.764V288.844L89.0859 289.424V293.376Z" fill="#5E84CA"/>
<path d="M169.031 292.736L176.524 292.174V288.547L169.031 289.081V292.736Z" fill="#5E84CA"/>
<path d="M159.695 293.437L167.331 292.864V289.203L159.695 289.748V293.437Z" fill="#5E84CA"/>
<path d="M150.188 294.147L157.969 293.563V289.867L150.188 290.422V294.147Z" fill="#5E84CA"/>
<path d="M140.5 294.874L148.433 294.278V290.547L140.5 291.113V294.874Z" fill="#5E84CA"/>
<path d="M120.547 296.377L128.795 295.758V291.953L120.547 292.541V296.377Z" fill="#5E84CA"/>
<path d="M89.0859 298.733L97.8429 298.076V294.156L89.0859 294.781V298.733Z" fill="#5E84CA"/>
<path d="M169.031 297.696L176.524 297.096V293.469L169.031 294.041V297.696Z" fill="#5E84CA"/>
<path d="M159.703 298.445L167.338 297.833V294.172L159.703 294.755V298.445Z" fill="#5E84CA"/>
<path d="M150.188 299.202L157.969 298.579V294.883L150.188 295.477V299.202Z" fill="#5E84CA"/>
<path d="M140.5 299.984L148.433 299.349V295.617L140.5 296.223V299.984Z" fill="#5E84CA"/>
<path d="M130.625 300.775L138.713 300.127V296.359L130.625 296.977V300.775Z" fill="#5E84CA"/>
<path d="M110.266 302.399L118.678 301.725V297.883L110.266 298.525V302.399Z" fill="#5E84CA"/>
<path d="M99.7734 303.24L108.356 302.553V298.672L99.7734 299.327V303.24Z" fill="#5E84CA"/>
<path d="M140.5 305.079L148.433 304.404V300.672L140.5 301.318V305.079Z" fill="#5E84CA"/>
<path d="M120.547 306.78L128.795 306.078V302.273L120.547 302.945V306.78Z" fill="#5E84CA"/>
<path d="M110.266 307.652L118.678 306.936V303.094L110.266 303.779V307.652Z" fill="#5E84CA"/>
<path d="M99.7812 308.549L108.364 307.818V303.938L99.7812 304.636V308.549Z" fill="#5E84CA"/>
<path d="M169.039 307.607L176.532 306.932V303.305L169.039 303.952V307.607Z" fill="#5E84CA"/>
<path d="M159.703 308.451L167.338 307.763V304.102L159.703 304.762V308.451Z" fill="#5E84CA"/>
<path d="M150.195 309.304L157.977 308.602V304.906L150.195 305.579V309.304Z" fill="#5E84CA"/>
<path d="M130.625 311.068L138.713 310.338V306.57L130.625 307.27V311.068Z" fill="#5E84CA"/>
<path d="M120.547 311.978L128.795 311.234V307.43L120.547 308.143V311.978Z" fill="#5E84CA"/>
<path d="M99.7812 313.85L108.363 313.076V309.195L99.7812 309.937V313.85Z" fill="#5E84CA"/>
<path d="M89.0859 314.819L97.8429 314.029V310.109L89.0859 310.866V314.819Z" fill="#5E84CA"/>
<path d="M169.039 312.559L176.532 311.846V308.219L169.039 308.904V312.559Z" fill="#5E84CA"/>
<path d="M150.195 314.351L157.977 313.61V309.914L150.195 310.626V314.351Z" fill="#5E84CA"/>
<path d="M140.5 315.276L148.433 314.521V310.789L140.5 311.515V315.276Z" fill="#5E84CA"/>
<path d="M120.547 317.176L128.795 316.391V312.586L120.547 313.34V317.176Z" fill="#5E84CA"/>
<path d="M110.266 318.151L118.678 317.35V313.508L110.266 314.278V318.151Z" fill="#5E84CA"/>
<path d="M89.0859 320.176L97.8429 319.342V315.422L89.0859 316.223V320.176Z" fill="#5E84CA"/>
<path d="M159.711 318.45L167.346 317.685V314.023L159.711 314.761V318.45Z" fill="#5E84CA"/>
<path d="M140.508 320.378L148.44 319.583V315.852L140.508 316.617V320.378Z" fill="#5E84CA"/>
<path d="M130.625 321.368L138.713 320.557V316.789L130.625 317.57V321.368Z" fill="#5E84CA"/>
<path d="M169.039 322.471L176.532 321.682V318.055L169.039 318.816V322.471Z" fill="#5E84CA"/>
<path d="M159.711 323.45L167.346 322.646V318.984L159.711 319.76V323.45Z" fill="#5E84CA"/>
<path d="M150.203 324.453L157.985 323.633V319.938L150.203 320.728V324.453Z" fill="#5E84CA"/>
<path d="M140.508 325.473L148.441 324.638V320.906L140.508 321.712V325.473Z" fill="#5E84CA"/>
<path d="M120.547 327.58L128.795 326.711V322.906L120.547 323.744V327.58Z" fill="#5E84CA"/>
<path d="M110.266 328.658L118.678 327.772V323.93L110.266 324.785V328.658Z" fill="#5E84CA"/>
<path d="M99.7891 329.761L108.371 328.857V324.977L99.7891 325.848V329.761Z" fill="#5E84CA"/>
<path d="M89.0859 330.889L97.8429 329.967V326.047L89.0859 326.937V330.889Z" fill="#5E84CA"/>
<path d="M169.039 327.43L176.532 326.603V322.977L169.039 323.776V327.43Z" fill="#5E84CA"/>
<path d="M140.508 330.576L148.44 329.7V325.969L140.508 326.815V330.576Z" fill="#5E84CA"/>
<path d="M130.625 331.668L138.713 330.776V327.008L130.625 327.87V331.668Z" fill="#5E84CA"/>
<path d="M120.547 332.785L128.795 331.875V328.07L120.547 328.95V332.785Z" fill="#5E84CA"/>
<path d="M110.266 333.919L118.678 332.991V329.148L110.266 330.046V333.919Z" fill="#5E84CA"/>
<path d="M89.0859 336.253L97.8429 335.287V331.367L89.0859 332.301V336.253Z" fill="#5E84CA"/>
<path d="M159.719 333.464L167.354 332.583V328.922L159.719 329.775V333.464Z" fill="#5E84CA"/>
<path d="M150.203 334.563L157.985 333.665V329.969L150.203 330.838V334.563Z" fill="#5E84CA"/>
<path d="M120.547 337.983L128.795 337.031V333.227L120.547 334.148V337.983Z" fill="#5E84CA"/>
<path d="M89.0859 341.618L97.8429 340.607V336.688L89.0859 337.665V341.618Z" fill="#5E84CA"/>
<path d="M169.039 337.342L176.532 336.44V332.812L169.039 333.687V337.342Z" fill="#5E84CA"/>
<path d="M159.719 338.464L167.354 337.544V333.883L159.719 334.774V338.464Z" fill="#5E84CA"/>
<path d="M150.203 339.61L157.985 338.673V334.977L150.203 335.885V339.61Z" fill="#5E84CA"/>
<path d="M130.633 341.968L138.721 340.994V337.227L130.633 338.171V341.968Z" fill="#5E84CA"/>
<path d="M110.273 344.418L118.686 343.405V339.562L110.273 340.545V344.418Z" fill="#5E84CA"/>
<path d="M99.7891 345.68L108.371 344.646V340.766L99.7891 341.768V345.68Z" fill="#5E84CA"/>
<path d="M169.039 342.294L176.532 341.354V337.727L169.039 338.639V342.294Z" fill="#5E84CA"/>
<path d="M140.516 345.876L148.448 344.88V341.148L140.516 342.114V345.876Z" fill="#5E84CA"/>
<path d="M120.555 348.379L128.802 347.344V343.539L120.555 344.544V348.379Z" fill="#5E84CA"/>
<path d="M99.7891 350.981L108.371 349.904V346.023L99.7891 347.069V350.981Z" fill="#5E84CA"/>
<path d="M89.0859 352.324L97.8427 351.225V347.305L89.0859 348.371V352.324Z" fill="#5E84CA"/>
<path d="M159.719 348.47L167.354 347.474V343.812L159.719 344.781V348.47Z" fill="#5E84CA"/>
<path d="M150.203 349.712L157.985 348.696V345L150.203 345.987V349.712Z" fill="#5E84CA"/>
<path d="M130.633 352.269L138.72 351.213V347.445L130.633 348.471V352.269Z" fill="#5E84CA"/>
<path d="M99.7969 356.29L108.379 355.17V351.289L99.7969 352.378V356.29Z" fill="#5E84CA"/>
<path d="M89.0938 357.688L97.8505 356.545V352.625L89.0938 353.736V357.688Z" fill="#5E84CA"/>
<path d="M169.047 352.205L176.54 351.189V347.562L169.047 348.55V352.205Z" fill="#5E84CA"/>
<path d="M150.203 354.759L157.985 353.704V350.008L150.203 351.034V354.759Z" fill="#5E84CA"/>
<path d="M140.516 356.073L148.448 354.997V351.266L140.516 352.312V356.073Z" fill="#5E84CA"/>
<path d="M120.555 358.782L128.802 357.664V353.859L120.555 354.947V358.782Z" fill="#5E84CA"/>
<path d="M110.281 360.171L118.693 359.03V355.188L110.281 356.297V360.171Z" fill="#5E84CA"/>
<path d="M150.211 359.814L157.993 358.72V355.023L150.211 356.089V359.814Z" fill="#5E84CA"/>
<path d="M140.516 361.175L148.448 360.06V356.328L140.516 357.414V361.175Z" fill="#5E84CA"/>
<path d="M130.633 362.569L138.72 361.432V357.664L130.633 358.771V362.569Z" fill="#5E84CA"/>
<path d="M110.281 365.432L118.693 364.249V360.406L110.281 361.558V365.432Z" fill="#5E84CA"/>
<path d="M99.7969 366.908L108.379 365.701V361.82L99.7969 362.995V366.908Z" fill="#5E84CA"/>
<path d="M89.0938 368.409L97.8505 367.177V363.258L89.0938 364.457V368.409Z" fill="#5E84CA"/>
<path d="M169.047 362.117L176.54 361.025V357.398L169.047 358.462V362.117Z" fill="#5E84CA"/>
<path d="M159.719 363.477L167.354 362.364V358.703L159.719 359.787V363.477Z" fill="#5E84CA"/>
<path d="M99.7969 372.209L108.379 370.959V367.078L99.7969 368.297V372.209Z" fill="#5E84CA"/>
<path d="M159.719 368.484L167.354 367.333V363.672L159.719 364.794V368.484Z" fill="#5E84CA"/>
<path d="M150.211 369.916L157.993 368.743V365.047L150.211 366.191V369.916Z" fill="#5E84CA"/>
<path d="M140.523 371.38L148.456 370.185V366.453L140.523 367.619V371.38Z" fill="#5E84CA"/>
<path d="M120.555 374.384L128.802 373.141V369.336L120.555 370.548V374.384Z" fill="#5E84CA"/>
<path d="M110.289 375.938L118.701 374.67V370.828L110.289 372.065V375.938Z" fill="#5E84CA"/>
<path d="M89.1016 379.13L97.8583 377.811V373.891L89.1016 375.178V379.13Z" fill="#5E84CA"/>
<path d="M169.047 372.029L176.539 370.861V367.234L169.047 368.374V372.029Z" fill="#5E84CA"/>
<path d="M89.1016 384.479L97.8583 383.115V379.195L89.1016 380.527V384.479Z" fill="#5E84CA"/>
<path d="M159.719 378.491L167.354 377.263V373.602L159.719 374.801V378.491Z" fill="#5E84CA"/>
<path d="M150.219 380.018L158.001 378.766V375.07L150.219 376.293V380.018Z" fill="#5E84CA"/>
<path d="M130.641 383.17L138.729 381.869V378.102L130.641 379.372V383.17Z" fill="#5E84CA"/>
<path d="M120.562 384.787L128.81 383.461V379.656L120.562 380.952V384.787Z" fill="#5E84CA"/>
<path d="M99.8047 388.128L108.386 386.748V382.867L99.8047 384.215V388.128Z" fill="#5E84CA"/>
<path d="M169.047 381.94L176.539 380.697V377.07L169.047 378.285V381.94Z" fill="#5E84CA"/>
<path d="M140.523 386.672L148.456 385.357V381.625L140.523 382.911V386.672Z" fill="#5E84CA"/>
<path d="M150.219 390.12L158 388.79V385.094L150.219 386.395V390.12Z" fill="#5E84CA"/>
<path d="M110.289 396.944L118.701 395.506V391.664L110.289 393.07V396.944Z" fill="#5E84CA"/>
<path d="M89.1094 400.565L97.8661 399.068V395.148L89.1094 396.613V400.565Z" fill="#5E84CA"/>
<path d="M130.641 398.613L138.728 397.189V393.422L130.641 394.815V398.613Z" fill="#5E84CA"/>
<path d="M89.1094 405.922L97.8661 404.381V400.461L89.1094 401.969V405.922Z" fill="#5E84CA"/>
<path d="M120.57 405.587L128.818 404.094V400.289L120.57 401.751V405.587Z" fill="#5E84CA"/>
<path d="M110.289 412.697L118.701 411.131V407.289L110.289 408.823V412.697Z" fill="#5E84CA"/>
<path d="M89.1172 416.635L97.8739 415.006V411.086L89.1172 412.683V416.635Z" fill="#5E84CA"/>
</svg>
