<svg width="278" height="343" viewBox="0 0 278 343" fill="none" xmlns="http://www.w3.org/2000/svg">
<mask id="path-1-inside-1_2091_18" fill="white">
<path d="M136.254 0L135.83 0.430851H134.556L134.132 0.861702H133.707L133.283 1.29255H132.434L132.01 1.7234H131.585L131.161 2.15426H130.312L129.887 2.58511H129.463L129.038 3.01596H128.189L127.765 3.44681H127.34L126.916 3.87766H126.491L126.067 4.30851H125.218L124.794 4.73936H123.945L123.52 5.17021H123.096L122.671 5.60107H122.247L121.822 6.03192H120.973L120.549 6.46277H120.124L119.7 6.89362H118.851L118.427 7.32447H118.002L117.578 7.75532H116.729L116.304 8.18617H115.88L115.455 8.61702H114.606L114.182 9.04788H113.757L113.333 9.47873H112.484L112.06 9.90958H111.211L110.786 10.3404H110.362L109.937 10.7713H109.088L108.664 11.2021H108.239L107.815 11.633H106.966L106.541 12.0638H106.117L105.693 12.4947H104.844L104.419 12.9255H103.995L103.57 13.3564H103.146L102.721 13.7872H101.872L101.448 14.2181H101.023L100.599 14.6489H99.75L99.3255 15.0798H98.4766L98.0521 15.5106H97.6276L97.2032 15.9415H96.3542L95.9298 16.3723H95.5053L95.0808 16.8032H94.2319L93.8074 17.234H93.383L92.9585 17.6649H92.1096L91.6851 18.0958H91.2606L90.8362 18.5266H89.9872L89.5627 18.9575H89.1383L88.7138 19.3883H87.8649L87.4404 19.8192H87.0159L86.5915 20.25H86.167L85.7425 20.6809H84.8936L84.4691 21.1117H83.6202L83.1957 21.5426H82.7713L82.3468 21.9734H81.4979L81.0734 22.4043H80.6489L80.2245 22.8351H79.3755L78.951 23.266H78.5266L78.1021 23.6968H77.2532L76.8287 24.1277H76.4042L75.9798 24.5585H75.1308L74.7064 24.9894H74.2819L73.8574 25.4202H73.0085L72.584 25.8511H72.1596L71.7351 26.2819H70.8862L70.4617 26.7128H70.0372L69.6128 27.1436H69.1883L68.7638 27.5745H67.9149L67.4904 28.0053H66.6415L66.217 28.4362H65.7925L65.3681 28.867H64.5191L64.0947 29.2979H63.6702L63.2457 29.7287H62.3968L61.9723 30.1596H61.5479L61.1234 30.5904H60.2745L59.85 31.0213H59.4255L59.0011 31.4521H58.1521L57.7276 31.883H57.3032L56.8787 32.3138H56.0298L55.6053 32.7447H55.1808L54.7564 33.1755H53.9074L53.483 33.6064H53.0585L52.634 34.0372H52.2096L51.7851 34.4681H50.9362L50.5117 34.8989H49.6628L49.2383 35.3298H48.8138L48.3894 35.7607H47.5404L47.1159 36.1915H46.6915L46.267 36.6224H45.4181L44.9936 37.0532H44.5691L44.1447 37.4841H43.7202L43.2957 37.9149H42.4468L42.0223 38.3458H41.1734L40.7489 38.7766H40.3245L39.9 39.2075H39.0511L38.6266 39.6383H38.2021L37.7777 40.0692H37.3532L36.9287 40.5H36.0798L35.6553 40.9309H35.2308L34.8064 41.3617H33.9574L33.533 41.7926H32.684L32.2596 42.2234H31.8351L31.4106 42.6543H30.5617L30.1372 43.0851H29.7128L29.2883 43.516H28.4394L28.0149 43.9468H27.5904L27.166 44.3777H26.317L25.8925 44.8085H25.4681L25.0436 45.2394H24.1947L23.7702 45.6702H23.3457L22.9213 46.1011H22.0723L21.6479 46.5319H21.2234L20.7989 46.9628H20.3745L19.95 47.3936H19.1011L18.6766 47.8245H18.2521L17.8277 48.2553H16.9787L16.5543 48.6862H15.7053L15.2808 49.117H14.8564L14.4319 49.5479H13.583L13.1585 49.9787H12.734L12.3096 50.4096H11.8851L11.4606 50.8404H10.6117L10.1872 51.2713H9.76276L9.3383 51.7022H8.48936L8.06489 52.133H7.64042L7.21596 52.5638H6.36702L5.94255 52.9947H5.51808L5.09362 53.4256H4.66915L3.39574 54.7181H2.97128L2.12234 55.5798V56.0107L1.2734 56.8724V57.3032L0.848936 57.7341V58.1649L0.424468 58.5958V59.4575L0 59.8883V170.186L0.424468 170.617V175.787L0.848936 176.218V180.096L1.2734 180.527V183.543L1.69787 183.973V186.559L2.12234 186.989V189.144L2.54681 189.575V191.729L2.97128 192.16V193.883L3.39574 194.314V195.606L3.82021 196.037V197.761L4.24468 198.192V199.915L4.66915 200.346V201.638L5.09362 202.069V203.362L5.51808 203.793V204.654L5.94255 205.085V206.378L6.36702 206.809V208.101L6.79149 208.532V209.394L7.21596 209.825V210.686L7.64042 211.117V211.979L8.06489 212.41V213.271L8.48936 213.702V214.564L8.91383 214.995V215.856L9.3383 216.287V217.149L9.76276 217.58V218.011L10.1872 218.442V219.303L10.6117 219.734V220.596L11.0362 221.027V221.458L11.4606 221.888V222.75L11.8851 223.181V223.612L12.3096 224.043V224.473L12.734 224.904V225.335L13.1585 225.766V226.628L13.583 227.059V227.489L14.0074 227.92V228.351L14.4319 228.782V229.213L14.8564 229.644V230.075L15.2808 230.505V230.936L15.7053 231.367V231.798L16.1298 232.229V232.66L16.5543 233.091V233.521L16.9787 233.952V234.383L17.4032 234.814V235.245L17.8277 235.676V236.106L18.2521 236.537V236.968L19.1011 237.83V238.261L19.5255 238.692V239.122L19.95 239.553V239.984L20.3745 240.415V240.846L21.2234 241.708V242.138L21.6479 242.569V243L22.4968 243.862V244.293L23.3457 245.154V245.585L23.7702 246.016V246.447L24.6191 247.309V247.739L25.4681 248.601V249.032L26.317 249.894V250.325L27.166 251.186V251.617L28.0149 252.479V252.91L29.2883 254.202V254.633L30.5617 255.926V256.356L31.4106 257.218V257.649L32.684 258.942V259.372L33.9574 260.665V261.096L35.6553 262.819V263.25L37.7777 265.404V265.835L39.9 267.989V268.42L42.4468 271.005V271.436L45.8425 274.883V275.314L57.3032 286.947V287.378H57.7276L64.5191 294.271H64.9436L68.3393 297.718H68.7638L71.3106 300.303H71.7351L73.8574 302.458H74.2819L76.4042 304.612H76.8287L78.5266 306.335H78.951L80.6489 308.059H81.0734L82.7713 309.782H83.1957L84.4691 311.075H84.8936L86.167 312.367H86.5915L87.8649 313.66H88.2893L89.5627 314.952H89.9872L90.8362 315.814H91.2606L92.534 317.107H92.9585L93.8074 317.968H94.2319L95.0808 318.83H95.5053L96.3542 319.692H96.7787L97.6276 320.553H98.0521L98.901 321.415H99.3255L100.174 322.277H100.599L101.448 323.138H101.872L102.721 324H103.146L103.995 324.862H104.419L105.268 325.724H105.693L106.117 326.154H106.541L107.39 327.016H107.815L108.664 327.878H109.088L109.513 328.309H109.937L110.786 329.17H111.211L111.635 329.601H112.06L112.908 330.463H113.333L113.757 330.894H114.182L114.606 331.325H115.031L115.88 332.186H116.304L116.729 332.617H117.153L118.002 333.479H118.427L118.851 333.91H119.276L119.7 334.341H120.124L120.549 334.771H120.973L121.822 335.633H122.247L122.671 336.064H123.096L123.52 336.495H123.945L124.369 336.926H124.794L125.643 337.787H126.067L126.491 338.218H126.916L127.34 338.649H127.765L128.189 339.08H128.614L129.038 339.511H129.463L129.887 339.942H130.312L130.736 340.372H131.161L131.585 340.803H132.01L132.434 341.234H132.858L133.283 341.665H134.132L134.556 342.096H136.254L136.679 342.527H140.499L140.923 342.096H142.621L143.046 341.665H143.47L143.895 341.234H144.319L144.744 340.803H145.168L145.593 340.372H146.017L146.441 339.942H146.866L147.29 339.511H147.715L148.139 339.08H148.564L148.988 338.649H149.413L149.837 338.218H150.262L150.686 337.787H151.111L151.535 337.357H151.96L152.808 336.495H153.233L153.657 336.064H154.082L154.506 335.633H154.931L155.355 335.202H155.78L156.204 334.771H156.629L157.478 333.91H157.902L158.327 333.479H158.751L159.176 333.048H159.6L160.449 332.186H160.873L161.298 331.755H161.722L162.571 330.894H162.996L163.42 330.463H163.845L164.694 329.601H165.118L165.543 329.17H165.967L166.816 328.309H167.24L167.665 327.878H168.089L168.938 327.016H169.363L170.212 326.154H170.636L171.061 325.724H171.485L172.334 324.862H172.758L173.607 324H174.032L174.881 323.138H175.305L176.154 322.277H176.579L177.428 321.415H177.852L178.701 320.553H179.125L179.974 319.692H180.399L181.672 318.399H182.097L182.946 317.537H183.37L184.219 316.676H184.644L185.917 315.383H186.341L187.615 314.091H188.039L188.888 313.229H189.313L190.586 311.936H191.011L192.284 310.644H192.708L194.406 308.92H194.831L196.529 307.197H196.953L198.651 305.474H199.075L200.773 303.75H201.198L203.32 301.596H203.745L206.291 299.011H206.716L209.263 296.426H209.687L213.932 292.117H214.356L230.486 275.745V275.314L233.882 271.867V271.436L236.853 268.42V267.989L239.4 265.404V264.974L241.098 263.25V262.819L242.796 261.096V260.665L244.494 258.942V258.511L245.343 257.649V257.218L247.04 255.495V255.064L247.889 254.202V253.771L249.163 252.479V252.048L250.012 251.186V250.755L250.861 249.894V249.463L251.71 248.601V248.17L252.558 247.309V246.878L253.407 246.016V245.585L253.832 245.154V244.724L254.681 243.862V243.431L255.105 243V242.569L255.954 241.708V241.277L256.379 240.846V240.415L257.228 239.553V239.122L257.652 238.692V238.261L258.077 237.83V237.399L258.501 236.968V236.537L258.926 236.106V235.676L259.774 234.814V234.383L260.199 233.952V233.521L260.623 233.091V232.66L261.048 232.229V231.798L261.472 231.367V230.936L261.897 230.505V230.075L262.321 229.644V229.213L262.746 228.782V227.92L263.17 227.489V227.059L263.595 226.628V226.197L264.019 225.766V225.335L264.444 224.904V224.473L264.868 224.043V223.181L265.292 222.75V222.319L265.717 221.888V221.458L266.141 221.027V220.165L266.566 219.734V218.872L266.99 218.442V218.011L267.415 217.58V216.718L267.839 216.287V215.426L268.264 214.995V214.564L268.688 214.133V213.271L269.113 212.841V211.979L269.537 211.548V210.686L269.962 210.255V208.963L270.386 208.532V207.67L270.811 207.239V206.378L271.235 205.947V205.085L271.66 204.654V203.362L272.084 202.931V201.638L272.508 201.208V199.915L272.933 199.484V198.192L273.357 197.761V196.037L273.782 195.606V194.314L274.206 193.883V192.16L274.631 191.729V189.575L275.055 189.144V186.989L275.48 186.559V183.973L275.904 183.543V180.527L276.329 180.096V176.218L276.753 175.787V168.463L277.178 168.032V60.75L276.753 60.3192V59.0266L276.329 58.5958V58.1649L275.904 57.7341V57.3032L275.48 56.8724V56.4415L272.933 53.8564H272.508L272.084 53.4256H271.66L271.235 52.9947H270.386L269.962 52.5638H269.537L269.113 52.133H268.688L268.264 51.7022H267.415L266.99 51.2713H266.566L266.141 50.8404H265.292L264.868 50.4096H264.444L264.019 49.9787H263.17L262.746 49.5479H262.321L261.897 49.117H261.048L260.623 48.6862H260.199L259.774 48.2553H258.926L258.501 47.8245H258.077L257.652 47.3936H256.803L256.379 46.9628H255.954L255.53 46.5319H255.105L254.681 46.1011H253.832L253.407 45.6702H252.558L252.134 45.2394H251.71L251.285 44.8085H250.436L250.012 44.3777H249.587L249.163 43.9468H248.738L248.314 43.516H247.465L247.04 43.0851H246.191L245.767 42.6543H245.343L244.918 42.2234H244.069L243.645 41.7926H243.22L242.796 41.3617H241.947L241.522 40.9309H241.098L240.673 40.5H240.249L239.824 40.0692H238.975L238.551 39.6383H237.702L237.278 39.2075H236.853L236.429 38.7766H235.58L235.155 38.3458H234.731L234.306 37.9149H233.882L233.457 37.4841H232.608L232.184 37.0532H231.76L231.335 36.6224H230.486L230.062 36.1915H229.637L229.213 35.7607H228.364L227.939 35.3298H227.515L227.09 34.8989H226.241L225.817 34.4681H224.968L224.544 34.0372H224.119L223.695 33.6064H223.27L222.846 33.1755H221.997L221.572 32.7447H221.148L220.723 32.3138H219.874L219.45 31.883H219.025L218.601 31.4521H217.752L217.328 31.0213H216.903L216.479 30.5904H215.63L215.205 30.1596H214.781L214.356 29.7287H213.507L213.083 29.2979H212.658L212.234 28.867H211.385L210.961 28.4362H210.536L210.112 28.0053H209.263L208.838 27.5745H208.414L207.989 27.1436H207.14L206.716 26.7128H206.291L205.867 26.2819H205.018L204.594 25.8511H204.169L203.745 25.4202H202.896L202.471 24.9894H202.047L201.622 24.5585H200.773L200.349 24.1277H199.924L199.5 23.6968H198.651L198.227 23.266H197.802L197.378 22.8351H196.529L196.104 22.4043H195.68L195.255 21.9734H194.406L193.982 21.5426H193.133L192.708 21.1117H192.284L191.86 20.6809H191.435L191.011 20.25H190.162L189.737 19.8192H189.313L188.888 19.3883H188.039L187.615 18.9575H187.19L186.766 18.5266H185.917L185.493 18.0958H185.068L184.644 17.6649H183.795L183.37 17.234H182.946L182.521 16.8032H181.672L181.248 16.3723H180.823L180.399 15.9415H179.55L179.125 15.5106H178.701L178.277 15.0798H177.428L177.003 14.6489H176.154L175.73 14.2181H175.305L174.881 13.7872H174.456L174.032 13.3564H173.183L172.758 12.9255H172.334L171.91 12.4947H171.061L170.636 12.0638H170.212L169.787 11.633H168.938L168.514 11.2021H168.089L167.665 10.7713H166.816L166.391 10.3404H165.967L165.543 9.90958H164.694L164.269 9.47873H163.845L163.42 9.04788H162.571L162.147 8.61702H161.722L161.298 8.18617H160.449L160.024 7.75532H159.6L159.176 7.32447H158.327L157.902 6.89362H157.478L157.053 6.46277H156.204L155.78 6.03192H155.355L154.931 5.60107H154.082L153.657 5.17021H153.233L152.808 4.73936H151.96L151.535 4.30851H151.111L150.686 3.87766H149.837L149.413 3.44681H148.988L148.564 3.01596H148.139L147.715 2.58511H146.866L146.441 2.15426H145.593L145.168 1.7234H144.744L144.319 1.29255H143.895L143.47 0.861702H142.621L142.197 0.430851H140.923L140.499 0H136.254Z"/>
</mask>
<path d="M136.254 0L135.83 0.430851H134.556L134.132 0.861702H133.707L133.283 1.29255H132.434L132.01 1.7234H131.585L131.161 2.15426H130.312L129.887 2.58511H129.463L129.038 3.01596H128.189L127.765 3.44681H127.34L126.916 3.87766H126.491L126.067 4.30851H125.218L124.794 4.73936H123.945L123.52 5.17021H123.096L122.671 5.60107H122.247L121.822 6.03192H120.973L120.549 6.46277H120.124L119.7 6.89362H118.851L118.427 7.32447H118.002L117.578 7.75532H116.729L116.304 8.18617H115.88L115.455 8.61702H114.606L114.182 9.04788H113.757L113.333 9.47873H112.484L112.06 9.90958H111.211L110.786 10.3404H110.362L109.937 10.7713H109.088L108.664 11.2021H108.239L107.815 11.633H106.966L106.541 12.0638H106.117L105.693 12.4947H104.844L104.419 12.9255H103.995L103.57 13.3564H103.146L102.721 13.7872H101.872L101.448 14.2181H101.023L100.599 14.6489H99.75L99.3255 15.0798H98.4766L98.0521 15.5106H97.6276L97.2032 15.9415H96.3542L95.9298 16.3723H95.5053L95.0808 16.8032H94.2319L93.8074 17.234H93.383L92.9585 17.6649H92.1096L91.6851 18.0958H91.2606L90.8362 18.5266H89.9872L89.5627 18.9575H89.1383L88.7138 19.3883H87.8649L87.4404 19.8192H87.0159L86.5915 20.25H86.167L85.7425 20.6809H84.8936L84.4691 21.1117H83.6202L83.1957 21.5426H82.7713L82.3468 21.9734H81.4979L81.0734 22.4043H80.6489L80.2245 22.8351H79.3755L78.951 23.266H78.5266L78.1021 23.6968H77.2532L76.8287 24.1277H76.4042L75.9798 24.5585H75.1308L74.7064 24.9894H74.2819L73.8574 25.4202H73.0085L72.584 25.8511H72.1596L71.7351 26.2819H70.8862L70.4617 26.7128H70.0372L69.6128 27.1436H69.1883L68.7638 27.5745H67.9149L67.4904 28.0053H66.6415L66.217 28.4362H65.7925L65.3681 28.867H64.5191L64.0947 29.2979H63.6702L63.2457 29.7287H62.3968L61.9723 30.1596H61.5479L61.1234 30.5904H60.2745L59.85 31.0213H59.4255L59.0011 31.4521H58.1521L57.7276 31.883H57.3032L56.8787 32.3138H56.0298L55.6053 32.7447H55.1808L54.7564 33.1755H53.9074L53.483 33.6064H53.0585L52.634 34.0372H52.2096L51.7851 34.4681H50.9362L50.5117 34.8989H49.6628L49.2383 35.3298H48.8138L48.3894 35.7607H47.5404L47.1159 36.1915H46.6915L46.267 36.6224H45.4181L44.9936 37.0532H44.5691L44.1447 37.4841H43.7202L43.2957 37.9149H42.4468L42.0223 38.3458H41.1734L40.7489 38.7766H40.3245L39.9 39.2075H39.0511L38.6266 39.6383H38.2021L37.7777 40.0692H37.3532L36.9287 40.5H36.0798L35.6553 40.9309H35.2308L34.8064 41.3617H33.9574L33.533 41.7926H32.684L32.2596 42.2234H31.8351L31.4106 42.6543H30.5617L30.1372 43.0851H29.7128L29.2883 43.516H28.4394L28.0149 43.9468H27.5904L27.166 44.3777H26.317L25.8925 44.8085H25.4681L25.0436 45.2394H24.1947L23.7702 45.6702H23.3457L22.9213 46.1011H22.0723L21.6479 46.5319H21.2234L20.7989 46.9628H20.3745L19.95 47.3936H19.1011L18.6766 47.8245H18.2521L17.8277 48.2553H16.9787L16.5543 48.6862H15.7053L15.2808 49.117H14.8564L14.4319 49.5479H13.583L13.1585 49.9787H12.734L12.3096 50.4096H11.8851L11.4606 50.8404H10.6117L10.1872 51.2713H9.76276L9.3383 51.7022H8.48936L8.06489 52.133H7.64042L7.21596 52.5638H6.36702L5.94255 52.9947H5.51808L5.09362 53.4256H4.66915L3.39574 54.7181H2.97128L2.12234 55.5798V56.0107L1.2734 56.8724V57.3032L0.848936 57.7341V58.1649L0.424468 58.5958V59.4575L0 59.8883V170.186L0.424468 170.617V175.787L0.848936 176.218V180.096L1.2734 180.527V183.543L1.69787 183.973V186.559L2.12234 186.989V189.144L2.54681 189.575V191.729L2.97128 192.16V193.883L3.39574 194.314V195.606L3.82021 196.037V197.761L4.24468 198.192V199.915L4.66915 200.346V201.638L5.09362 202.069V203.362L5.51808 203.793V204.654L5.94255 205.085V206.378L6.36702 206.809V208.101L6.79149 208.532V209.394L7.21596 209.825V210.686L7.64042 211.117V211.979L8.06489 212.41V213.271L8.48936 213.702V214.564L8.91383 214.995V215.856L9.3383 216.287V217.149L9.76276 217.58V218.011L10.1872 218.442V219.303L10.6117 219.734V220.596L11.0362 221.027V221.458L11.4606 221.888V222.75L11.8851 223.181V223.612L12.3096 224.043V224.473L12.734 224.904V225.335L13.1585 225.766V226.628L13.583 227.059V227.489L14.0074 227.92V228.351L14.4319 228.782V229.213L14.8564 229.644V230.075L15.2808 230.505V230.936L15.7053 231.367V231.798L16.1298 232.229V232.66L16.5543 233.091V233.521L16.9787 233.952V234.383L17.4032 234.814V235.245L17.8277 235.676V236.106L18.2521 236.537V236.968L19.1011 237.83V238.261L19.5255 238.692V239.122L19.95 239.553V239.984L20.3745 240.415V240.846L21.2234 241.708V242.138L21.6479 242.569V243L22.4968 243.862V244.293L23.3457 245.154V245.585L23.7702 246.016V246.447L24.6191 247.309V247.739L25.4681 248.601V249.032L26.317 249.894V250.325L27.166 251.186V251.617L28.0149 252.479V252.91L29.2883 254.202V254.633L30.5617 255.926V256.356L31.4106 257.218V257.649L32.684 258.942V259.372L33.9574 260.665V261.096L35.6553 262.819V263.25L37.7777 265.404V265.835L39.9 267.989V268.42L42.4468 271.005V271.436L45.8425 274.883V275.314L57.3032 286.947V287.378H57.7276L64.5191 294.271H64.9436L68.3393 297.718H68.7638L71.3106 300.303H71.7351L73.8574 302.458H74.2819L76.4042 304.612H76.8287L78.5266 306.335H78.951L80.6489 308.059H81.0734L82.7713 309.782H83.1957L84.4691 311.075H84.8936L86.167 312.367H86.5915L87.8649 313.66H88.2893L89.5627 314.952H89.9872L90.8362 315.814H91.2606L92.534 317.107H92.9585L93.8074 317.968H94.2319L95.0808 318.83H95.5053L96.3542 319.692H96.7787L97.6276 320.553H98.0521L98.901 321.415H99.3255L100.174 322.277H100.599L101.448 323.138H101.872L102.721 324H103.146L103.995 324.862H104.419L105.268 325.724H105.693L106.117 326.154H106.541L107.39 327.016H107.815L108.664 327.878H109.088L109.513 328.309H109.937L110.786 329.17H111.211L111.635 329.601H112.06L112.908 330.463H113.333L113.757 330.894H114.182L114.606 331.325H115.031L115.88 332.186H116.304L116.729 332.617H117.153L118.002 333.479H118.427L118.851 333.91H119.276L119.7 334.341H120.124L120.549 334.771H120.973L121.822 335.633H122.247L122.671 336.064H123.096L123.52 336.495H123.945L124.369 336.926H124.794L125.643 337.787H126.067L126.491 338.218H126.916L127.34 338.649H127.765L128.189 339.08H128.614L129.038 339.511H129.463L129.887 339.942H130.312L130.736 340.372H131.161L131.585 340.803H132.01L132.434 341.234H132.858L133.283 341.665H134.132L134.556 342.096H136.254L136.679 342.527H140.499L140.923 342.096H142.621L143.046 341.665H143.47L143.895 341.234H144.319L144.744 340.803H145.168L145.593 340.372H146.017L146.441 339.942H146.866L147.29 339.511H147.715L148.139 339.08H148.564L148.988 338.649H149.413L149.837 338.218H150.262L150.686 337.787H151.111L151.535 337.357H151.96L152.808 336.495H153.233L153.657 336.064H154.082L154.506 335.633H154.931L155.355 335.202H155.78L156.204 334.771H156.629L157.478 333.91H157.902L158.327 333.479H158.751L159.176 333.048H159.6L160.449 332.186H160.873L161.298 331.755H161.722L162.571 330.894H162.996L163.42 330.463H163.845L164.694 329.601H165.118L165.543 329.17H165.967L166.816 328.309H167.24L167.665 327.878H168.089L168.938 327.016H169.363L170.212 326.154H170.636L171.061 325.724H171.485L172.334 324.862H172.758L173.607 324H174.032L174.881 323.138H175.305L176.154 322.277H176.579L177.428 321.415H177.852L178.701 320.553H179.125L179.974 319.692H180.399L181.672 318.399H182.097L182.946 317.537H183.37L184.219 316.676H184.644L185.917 315.383H186.341L187.615 314.091H188.039L188.888 313.229H189.313L190.586 311.936H191.011L192.284 310.644H192.708L194.406 308.92H194.831L196.529 307.197H196.953L198.651 305.474H199.075L200.773 303.75H201.198L203.32 301.596H203.745L206.291 299.011H206.716L209.263 296.426H209.687L213.932 292.117H214.356L230.486 275.745V275.314L233.882 271.867V271.436L236.853 268.42V267.989L239.4 265.404V264.974L241.098 263.25V262.819L242.796 261.096V260.665L244.494 258.942V258.511L245.343 257.649V257.218L247.04 255.495V255.064L247.889 254.202V253.771L249.163 252.479V252.048L250.012 251.186V250.755L250.861 249.894V249.463L251.71 248.601V248.17L252.558 247.309V246.878L253.407 246.016V245.585L253.832 245.154V244.724L254.681 243.862V243.431L255.105 243V242.569L255.954 241.708V241.277L256.379 240.846V240.415L257.228 239.553V239.122L257.652 238.692V238.261L258.077 237.83V237.399L258.501 236.968V236.537L258.926 236.106V235.676L259.774 234.814V234.383L260.199 233.952V233.521L260.623 233.091V232.66L261.048 232.229V231.798L261.472 231.367V230.936L261.897 230.505V230.075L262.321 229.644V229.213L262.746 228.782V227.92L263.17 227.489V227.059L263.595 226.628V226.197L264.019 225.766V225.335L264.444 224.904V224.473L264.868 224.043V223.181L265.292 222.75V222.319L265.717 221.888V221.458L266.141 221.027V220.165L266.566 219.734V218.872L266.99 218.442V218.011L267.415 217.58V216.718L267.839 216.287V215.426L268.264 214.995V214.564L268.688 214.133V213.271L269.113 212.841V211.979L269.537 211.548V210.686L269.962 210.255V208.963L270.386 208.532V207.67L270.811 207.239V206.378L271.235 205.947V205.085L271.66 204.654V203.362L272.084 202.931V201.638L272.508 201.208V199.915L272.933 199.484V198.192L273.357 197.761V196.037L273.782 195.606V194.314L274.206 193.883V192.16L274.631 191.729V189.575L275.055 189.144V186.989L275.48 186.559V183.973L275.904 183.543V180.527L276.329 180.096V176.218L276.753 175.787V168.463L277.178 168.032V60.75L276.753 60.3192V59.0266L276.329 58.5958V58.1649L275.904 57.7341V57.3032L275.48 56.8724V56.4415L272.933 53.8564H272.508L272.084 53.4256H271.66L271.235 52.9947H270.386L269.962 52.5638H269.537L269.113 52.133H268.688L268.264 51.7022H267.415L266.99 51.2713H266.566L266.141 50.8404H265.292L264.868 50.4096H264.444L264.019 49.9787H263.17L262.746 49.5479H262.321L261.897 49.117H261.048L260.623 48.6862H260.199L259.774 48.2553H258.926L258.501 47.8245H258.077L257.652 47.3936H256.803L256.379 46.9628H255.954L255.53 46.5319H255.105L254.681 46.1011H253.832L253.407 45.6702H252.558L252.134 45.2394H251.71L251.285 44.8085H250.436L250.012 44.3777H249.587L249.163 43.9468H248.738L248.314 43.516H247.465L247.04 43.0851H246.191L245.767 42.6543H245.343L244.918 42.2234H244.069L243.645 41.7926H243.22L242.796 41.3617H241.947L241.522 40.9309H241.098L240.673 40.5H240.249L239.824 40.0692H238.975L238.551 39.6383H237.702L237.278 39.2075H236.853L236.429 38.7766H235.58L235.155 38.3458H234.731L234.306 37.9149H233.882L233.457 37.4841H232.608L232.184 37.0532H231.76L231.335 36.6224H230.486L230.062 36.1915H229.637L229.213 35.7607H228.364L227.939 35.3298H227.515L227.09 34.8989H226.241L225.817 34.4681H224.968L224.544 34.0372H224.119L223.695 33.6064H223.27L222.846 33.1755H221.997L221.572 32.7447H221.148L220.723 32.3138H219.874L219.45 31.883H219.025L218.601 31.4521H217.752L217.328 31.0213H216.903L216.479 30.5904H215.63L215.205 30.1596H214.781L214.356 29.7287H213.507L213.083 29.2979H212.658L212.234 28.867H211.385L210.961 28.4362H210.536L210.112 28.0053H209.263L208.838 27.5745H208.414L207.989 27.1436H207.14L206.716 26.7128H206.291L205.867 26.2819H205.018L204.594 25.8511H204.169L203.745 25.4202H202.896L202.471 24.9894H202.047L201.622 24.5585H200.773L200.349 24.1277H199.924L199.5 23.6968H198.651L198.227 23.266H197.802L197.378 22.8351H196.529L196.104 22.4043H195.68L195.255 21.9734H194.406L193.982 21.5426H193.133L192.708 21.1117H192.284L191.86 20.6809H191.435L191.011 20.25H190.162L189.737 19.8192H189.313L188.888 19.3883H188.039L187.615 18.9575H187.19L186.766 18.5266H185.917L185.493 18.0958H185.068L184.644 17.6649H183.795L183.37 17.234H182.946L182.521 16.8032H181.672L181.248 16.3723H180.823L180.399 15.9415H179.55L179.125 15.5106H178.701L178.277 15.0798H177.428L177.003 14.6489H176.154L175.73 14.2181H175.305L174.881 13.7872H174.456L174.032 13.3564H173.183L172.758 12.9255H172.334L171.91 12.4947H171.061L170.636 12.0638H170.212L169.787 11.633H168.938L168.514 11.2021H168.089L167.665 10.7713H166.816L166.391 10.3404H165.967L165.543 9.90958H164.694L164.269 9.47873H163.845L163.42 9.04788H162.571L162.147 8.61702H161.722L161.298 8.18617H160.449L160.024 7.75532H159.6L159.176 7.32447H158.327L157.902 6.89362H157.478L157.053 6.46277H156.204L155.78 6.03192H155.355L154.931 5.60107H154.082L153.657 5.17021H153.233L152.808 4.73936H151.96L151.535 4.30851H151.111L150.686 3.87766H149.837L149.413 3.44681H148.988L148.564 3.01596H148.139L147.715 2.58511H146.866L146.441 2.15426H145.593L145.168 1.7234H144.744L144.319 1.29255H143.895L143.47 0.861702H142.621L142.197 0.430851H140.923L140.499 0H136.254Z" fill="url(#paint0_linear_2091_18)" stroke="white" stroke-width="4" mask="url(#path-1-inside-1_2091_18)"/>
<path d="M209.444 165.008C207.648 169.475 203.374 172.363 198.557 172.363H194.328V208.396C194.328 213.621 190.08 217.87 184.856 217.87H98.0161C92.793 217.87 88.5441 213.621 88.5441 208.396V172.363H84.3141C79.4989 172.363 75.2251 169.475 73.4266 165.008C71.6301 160.54 72.7126 155.498 76.1848 152.163L133.306 97.2925C137.865 92.9126 145.008 92.9126 149.567 97.2946L179.184 125.746L137.059 175.244L119.916 154.847C118.384 153.021 116.136 151.974 113.75 151.974C111.858 151.974 110.02 152.644 108.571 153.862C106.924 155.246 105.914 157.189 105.727 159.331C105.542 161.475 106.202 163.563 107.586 165.21L130.856 192.897C132.384 194.714 134.622 195.762 137.009 195.768H137.02C139.385 195.768 141.62 194.735 143.155 192.935L190.821 136.923L194.054 140.029L206.688 152.163C210.16 155.498 211.243 160.54 209.444 165.008Z" fill="white"/>
<defs>
<linearGradient id="paint0_linear_2091_18" x1="277.178" y1="171.263" x2="0" y2="171.263" gradientUnits="userSpaceOnUse">
<stop offset="0.259615" stop-color="#45BFA2"/>
<stop offset="0.504808" stop-color="#198B6C"/>
</linearGradient>
</defs>
</svg>
