<svg width="97" height="118" viewBox="0 0 97 118" fill="none" xmlns="http://www.w3.org/2000/svg">
<path d="M96.138 113.941C96.138 115.724 94.679 117.183 92.896 117.183H3.242C1.459 117.183 0 115.724 0 113.941V107.905C0 106.122 1.459 104.662 3.242 104.662H92.896C94.679 104.662 96.138 106.122 96.138 107.905V113.941Z" fill="#003C5B"/>
<path d="M55.996 44.1978C55.996 44.5728 55.689 44.8788 55.315 44.8788H41.088C40.713 44.8788 40.406 44.5728 40.406 44.1978V34.3928C40.406 34.0188 40.713 33.7118 41.088 33.7118H55.315C55.689 33.7118 55.996 34.0188 55.996 34.3928V44.1978Z" fill="#003C5B"/>
<path d="M55.996 59.4108C55.996 59.7848 55.689 60.0918 55.315 60.0918H41.088C40.713 60.0918 40.406 59.7848 40.406 59.4108V49.6058C40.406 49.2308 40.713 48.9248 41.088 48.9248H55.315C55.689 48.9248 55.996 49.2318 55.996 49.6058V59.4108Z" fill="#003C5B"/>
<path d="M55.996 74.6228C55.996 74.9968 55.689 75.3028 55.315 75.3028H41.088C40.713 75.3028 40.406 74.9968 40.406 74.6228V64.8178C40.406 64.4438 40.713 64.1368 41.088 64.1368H55.315C55.689 64.1368 55.996 64.4438 55.996 64.8178V74.6228Z" fill="#003C5B"/>
<path d="M80.361 44.1978C80.361 44.5728 80.054 44.8788 79.679 44.8788H65.452C65.078 44.8788 64.771 44.5728 64.771 44.1978V34.3928C64.771 34.0188 65.078 33.7118 65.452 33.7118H79.679C80.054 33.7118 80.361 34.0188 80.361 34.3928V44.1978Z" fill="#003C5B"/>
<path d="M80.361 59.4108C80.361 59.7848 80.054 60.0918 79.679 60.0918H65.452C65.078 60.0918 64.771 59.7848 64.771 59.4108V49.6058C64.771 49.2308 65.078 48.9248 65.452 48.9248H79.679C80.054 48.9248 80.361 49.2318 80.361 49.6058V59.4108Z" fill="#003C5B"/>
<path d="M80.361 74.6228C80.361 74.9968 80.054 75.3028 79.679 75.3028H65.452C65.078 75.3028 64.771 74.9968 64.771 74.6228V64.8178C64.771 64.4438 65.078 64.1368 65.452 64.1368H79.679C80.054 64.1368 80.361 64.4438 80.361 64.8178V74.6228Z" fill="#003C5B"/>
<path d="M31.631 44.1978C31.631 44.5728 31.324 44.8788 30.95 44.8788H16.723C16.348 44.8788 16.041 44.5728 16.041 44.1978V34.3928C16.041 34.0188 16.348 33.7118 16.723 33.7118H30.95C31.324 33.7118 31.631 34.0188 31.631 34.3928V44.1978Z" fill="#003C5B"/>
<path d="M31.631 59.4108C31.631 59.7848 31.324 60.0918 30.95 60.0918H16.723C16.348 60.0918 16.041 59.7848 16.041 59.4108V49.6058C16.041 49.2308 16.348 48.9248 16.723 48.9248H30.95C31.324 48.9248 31.631 49.2318 31.631 49.6058V59.4108Z" fill="#003C5B"/>
<path d="M31.631 74.6228C31.631 74.9968 31.324 75.3028 30.95 75.3028H16.723C16.348 75.3028 16.041 74.9968 16.041 74.6228V64.8178C16.041 64.4438 16.348 64.1368 16.723 64.1368H30.95C31.324 64.1368 31.631 64.4438 31.631 64.8178V74.6228Z" fill="#003C5B"/>
<path d="M47.848 0.16875C47.969 -0.05625 48.169 -0.05625 48.291 0.16875C48.985 1.44475 49.669 2.72275 50.342 4.00475C50.46 4.22975 50.774 4.44475 51.041 4.48475C52.566 4.70775 54.087 4.94775 55.603 5.20275C55.869 5.24775 55.922 5.42075 55.724 5.58875C54.59 6.54275 53.471 7.50575 52.367 8.47775C52.173 8.64875 52.049 8.98975 52.089 9.23675C52.32 10.6438 52.545 12.0498 52.766 13.4558C52.804 13.7018 52.649 13.8057 52.423 13.6857C51.123 12.9967 49.814 12.3207 48.492 11.6567C48.261 11.5407 47.88 11.5407 47.649 11.6567C46.327 12.3217 45.016 12.9967 43.717 13.6857C43.49 13.8047 43.336 13.7018 43.373 13.4558C43.595 12.0498 43.821 10.6438 44.051 9.23675C44.091 8.98975 43.967 8.64875 43.773 8.47775C42.669 7.50575 41.548 6.54275 40.415 5.58875C40.217 5.42175 40.27 5.24875 40.536 5.20275C42.054 4.94775 43.573 4.70775 45.099 4.48475C45.367 4.44375 45.681 4.22875 45.798 4.00475C46.469 2.72275 47.153 1.44475 47.848 0.16875Z" fill="#003C5B"/>
<path d="M63.498 4.72374C63.609 4.54174 63.773 4.55074 63.861 4.74474C64.37 5.84974 64.87 6.95674 65.361 8.06574C65.447 8.25974 65.6959 8.45574 65.9139 8.50174C67.1579 8.76074 68.399 9.02974 69.637 9.30974C69.854 9.35874 69.8899 9.50774 69.7189 9.63974C68.7419 10.3937 67.7759 11.1547 66.8179 11.9197C66.6499 12.0547 66.532 12.3357 66.553 12.5447C66.677 13.7367 66.798 14.9297 66.915 16.1207C66.937 16.3297 66.803 16.4107 66.619 16.2977C65.577 15.6607 64.527 15.0307 63.465 14.4097C63.279 14.3007 62.9659 14.2817 62.7679 14.3677C61.6429 14.8637 60.525 15.3647 59.416 15.8767C59.222 15.9667 59.1 15.8727 59.144 15.6667C59.399 14.4967 59.658 13.3267 59.919 12.1577C59.965 11.9527 59.8799 11.6587 59.7289 11.5067C58.8669 10.6337 57.9959 9.76674 57.1149 8.90474C56.9599 8.75274 57.013 8.60974 57.234 8.58674C58.495 8.45274 59.758 8.32874 61.024 8.21674C61.246 8.19674 61.5149 8.03174 61.6249 7.84874C62.2399 6.80374 62.865 5.76274 63.498 4.72374Z" fill="#003C5B"/>
<path d="M31.425 4.74477C31.514 4.55177 31.6791 4.54077 31.7881 4.72377C32.4221 5.76177 33.0461 6.80377 33.6631 7.84877C33.7721 8.03077 34.0401 8.19677 34.2631 8.21677C35.5291 8.32977 36.7921 8.45177 38.0521 8.58677C38.2741 8.60977 38.3271 8.75377 38.1741 8.90377C37.2901 9.76577 36.4191 10.6338 35.5591 11.5068C35.4081 11.6598 35.3221 11.9528 35.3681 12.1568C35.6301 13.3268 35.8871 14.4968 36.1431 15.6678C36.1871 15.8728 36.0661 15.9668 35.8711 15.8778C34.7611 15.3658 33.6441 14.8628 32.5181 14.3698C32.3211 14.2818 32.0081 14.3018 31.8231 14.4088C30.7601 15.0318 29.7101 15.6608 28.6681 16.2978C28.4851 16.4088 28.3521 16.3298 28.3721 16.1208C28.4901 14.9278 28.6111 13.7358 28.7341 12.5448C28.7571 12.3358 28.636 12.0538 28.469 11.9198C27.512 11.1528 26.545 10.3928 25.568 9.63977C25.397 9.50677 25.4331 9.35877 25.6501 9.30877C26.8881 9.02977 28.1281 8.75977 29.3741 8.50077C29.5911 8.45677 29.8401 8.25977 29.9271 8.06577C30.4171 6.95677 30.916 5.84977 31.425 4.74477Z" fill="#003C5B"/>
<path d="M76.3871 14.3548C76.4701 14.2318 76.5811 14.2448 76.6331 14.3838C76.9321 15.1758 77.2271 15.9678 77.5161 16.7608C77.5661 16.9008 77.7291 17.0458 77.8751 17.0858C78.7121 17.3118 79.5471 17.5438 80.3811 17.7818C80.5251 17.8228 80.5451 17.9278 80.4241 18.0148C79.7291 18.5068 79.0401 19.0048 78.3561 19.5058C78.2341 19.5938 78.1431 19.7858 78.1501 19.9328C78.1881 20.7698 78.2231 21.6078 78.2571 22.4448C78.2621 22.5918 78.1681 22.6428 78.0481 22.5578C77.3571 22.0748 76.6611 21.5958 75.9601 21.1198C75.8391 21.0368 75.6241 21.0118 75.4851 21.0648C74.6931 21.3648 73.9071 21.6718 73.1241 21.9818C72.9861 22.0368 72.9061 21.9658 72.9461 21.8238C73.1721 21.0178 73.4011 20.2118 73.6321 19.4048C73.6711 19.2638 73.6251 19.0558 73.5281 18.9428C72.9791 18.2968 72.4241 17.6548 71.8621 17.0128C71.7641 16.9018 71.8071 16.8038 71.9591 16.7968C72.8241 16.7578 73.6881 16.7248 74.5551 16.6968C74.7071 16.6928 74.8991 16.5878 74.9791 16.4638C75.4451 15.7598 75.9131 15.0568 76.3871 14.3548Z" fill="#003C5B"/>
<path d="M19.5791 14.5008C19.6321 14.3618 19.743 14.3488 19.826 14.4728C20.299 15.1738 20.7671 15.8768 21.2321 16.5808C21.3141 16.7028 21.5051 16.8088 21.6561 16.8128C22.5221 16.8398 23.3871 16.8738 24.2501 16.9128C24.4031 16.9198 24.4451 17.0168 24.3481 17.1288C23.7871 17.7698 23.2321 18.4118 22.6831 19.0578C22.5851 19.1708 22.5401 19.3788 22.5811 19.5208C22.8111 20.3258 23.039 21.1328 23.266 21.9388C23.306 22.0818 23.226 22.1518 23.089 22.0978C22.307 21.7868 21.5201 21.4808 20.7291 21.1798C20.5901 21.1278 20.376 21.1528 20.253 21.2358C19.553 21.7108 18.8571 22.1898 18.1671 22.6738C18.0481 22.7568 17.9531 22.7068 17.9581 22.5598C17.9921 21.7218 18.0281 20.8858 18.0671 20.0478C18.0711 19.9018 17.9801 19.7088 17.8601 19.6208C17.1751 19.1198 16.4871 18.6228 15.7931 18.1298C15.6701 18.0428 15.6911 17.9388 15.8361 17.8978C16.6691 17.6598 17.5041 17.4278 18.3401 17.2008C18.4861 17.1608 18.6491 17.0148 18.6981 16.8758C18.9871 16.0838 19.2811 15.2908 19.5791 14.5008Z" fill="#003C5B"/>
<path d="M26.4463 19.3257C26.3213 19.4727 26.2612 19.7427 26.3142 19.9257C26.5052 20.5957 26.6942 21.2667 26.8832 21.9367H69.2262C69.4302 21.2147 69.6322 20.4947 69.8392 19.7727C69.8912 19.5897 69.8312 19.3197 69.7062 19.1737C69.5962 19.0447 69.4833 18.9177 69.3733 18.7887H26.9082C26.7552 18.9687 26.5993 19.1467 26.4463 19.3257Z" fill="#003C5B"/>
<path d="M12.3711 111.709H83.7661C87.0201 111.709 89.6671 109.084 89.7121 105.842H86.5611C86.5161 107.348 85.2841 108.561 83.7661 108.561H12.3711C10.8531 108.561 9.62209 107.349 9.57709 105.842H6.42505C6.47005 109.084 9.11809 111.709 12.3711 111.709Z" fill="#003C5B"/>
<path d="M9.56915 100.906V24.7397C9.56915 23.1937 10.8271 21.9367 12.3721 21.9367H14.0391C14.0581 21.4947 14.0752 21.0527 14.0972 20.6107C14.1062 20.4207 13.9861 20.1707 13.8301 20.0577C13.2471 19.6317 12.6582 19.2107 12.0712 18.7887C8.79017 18.7887 6.42212 21.4577 6.42212 24.7397V100.906H9.56915Z" fill="#003C5B"/>
<path d="M83.7661 21.9367C85.3121 21.9367 86.5692 23.1937 86.5692 24.7397V100.906H89.7161V24.7397C89.7161 21.4587 87.1602 18.7887 83.8792 18.7887C83.3612 19.1607 82.8411 19.5307 82.3281 19.9057C82.1721 20.0197 82.0532 20.2707 82.0612 20.4587C82.0822 20.9517 82.1022 21.4437 82.1242 21.9367H83.7661Z" fill="#003C5B"/>
<path d="M63.6561 101.907V81.5898C63.6561 80.7948 63.0051 80.1458 62.2121 80.1458H33.9521C33.1581 80.1458 32.5071 80.7958 32.5071 81.5898V101.907H63.6561Z" fill="#003C5B"/>
</svg>
