<svg width="787" height="787" viewBox="0 0 787 787" fill="none" xmlns="http://www.w3.org/2000/svg">
<rect x="2" y="2" width="783" height="783" rx="154" fill="white" stroke="url(#paint0_linear_2283_20)" stroke-width="4"/>
<g filter="url(#filter0_d_2283_20)">
<path d="M359.381 335.8C359.381 318.467 354.376 304.817 344.367 294.85C334.357 284.883 320.649 279.9 303.241 279.9H215.114C197.706 279.9 183.997 284.883 173.988 294.85C164.414 304.817 159.627 318.467 159.627 335.8V547.7C159.627 557.233 154.839 562 145.265 562H109.361C99.7871 562 95 557.233 95 547.7V325.4C95 294.633 104.357 270.15 123.07 251.95C141.783 233.317 166.372 224 196.836 224H306.505C327.394 224 344.802 228.333 358.728 237C373.09 245.667 383.97 257.583 391.368 272.75C398.766 257.583 409.429 245.667 423.355 237C437.716 228.333 455.342 224 476.231 224H589.164C620.063 224 644.652 233.317 662.93 251.95C681.643 270.15 691 294.633 691 325.4V547.7C691 557.233 686.43 562 677.291 562H641.388C631.813 562 627.026 557.233 627.026 547.7V335.8C627.026 318.467 622.022 304.817 612.012 294.85C602.003 284.883 588.294 279.9 570.886 279.9H479.495C462.087 279.9 448.379 284.883 438.369 294.85C428.36 304.817 423.355 318.467 423.355 335.8V547.7C423.355 557.233 418.568 562 408.993 562H373.09C363.951 562 359.381 557.233 359.381 547.7V335.8Z" fill="url(#paint1_linear_2283_20)"/>
</g>
<defs>
<filter id="filter0_d_2283_20" x="91" y="224" width="604" height="346" filterUnits="userSpaceOnUse" color-interpolation-filters="sRGB">
<feFlood flood-opacity="0" result="BackgroundImageFix"/>
<feColorMatrix in="SourceAlpha" type="matrix" values="0 0 0 0 0 0 0 0 0 0 0 0 0 0 0 0 0 0 127 0" result="hardAlpha"/>
<feOffset dy="4"/>
<feGaussianBlur stdDeviation="2"/>
<feComposite in2="hardAlpha" operator="out"/>
<feColorMatrix type="matrix" values="0 0 0 0 0 0 0 0 0 0 0 0 0 0 0 0 0 0 0.25 0"/>
<feBlend mode="normal" in2="BackgroundImageFix" result="effect1_dropShadow_2283_20"/>
<feBlend mode="normal" in="SourceGraphic" in2="effect1_dropShadow_2283_20" result="shape"/>
</filter>
<linearGradient id="paint0_linear_2283_20" x1="2" y1="393.5" x2="785" y2="393.5" gradientUnits="userSpaceOnUse">
<stop offset="0.254859" stop-color="#469EF6"/>
<stop offset="0.697173" stop-color="#6300AD"/>
</linearGradient>
<linearGradient id="paint1_linear_2283_20" x1="95" y1="393" x2="691" y2="393" gradientUnits="userSpaceOnUse">
<stop offset="0.254859" stop-color="#469EF6"/>
<stop offset="0.697173" stop-color="#6300AD"/>
</linearGradient>
</defs>
</svg>
