<svg width="1669" height="185" viewBox="0 0 1669 185" fill="none" xmlns="http://www.w3.org/2000/svg">
<path d="M101.25 97.5C101.25 90.8333 99.3333 85.5833 95.5 81.75C91.6667 77.9167 86.4167 76 79.75 76H46C39.3333 76 34.0833 77.9167 30.25 81.75C26.5833 85.5833 24.75 90.8333 24.75 97.5V179C24.75 182.667 22.9167 184.5 19.25 184.5H5.5C1.83333 184.5 0 182.667 0 179V93.5C0 81.6667 3.58333 72.25 10.75 65.25C17.9167 58.0833 27.3333 54.5 39 54.5H81C89 54.5 95.6667 56.1667 101 59.5C106.5 62.8333 110.667 67.4167 113.5 73.25C116.333 67.4167 120.417 62.8333 125.75 59.5C131.25 56.1667 138 54.5 146 54.5H189.25C201.083 54.5 210.5 58.0833 217.5 65.25C224.667 72.25 228.25 81.6667 228.25 93.5V179C228.25 182.667 226.5 184.5 223 184.5H209.25C205.583 184.5 203.75 182.667 203.75 179V97.5C203.75 90.8333 201.833 85.5833 198 81.75C194.167 77.9167 188.917 76 182.25 76H147.25C140.583 76 135.333 77.9167 131.5 81.75C127.667 85.5833 125.75 90.8333 125.75 97.5V179C125.75 182.667 123.917 184.5 120.25 184.5H106.5C103 184.5 101.25 182.667 101.25 179V97.5Z" fill="url(#paint0_linear_2283_29)"/>
<path d="M392.533 108.75V97.5C392.533 90.8333 390.617 85.5833 386.783 81.75C382.95 77.9167 377.7 76 371.033 76H264.783C261.283 76 259.533 74.25 259.533 70.75V60C259.533 56.3333 261.283 54.5 264.783 54.5H378.033C389.7 54.5 399.117 58.0833 406.283 65.25C413.45 72.25 417.033 81.6667 417.033 93.5V148C417.033 159.833 413.867 168.917 407.533 175.25C401.2 181.417 392.2 184.5 380.533 184.5H287.783C265.117 184.5 253.783 173.083 253.783 150.25V143C253.783 120.167 265.117 108.75 287.783 108.75H392.533ZM374.783 163C386.617 163 392.533 157.083 392.533 145.25V130.25H293.783C288.117 130.25 284.117 131.5 281.783 134C279.45 136.5 278.283 140.417 278.283 145.75V147.5C278.283 152.833 279.45 156.75 281.783 159.25C284.117 161.75 288.117 163 293.783 163H374.783Z" fill="url(#paint1_linear_2283_29)"/>
<path d="M471.283 147.75C471.283 153.083 472.367 157 474.533 159.5C476.7 161.833 480.45 163 485.783 163H488.783C492.45 163 494.283 164.75 494.283 168.25V179C494.283 182.667 492.45 184.5 488.783 184.5H480.533C457.867 184.5 446.533 173.083 446.533 150.25V60C446.533 56.3333 448.367 54.5 452.033 54.5H465.783C469.45 54.5 471.283 56.3333 471.283 60V147.75ZM471.283 25.25C471.283 28.75 469.45 30.5 465.783 30.5H452.033C448.367 30.5 446.533 28.75 446.533 25.25V5.5C446.533 1.83333 448.367 0 452.033 0H465.783C469.45 0 471.283 1.83333 471.283 5.5V25.25Z" fill="url(#paint2_linear_2283_29)"/>
<path d="M516.602 93.5C516.602 81.6667 520.185 72.25 527.352 65.25C534.518 58.0833 543.935 54.5 555.602 54.5H639.102C650.935 54.5 660.435 58.0833 667.602 65.25C674.768 72.25 678.352 81.6667 678.352 93.5V179C678.352 182.667 676.518 184.5 672.852 184.5H659.102C655.435 184.5 653.602 182.667 653.602 179V97.5C653.602 90.8333 651.685 85.5833 647.852 81.75C644.185 77.9167 639.018 76 632.352 76H562.602C555.935 76 550.685 77.9167 546.852 81.75C543.185 85.5833 541.352 90.8333 541.352 97.5V179C541.352 182.667 539.518 184.5 535.852 184.5H522.102C518.435 184.5 516.602 182.667 516.602 179V93.5Z" fill="url(#paint3_linear_2283_29)"/>
<path d="M817.74 54.5C825.074 54.5 831.24 55.75 836.24 58.25C841.407 60.75 845.49 64.1667 848.49 68.5V5.5C848.49 1.83333 850.24 0 853.74 0H867.49C871.157 0 872.99 1.83333 872.99 5.5V145.5C872.99 157.333 869.407 166.833 862.24 174C855.074 181 845.657 184.5 833.99 184.5H746.74C735.074 184.5 725.657 181 718.49 174C711.324 166.833 707.74 157.333 707.74 145.5V93.5C707.74 81.6667 711.324 72.25 718.49 65.25C725.657 58.0833 735.074 54.5 746.74 54.5H817.74ZM848.49 97.5C848.49 90.8333 846.574 85.5833 842.74 81.75C838.907 77.9167 833.657 76 826.99 76H753.74C747.074 76 741.824 77.9167 737.99 81.75C734.157 85.5833 732.24 90.8333 732.24 97.5V141.5C732.24 148.167 734.157 153.417 737.99 157.25C741.824 161.083 747.074 163 753.74 163H826.99C833.657 163 838.907 161.083 842.74 157.25C846.574 153.417 848.49 148.167 848.49 141.5V97.5Z" fill="url(#paint4_linear_2283_29)"/>
<path d="M1027.06 54.5C1038.73 54.5 1048.15 58.0833 1055.31 65.25C1062.48 72.25 1066.06 81.6667 1066.06 93.5V179C1066.06 182.667 1064.31 184.5 1060.81 184.5H1047.06C1043.4 184.5 1041.56 182.667 1041.56 179V97.5C1041.56 90.8333 1039.65 85.5833 1035.81 81.75C1031.98 77.9167 1026.73 76 1020.06 76H950.564C943.898 76 938.648 77.9167 934.814 81.75C931.148 85.5833 929.314 90.8333 929.314 97.5V179C929.314 182.667 927.481 184.5 923.814 184.5H910.064C906.398 184.5 904.564 182.667 904.564 179V5.5C904.564 1.83333 906.398 0 910.064 0H923.814C927.481 0 929.314 1.83333 929.314 5.5V68.5C932.314 64.1667 936.314 60.75 941.314 58.25C946.314 55.75 952.564 54.5 960.064 54.5H1027.06Z" fill="url(#paint5_linear_2283_29)"/>
<path d="M1134.68 184.5C1123.01 184.5 1113.6 181 1106.43 174C1099.26 166.833 1095.68 157.333 1095.68 145.5V93.5C1095.68 81.6667 1099.26 72.25 1106.43 65.25C1113.6 58.0833 1123.01 54.5 1134.68 54.5H1221.93C1233.6 54.5 1243.01 58.0833 1250.18 65.25C1257.35 72.25 1260.93 81.6667 1260.93 93.5V145.5C1260.93 157.333 1257.35 166.833 1250.18 174C1243.01 181 1233.6 184.5 1221.93 184.5H1134.68ZM1141.68 76C1135.01 76 1129.76 77.9167 1125.93 81.75C1122.1 85.5833 1120.18 90.8333 1120.18 97.5V141.5C1120.18 148.167 1122.1 153.417 1125.93 157.25C1129.76 161.083 1135.01 163 1141.68 163H1214.93C1221.6 163 1226.85 161.083 1230.68 157.25C1234.51 153.417 1236.43 148.167 1236.43 141.5V97.5C1236.43 90.8333 1234.51 85.5833 1230.68 81.75C1226.85 77.9167 1221.6 76 1214.93 76H1141.68Z" fill="url(#paint6_linear_2283_29)"/>
<path d="M1401.53 163C1405.19 163 1407.03 164.75 1407.03 168.25V179C1407.03 182.667 1405.19 184.5 1401.53 184.5H1344.03C1332.36 184.5 1322.94 181 1315.78 174C1308.61 166.833 1305.03 157.333 1305.03 145.5V76H1287.53C1283.86 76 1282.03 74.25 1282.03 70.75V60C1282.03 56.3333 1283.86 54.5 1287.53 54.5H1305.03V28.75C1305.03 25.0833 1306.86 23.25 1310.53 23.25H1324.03C1327.69 23.25 1329.53 25.0833 1329.53 28.75V54.5H1400.78C1404.44 54.5 1406.28 56.3333 1406.28 60V70.75C1406.28 74.25 1404.44 76 1400.78 76H1329.53V141.5C1329.53 148.167 1331.44 153.417 1335.28 157.25C1339.11 161.083 1344.36 163 1351.03 163H1401.53Z" fill="url(#paint7_linear_2283_29)"/>
<path d="M1561.11 54.5C1583.78 54.5 1595.11 65.9167 1595.11 88.75V96C1595.11 118.833 1583.78 130.25 1561.11 130.25H1456.36V141.5C1456.36 148.167 1458.28 153.417 1462.11 157.25C1465.94 161.083 1471.19 163 1477.86 163H1584.61C1588.28 163 1590.11 164.75 1590.11 168.25V179C1590.11 182.667 1588.28 184.5 1584.61 184.5H1470.86C1459.19 184.5 1449.78 181 1442.61 174C1435.44 166.833 1431.86 157.333 1431.86 145.5V93.5C1431.86 81.6667 1435.44 72.25 1442.61 65.25C1449.78 58.0833 1459.19 54.5 1470.86 54.5H1561.11ZM1456.36 108.75H1555.11C1560.78 108.75 1564.78 107.5 1567.11 105C1569.44 102.5 1570.61 98.5833 1570.61 93.25V91.5C1570.61 86.1667 1569.44 82.25 1567.11 79.75C1564.78 77.25 1560.78 76 1555.11 76H1477.86C1471.19 76 1465.94 77.9167 1462.11 81.75C1458.28 85.5833 1456.36 90.8333 1456.36 97.5V108.75Z" fill="url(#paint8_linear_2283_29)"/>
<path d="M1645.11 147.75C1645.11 153.083 1646.19 157 1648.36 159.5C1650.53 161.833 1654.28 163 1659.61 163H1662.61C1666.28 163 1668.11 164.75 1668.11 168.25V179C1668.11 182.667 1666.28 184.5 1662.61 184.5H1654.36C1631.69 184.5 1620.36 173.083 1620.36 150.25V5.5C1620.36 1.83333 1622.19 0 1625.86 0H1639.61C1643.28 0 1645.11 1.83333 1645.11 5.5V147.75Z" fill="url(#paint9_linear_2283_29)"/>
<defs>
<linearGradient id="paint0_linear_2283_29" x1="0" y1="92.25" x2="1668.11" y2="92.25" gradientUnits="userSpaceOnUse">
<stop offset="0.254859" stop-color="#469EF6"/>
<stop offset="0.697173" stop-color="#6300AD"/>
</linearGradient>
<linearGradient id="paint1_linear_2283_29" x1="0" y1="92.25" x2="1668.11" y2="92.25" gradientUnits="userSpaceOnUse">
<stop offset="0.254859" stop-color="#469EF6"/>
<stop offset="0.697173" stop-color="#6300AD"/>
</linearGradient>
<linearGradient id="paint2_linear_2283_29" x1="0" y1="92.25" x2="1668.11" y2="92.25" gradientUnits="userSpaceOnUse">
<stop offset="0.254859" stop-color="#469EF6"/>
<stop offset="0.697173" stop-color="#6300AD"/>
</linearGradient>
<linearGradient id="paint3_linear_2283_29" x1="0" y1="92.25" x2="1668.11" y2="92.25" gradientUnits="userSpaceOnUse">
<stop offset="0.254859" stop-color="#469EF6"/>
<stop offset="0.697173" stop-color="#6300AD"/>
</linearGradient>
<linearGradient id="paint4_linear_2283_29" x1="0" y1="92.25" x2="1668.11" y2="92.25" gradientUnits="userSpaceOnUse">
<stop offset="0.254859" stop-color="#469EF6"/>
<stop offset="0.697173" stop-color="#6300AD"/>
</linearGradient>
<linearGradient id="paint5_linear_2283_29" x1="0" y1="92.25" x2="1668.11" y2="92.25" gradientUnits="userSpaceOnUse">
<stop offset="0.254859" stop-color="#469EF6"/>
<stop offset="0.697173" stop-color="#6300AD"/>
</linearGradient>
<linearGradient id="paint6_linear_2283_29" x1="0" y1="92.25" x2="1668.11" y2="92.25" gradientUnits="userSpaceOnUse">
<stop offset="0.254859" stop-color="#469EF6"/>
<stop offset="0.697173" stop-color="#6300AD"/>
</linearGradient>
<linearGradient id="paint7_linear_2283_29" x1="0" y1="92.25" x2="1668.11" y2="92.25" gradientUnits="userSpaceOnUse">
<stop offset="0.254859" stop-color="#469EF6"/>
<stop offset="0.697173" stop-color="#6300AD"/>
</linearGradient>
<linearGradient id="paint8_linear_2283_29" x1="0" y1="92.25" x2="1668.11" y2="92.25" gradientUnits="userSpaceOnUse">
<stop offset="0.254859" stop-color="#469EF6"/>
<stop offset="0.697173" stop-color="#6300AD"/>
</linearGradient>
<linearGradient id="paint9_linear_2283_29" x1="0" y1="92.25" x2="1668.11" y2="92.25" gradientUnits="userSpaceOnUse">
<stop offset="0.254859" stop-color="#469EF6"/>
<stop offset="0.697173" stop-color="#6300AD"/>
</linearGradient>
</defs>
</svg>
