<svg width="116" height="32" viewBox="0 0 116 32" fill="none" xmlns="http://www.w3.org/2000/svg">
  <g transform="translate(0,1) scale(0.9)">
    <path fill-rule="evenodd" clip-rule="evenodd" d="M19.2527 0.00733494C19.2478 0.00122289 19.2478 0.0012169 19.2429 0.0012169V0.00737121C19.1937 -0.00431057 19.1464 -0.00302567 19.1083 0.0178786C19.0726 0.034479 19.0413 0.0584454 19.0265 0.0824238C18.2966 0.724314 17.5921 1.37847 16.9131 2.04459C16.5037 1.71615 16.087 1.39273 15.6629 1.07432L15.6745 1.08032C15.632 1.03836 15.5894 1.00354 15.5417 0.980736V0.979603C15.4698 0.937794 15.3893 0.912557 15.305 0.90395C15.1409 0.889194 14.9915 0.935938 14.8654 1.04415C14.7388 1.15051 14.6674 1.28945 14.6539 1.45484C14.6429 1.58825 14.6668 1.71923 14.7308 1.8385C14.7339 1.85019 14.7382 1.86368 14.7437 1.87168L14.7474 1.87783C14.7491 1.87983 14.751 1.88206 14.753 1.88446C14.7597 1.89239 14.7679 1.90216 14.7769 1.91161C14.7811 1.91655 14.7853 1.92168 14.7895 1.92674C14.7989 1.93803 14.808 1.94902 14.8156 1.95709C14.8193 1.96262 14.8261 1.9694 14.8384 1.97555C15.263 2.26895 15.6805 2.56712 16.0907 2.87006C15.7264 3.24416 15.37 3.62188 15.0215 4.00317C14.9656 3.97058 14.9065 3.94168 14.8426 3.92016C14.3212 3.73571 13.7494 4.00806 13.5656 4.52944C13.4469 4.86636 13.5189 5.2218 13.7242 5.48125C13.3671 5.90538 13.0193 6.33386 12.6806 6.76668C10.1639 6.4846 7.58753 6.41474 4.95154 6.55708L4.96323 6.55093C4.90298 6.54662 4.84641 6.54776 4.79354 6.56128H4.79845C4.71791 6.57481 4.63921 6.60619 4.56912 6.6566C4.43447 6.75129 4.35085 6.88226 4.32195 7.04642C4.29306 7.20997 4.32934 7.36239 4.42464 7.49704C4.50149 7.60648 4.60478 7.69145 4.73143 7.74186C4.73267 7.74261 4.73393 7.74344 4.7352 7.74433C4.73643 7.74518 4.73768 7.74609 4.73894 7.74701C4.74605 7.75217 4.75376 7.75777 4.76279 7.75777H4.76771C4.77096 7.75835 4.77474 7.75933 4.7789 7.76042C4.78815 7.76282 4.79931 7.76573 4.81075 7.76573C4.8193 7.76734 4.82785 7.76836 4.83597 7.76933C4.84945 7.77093 4.8618 7.7724 4.871 7.77624C4.87276 7.77624 4.87488 7.77674 4.87729 7.77731C4.88329 7.77875 4.89113 7.78062 4.8999 7.77624C7.32402 7.54913 9.69344 7.50645 12.0081 7.6481C11.3284 8.56207 10.6885 9.49492 10.0885 10.4467C6.58422 12.2816 3.30459 14.6186 0.249494 17.4578L0.256249 17.4473C0.206891 17.482 0.165387 17.5191 0.132929 17.564C0.082058 17.6268 0.043556 17.699 0.0213907 17.7799C-0.0204178 17.9391 -0.00135861 18.094 0.0822583 18.2379C0.16526 18.3823 0.290071 18.477 0.449312 18.5189C0.578426 18.5533 0.71246 18.5534 0.841574 18.5097C0.853854 18.5097 0.86556 18.5097 0.875385 18.5029L0.88092 18.4968C0.890688 18.4907 0.90409 18.4834 0.918724 18.4755C0.927393 18.4707 0.936503 18.4654 0.944963 18.4605C0.95509 18.4546 0.964772 18.4489 0.973141 18.4446C0.97683 18.4446 0.98667 18.4365 0.993434 18.4267C3.57293 15.8318 6.32413 13.6362 9.24679 11.8395C8.36367 13.3652 7.57909 14.9378 6.89283 16.5574C6.50426 16.582 6.14704 16.8322 6.0087 17.2226C5.8802 17.5884 5.97489 17.9764 6.22144 18.2408C4.94566 21.6402 4.08982 25.2394 3.64898 29.0372L3.64775 29.0243C3.63361 29.0834 3.62501 29.138 3.62931 29.194L3.63177 29.1878C3.63177 29.2702 3.64899 29.352 3.68649 29.4307C3.75781 29.5788 3.87401 29.6846 4.02895 29.7393C4.18634 29.7952 4.34251 29.786 4.4913 29.7141C4.6118 29.6575 4.71264 29.5703 4.78335 29.4547L4.78768 29.4501C4.79474 29.4428 4.80129 29.436 4.80487 29.4263L4.84176 29.3224L4.84195 29.3219C4.84385 29.3162 4.84722 29.3061 4.84544 29.2942C5.13318 25.5093 5.84024 21.9303 6.96661 18.5574C7.37362 18.5518 7.75237 18.2955 7.89501 17.8891C8.03826 17.487 7.9073 17.0554 7.59988 16.7947C8.34184 14.8736 9.22569 13.0224 10.2516 11.2414C12.3478 10.0339 14.53 9.02622 16.798 8.2182C19.203 8.64828 21.5448 9.29118 23.8233 10.1468C28.0184 15.2316 30.8628 21.2085 32.3586 28.0751C32.1053 28.179 31.895 28.3869 31.7966 28.666C31.6128 29.1868 31.8852 29.7579 32.4053 29.9424C32.9267 30.1268 33.4979 29.8539 33.6817 29.3319C33.8661 28.8124 33.5932 28.2406 33.0718 28.0568C32.9513 28.0131 32.8271 27.994 32.7066 28.0002C31.312 21.4678 28.8031 15.6959 25.1796 10.6843C28.5871 12.1066 31.8498 14.0152 34.9676 16.4097C34.959 16.4306 34.951 16.4509 34.9424 16.4736C34.7585 16.9956 35.0315 17.5661 35.5523 17.7494C36.0718 17.9338 36.6436 17.6621 36.8274 17.1401C37.0125 16.6199 36.7389 16.0482 36.2188 15.8637V15.8667C35.8369 15.7327 35.4287 15.8422 35.1655 16.1152C31.7835 13.4968 28.2517 11.4124 24.5699 9.86206C23.7549 8.79001 22.8871 7.75395 21.9665 6.75388C24.743 6.15908 27.6348 5.83253 30.6418 5.77403V5.78079H30.7752C30.7972 5.78673 30.825 5.78117 30.8546 5.77523L30.8576 5.77463C30.8596 5.77463 30.8623 5.77274 30.865 5.77075C30.8672 5.76916 30.8696 5.76749 30.8717 5.76667C30.8745 5.76279 30.8791 5.76061 30.8835 5.7586C30.886 5.75743 30.8884 5.75632 30.8902 5.75497C30.9332 5.72976 30.9584 5.69663 30.9726 5.64314H30.9781C30.983 5.59518 30.9775 5.55331 30.9627 5.51765C30.9603 5.51167 30.9602 5.51143 30.9566 5.50594C30.9271 5.46598 30.8908 5.4366 30.8471 5.42984C30.8109 5.41939 30.7703 5.41692 30.7432 5.42369C27.5791 5.46969 24.5369 5.78784 21.6166 6.37815C20.2562 4.9345 18.784 3.56723 17.1997 2.27632C17.8352 1.64526 18.4948 1.0262 19.1784 0.41926L19.1808 0.413105C19.2067 0.387282 19.2386 0.363382 19.2712 0.339404C19.2712 0.339404 19.2724 0.336245 19.2798 0.330097C19.302 0.319645 19.321 0.298208 19.3407 0.275459L19.3536 0.239133C19.3702 0.192406 19.3677 0.150552 19.3438 0.100136L19.3462 0.0939818C19.3186 0.0540179 19.2878 0.025165 19.2527 0.00733494ZM16.3942 3.09604C16.0249 3.48122 15.6643 3.87071 15.3123 4.2645C15.5041 4.52273 15.5687 4.86881 15.4531 5.1959C15.2693 5.71728 14.6975 5.98963 14.178 5.80518C14.1325 5.79042 14.0882 5.77086 14.0458 5.74934C13.7551 6.1053 13.4713 6.46462 13.1942 6.8273C14.5415 6.99433 15.8716 7.22258 17.1845 7.51205C18.2835 7.1692 19.4014 6.86845 20.5381 6.60979C19.2518 5.37574 17.8706 4.20447 16.3942 3.09604ZM20.9292 6.98987C20.0056 7.21239 19.095 7.46522 18.1974 7.74837C19.8507 8.15541 21.4763 8.66086 23.0742 9.26471C22.3924 8.48454 21.6774 7.72625 20.9292 6.98987ZM11.0103 9.97817C11.4974 9.19989 12.0126 8.43554 12.5561 7.68515C13.5936 7.762 14.62 7.87615 15.6354 8.02761C14.0534 8.58766 12.5117 9.23784 11.0103 9.97817Z" fill="#6B21A8"/>
    <path d="M8.30951 3.32123C8.30951 3.8737 7.86165 4.32168 7.30918 4.32168C6.75671 4.32168 6.30885 3.8737 6.30885 3.32123C6.30885 2.76877 6.75671 2.32093 7.30918 2.32093C7.86165 2.32093 8.30951 2.76877 8.30951 3.32123Z" fill="#6B21A8"/>
    <path d="M1.04365 27.1927C1.59578 27.1927 2.04337 26.7452 2.04337 26.193C2.04337 25.6409 1.59578 25.1933 1.04365 25.1933C0.491527 25.1933 0.0439452 25.6409 0.0439452 26.193C0.0439452 26.7452 0.491527 27.1927 1.04365 27.1927Z" fill="#6B21A8"/>
  </g>
  <text x="40" y="24" font-family="Helvetica Neue, Helvetica, Arial, sans-serif" font-size="18" font-weight="500" fill="#6B21A8" letter-spacing="0.3">datadis</text>
</svg>
